<svg width="407.581543" height="354.020996" id="languages" viewBox="0 0 407.582 354.021" fill="none" xmlns="http://www.w3.org/2000/svg" xmlns:xlink="http://www.w3.org/1999/xlink">
	<desc>
			Created with Pixso.
	</desc>
	<defs/>
	<path id="path54" d="M319.09 231.093C312.636 236.458 314.775 267.769 294.819 254.285C274.862 240.801 308.901 232.803 306.955 225.16C304.229 214.459 259.221 227.317 266.772 206.821C274.323 186.326 301.23 217.149 308.303 209.519C314.801 202.509 282.414 177.157 297.517 172.842C312.618 168.526 309.366 205.207 319.09 205.204C326.656 205.201 325.248 170.145 339.159 182.55C353.071 194.955 322.661 207.177 326.642 214.876C329.666 220.727 353.609 206.282 352.531 219.766C351.452 233.25 325.878 225.45 319.09 231.093Z" fill="#38BFF2" fill-opacity="1.000000" fill-rule="nonzero"/>
	<path id="path58" d="M314.776 215.058C314.776 215.058 329.339 232.711 327.721 280.715" stroke="#1A2E35" stroke-opacity="1.000000" stroke-width="1.333333" stroke-linejoin="round" stroke-linecap="round"/>
	<path id="path62" d="M286.405 240.035C288.985 234.842 310.375 231.298 298.135 220.026C285.895 208.755 285.935 232.911 280.485 232.819C272.857 232.69 274.342 200.384 261.764 208.723C249.186 217.06 274.189 230.245 270.185 236.215C266.505 241.698 244.309 223.958 243.811 234.798C243.312 245.638 267.455 237.616 269 244.154C270.202 249.241 246.41 253.871 256.963 261.249C267.517 268.628 270.896 246.239 276.705 247.691C281.119 248.794 275.217 267.189 284.11 264.318C293.004 261.448 283.691 245.495 286.405 240.035Z" fill="#38BFF2" fill-opacity="1.000000" fill-rule="nonzero"/>
	<g opacity="0.300003">
		<g opacity="0.300003">
			<g opacity="0.300003">
				<path id="path72" d="M286.404 240.035C288.985 234.842 310.375 231.298 298.135 220.026C285.895 208.755 285.934 232.911 280.485 232.819C272.857 232.69 274.341 200.384 261.763 208.723C249.185 217.06 274.189 230.245 270.184 236.215C266.504 241.698 244.308 223.958 243.81 234.798C243.311 245.638 267.455 237.616 269 244.154C270.201 249.241 246.41 253.871 256.963 261.249C267.516 268.628 270.895 246.239 276.704 247.691C281.118 248.794 275.217 267.189 284.11 264.318C293.003 261.448 283.691 245.495 286.404 240.035Z" fill="#000000" fill-opacity="1.000000" fill-rule="nonzero"/>
			</g>
		</g>
	</g>
	<path id="path82" d="M275.402 240.262C275.402 240.262 316.846 235.947 320.935 280.714" stroke="#1A2E35" stroke-opacity="1.000000" stroke-width="1.333333" stroke-linejoin="round" stroke-linecap="round"/>
	<path id="path86" d="M354.411 235.407C360.864 240.773 358.726 272.083 378.682 258.6C398.638 245.115 364.601 237.119 366.546 229.475C369.271 218.773 414.28 231.632 406.729 211.136C399.178 190.64 372.271 221.463 365.198 213.834C358.701 206.823 391.087 181.472 375.985 177.157C360.882 172.842 364.134 209.523 354.411 209.519C346.845 209.515 348.253 174.459 334.342 186.865C320.43 199.27 350.84 211.492 346.86 219.19C343.835 225.042 319.892 210.597 320.97 224.081C322.049 237.564 347.623 229.765 354.411 235.407Z" fill="#38BFF2" fill-opacity="1.000000" fill-rule="nonzero"/>
	<g opacity="0.300003">
		<g opacity="0.300003">
			<g opacity="0.300003">
				<path id="path96" d="M354.411 235.407C360.864 240.773 358.726 272.083 378.682 258.6C398.638 245.115 364.601 237.119 366.546 229.475C369.271 218.773 414.28 231.632 406.729 211.136C399.178 190.64 372.271 221.463 365.198 213.834C358.701 206.823 391.087 181.472 375.985 177.157C360.882 172.842 364.134 209.523 354.411 209.519C346.845 209.515 348.253 174.459 334.342 186.865C320.43 199.27 350.84 211.492 346.86 219.19C343.835 225.042 319.892 210.597 320.97 224.081C322.049 237.564 347.623 229.765 354.411 235.407Z" fill="#FFFFFF" fill-opacity="1.000000" fill-rule="nonzero"/>
			</g>
		</g>
	</g>
	<path id="path106" d="M359.003 219.372C359.003 219.372 340.126 244.577 335.811 286.648" stroke="#1A2E35" stroke-opacity="1.000000" stroke-width="1.333333" stroke-linejoin="round" stroke-linecap="round"/>
	<path id="path110" d="M345.488 352.458L316.061 352.458C310.427 352.458 305.731 348.146 305.253 342.532L300.627 288.164C300.088 281.835 305.082 276.399 311.434 276.399L350.114 276.399C356.467 276.399 361.46 281.835 360.921 288.164L356.294 342.532C355.818 348.146 351.122 352.458 345.488 352.458Z" fill="#38BFF2" fill-opacity="1.000000" fill-rule="nonzero"/>
	<path id="path114" d="M316.061 352.458C310.427 352.458 305.731 348.146 305.253 342.532L300.627 288.164C300.088 281.835 305.082 276.399 311.434 276.399L350.114 276.399C356.467 276.399 361.46 281.835 360.921 288.164L356.294 342.532C355.818 348.146 351.122 352.458 345.488 352.458L316.061 352.458Z" stroke="#1A2E35" stroke-opacity="1.000000" stroke-width="1.333333" stroke-linejoin="round"/>
	<path id="path126" d="M125.139 274.373C134.973 274.373 163.384 267.955 163.384 267.955L86.8936 267.955C86.8936 267.955 115.305 274.373 125.139 274.373Z" fill="#1A2E35" fill-opacity="1.000000" fill-rule="nonzero"/>
	<path id="path130" d="M163.384 267.955L86.8936 267.955C86.8936 267.955 115.305 274.373 125.139 274.373C134.973 274.373 163.384 267.955 163.384 267.955Z" stroke="#1A2E35" stroke-opacity="1.000000" stroke-width="1.333333" stroke-linejoin="round"/>
	<path id="path132" d="M116.374 283.178L133.901 283.178L133.901 271.164L116.374 271.164L116.374 283.178Z" fill="#868686" fill-opacity="1.000000" fill-rule="nonzero"/>
	<path id="path132" d="M133.901 283.178L133.901 271.164L116.374 271.164L116.374 283.178L133.901 283.178Z" stroke="#1A2E35" stroke-opacity="1.000000" stroke-width="1.333333" stroke-linejoin="round"/>
	<path id="path134" d="M113.782 334.84L136.496 334.84L136.496 283.178L113.782 283.178L113.782 334.84Z" fill="#9A9A9A" fill-opacity="1.000000" fill-rule="nonzero"/>
	<path id="path134" d="M136.496 334.84L136.496 283.178L113.782 283.178L113.782 334.84L136.496 334.84Z" stroke="#1A2E35" stroke-opacity="1.000000" stroke-width="1.333333" stroke-linejoin="round"/>
	<path id="path138" d="M82.4771 252.632L97.2378 252.632C95.5981 242.462 94.3877 232.098 93.6416 221.824L78.8799 221.824C79.626 232.098 80.8374 242.462 82.4771 252.632Z" fill="#868686" fill-opacity="1.000000" fill-rule="nonzero"/>
	<path id="path142" d="M97.2378 252.632C95.5981 242.462 94.3877 232.098 93.6416 221.824L78.8799 221.824C79.626 232.098 80.8374 242.462 82.4771 252.632L97.2378 252.632Z" stroke="#1A2E35" stroke-opacity="1.000000" stroke-width="1.333333" stroke-linejoin="round"/>
	<path id="path146" d="M60.0557 130.839L123.686 130.839C131.165 130.839 136.059 137.153 134.613 144.596C130.539 167.504 128.131 190.151 127.338 213.413C127.218 220.154 122.088 225.36 115.343 225.36L61.7788 225.36C55.0337 225.36 48.9614 220.154 48.0957 213.413C45.5156 190.398 44.5835 167.755 45.3047 144.596C45.6587 137.153 52.5752 130.839 60.0557 130.839Z" fill="#868686" fill-opacity="1.000000" fill-rule="nonzero"/>
	<path id="path150" d="M123.686 130.839C131.165 130.839 136.059 137.153 134.613 144.596C130.539 167.504 128.131 190.151 127.338 213.413C127.218 220.154 122.088 225.36 115.343 225.36L61.7788 225.36C55.0337 225.36 48.9614 220.154 48.0957 213.413C45.5156 190.398 44.5835 167.755 45.3047 144.596C45.6587 137.153 52.5752 130.839 60.0557 130.839L123.686 130.839Z" stroke="#1A2E35" stroke-opacity="1.000000" stroke-width="1.333333" stroke-linejoin="round"/>
	<path id="path154" d="M56.5898 144.596C55.8682 167.755 56.8008 190.399 59.3813 213.413C60.2471 220.154 66.3188 225.361 73.064 225.361L115.343 225.361C122.089 225.361 127.218 220.154 127.338 213.413C128.132 190.15 130.54 167.504 134.614 144.596C136.06 137.154 131.166 130.839 123.686 130.839L71.3408 130.839C63.8594 130.839 56.9438 137.154 56.5898 144.596Z" fill="#9A9A9A" fill-opacity="1.000000" fill-rule="nonzero"/>
	<path id="path158" d="M59.3813 213.413C60.2471 220.154 66.3188 225.361 73.064 225.361L115.343 225.361C122.089 225.361 127.218 220.154 127.338 213.413C128.132 190.15 130.54 167.504 134.614 144.596C136.06 137.154 131.166 130.839 123.686 130.839L71.3408 130.839C63.8594 130.839 56.9438 137.154 56.5898 144.596C55.8682 167.755 56.8008 190.399 59.3813 213.413Z" stroke="#1A2E35" stroke-opacity="1.000000" stroke-width="1.333333" stroke-linejoin="round"/>
	<path id="path162" d="M86.8931 344.114C86.8931 345.326 88.0098 346.228 89.1943 345.97C96.1543 344.452 117.003 340.06 125.139 340.06C133.273 340.06 154.123 344.452 161.083 345.97C162.268 346.228 163.384 345.326 163.384 344.114C163.384 341.764 161.748 339.736 159.451 339.242C151.302 337.492 132.712 333.686 125.139 333.686C117.566 333.686 98.9746 337.492 90.8267 339.242C88.5288 339.736 86.8931 341.764 86.8931 344.114Z" fill="#1A2E35" fill-opacity="1.000000" fill-rule="nonzero"/>
	<path id="path166" d="M89.1943 345.97C96.1543 344.452 117.003 340.06 125.139 340.06C133.273 340.06 154.123 344.452 161.083 345.97C162.268 346.228 163.384 345.326 163.384 344.114C163.384 341.764 161.748 339.736 159.451 339.242C151.302 337.492 132.712 333.686 125.139 333.686C117.566 333.686 98.9746 337.492 90.8267 339.242C88.5288 339.736 86.8931 341.764 86.8931 344.114C86.8931 345.326 88.0098 346.228 89.1943 345.97Z" stroke="#1A2E35" stroke-opacity="1.000000" stroke-width="1.333333" stroke-linejoin="round"/>
	<path id="path170" d="M163.385 350.355C165.342 350.355 166.928 348.77 166.928 346.812C166.928 344.855 165.342 343.269 163.385 343.269C161.428 343.269 159.843 344.855 159.843 346.812C159.843 348.77 161.428 350.355 163.385 350.355ZM163.385 340.271C166.998 340.271 169.926 343.2 169.926 346.812C169.926 350.424 166.998 353.354 163.385 353.354C159.772 353.354 156.843 350.424 156.843 346.812C156.843 343.2 159.772 340.271 163.385 340.271Z" fill="#868686" fill-opacity="1.000000" fill-rule="nonzero"/>
	<path id="path174" d="M166.928 346.812C166.928 344.855 165.342 343.269 163.385 343.269C161.428 343.269 159.843 344.855 159.843 346.812C159.843 348.77 161.428 350.355 163.385 350.355C165.342 350.355 166.928 348.77 166.928 346.812ZM169.926 346.812C169.926 350.424 166.998 353.354 163.385 353.354C159.772 353.354 156.843 350.424 156.843 346.812C156.843 343.2 159.772 340.271 163.385 340.271C166.998 340.271 169.926 343.2 169.926 346.812Z" stroke="#1A2E35" stroke-opacity="1.000000" stroke-width="1.333333" stroke-linejoin="round"/>
	<path id="path178" d="M125.139 350.355C127.095 350.355 128.68 348.77 128.68 346.812C128.68 344.855 127.095 343.269 125.139 343.269C123.182 343.269 121.595 344.855 121.595 346.812C121.595 348.77 123.182 350.355 125.139 350.355ZM125.139 340.271C128.751 340.271 131.68 343.2 131.68 346.812C131.68 350.424 128.751 353.354 125.139 353.354C121.525 353.354 118.597 350.424 118.597 346.812C118.597 343.2 121.525 340.271 125.139 340.271Z" fill="#868686" fill-opacity="1.000000" fill-rule="nonzero"/>
	<path id="path182" d="M128.68 346.812C128.68 344.855 127.095 343.269 125.139 343.269C123.182 343.269 121.595 344.855 121.595 346.812C121.595 348.77 123.182 350.355 125.139 350.355C127.095 350.355 128.68 348.77 128.68 346.812ZM131.68 346.812C131.68 350.424 128.751 353.354 125.139 353.354C121.525 353.354 118.597 350.424 118.597 346.812C118.597 343.2 121.525 340.271 125.139 340.271C128.751 340.271 131.68 343.2 131.68 346.812Z" stroke="#1A2E35" stroke-opacity="1.000000" stroke-width="1.333333" stroke-linejoin="round"/>
	<path id="path186" d="M87.6865 350.355C89.644 350.355 91.2295 348.77 91.2295 346.812C91.2295 344.855 89.644 343.269 87.6865 343.269C85.73 343.269 84.1445 344.855 84.1445 346.812C84.1445 348.77 85.73 350.355 87.6865 350.355ZM87.6865 340.271C91.3003 340.271 94.229 343.2 94.229 346.812C94.229 350.424 91.3003 353.354 87.6865 353.354C84.0742 353.354 81.1455 350.424 81.1455 346.812C81.1455 343.2 84.0742 340.271 87.6865 340.271Z" fill="#868686" fill-opacity="1.000000" fill-rule="nonzero"/>
	<path id="path190" d="M91.2295 346.812C91.2295 344.855 89.644 343.269 87.6865 343.269C85.73 343.269 84.1445 344.855 84.1445 346.812C84.1445 348.77 85.73 350.355 87.6865 350.355C89.644 350.355 91.2295 348.77 91.2295 346.812ZM94.229 346.812C94.229 350.424 91.3003 353.354 87.6865 353.354C84.0742 353.354 81.1455 350.424 81.1455 346.812C81.1455 343.2 84.0742 340.271 87.6865 340.271C91.3003 340.271 94.229 343.2 94.229 346.812Z" stroke="#1A2E35" stroke-opacity="1.000000" stroke-width="1.333333" stroke-linejoin="round"/>
	<path id="path194" d="M105.75 250.564C131.493 251.36 156.618 250.249 182.189 247.184C187.396 246.484 191.605 250.048 191.605 255.272L191.605 256.521C191.605 261.746 187.396 266.654 182.189 267.354C156.618 270.419 131.493 271.53 105.75 270.733L105.75 250.564Z" fill="#9A9A9A" fill-opacity="1.000000" fill-rule="nonzero"/>
	<path id="path198" d="M182.189 247.184C187.396 246.484 191.605 250.048 191.605 255.272L191.605 256.521C191.605 261.746 187.396 266.654 182.189 267.354C156.618 270.419 131.493 271.53 105.75 270.733L105.75 250.564C131.493 251.36 156.618 250.249 182.189 247.184Z" stroke="#1A2E35" stroke-opacity="1.000000" stroke-width="1.333333" stroke-linejoin="round"/>
	<path id="path202" d="M65.6592 267.02C81.5034 269.001 97.21 270.32 113.164 271.005C117.052 271.114 120.207 268 120.207 264.12L120.207 257.997C120.207 254.118 117.052 250.944 113.164 250.835C97.21 250.15 81.5034 248.832 65.6592 246.851C61.7964 246.309 58.6714 248.956 58.6714 252.834L58.6714 258.958C58.6714 262.838 61.7964 266.479 65.6592 267.02Z" fill="#868686" fill-opacity="1.000000" fill-rule="nonzero"/>
	<path id="path206" d="M113.164 271.005C117.052 271.114 120.207 268 120.207 264.12L120.207 257.997C120.207 254.118 117.052 250.944 113.164 250.835C97.21 250.15 81.5034 248.832 65.6592 246.851C61.7964 246.309 58.6714 248.956 58.6714 252.834L58.6714 258.958C58.6714 262.838 61.7964 266.479 65.6592 267.02C81.5034 269.001 97.21 270.32 113.164 271.005Z" stroke="#1A2E35" stroke-opacity="1.000000" stroke-width="1.333333" stroke-linejoin="round"/>
	<path id="path210" d="M171.745 349.955C171.792 346.393 172.522 339.263 176.713 330.068L182.186 310.343L199.246 317.63L194.448 332.734C194.448 332.734 209.114 339.731 214.528 341.62C218.135 342.875 228.922 345.351 228.389 349.971C228.389 351.346 227.275 352.459 225.901 352.459L174.233 352.459C172.852 352.459 171.727 351.337 171.745 349.955Z" fill="#FFFFFF" fill-opacity="1.000000" fill-rule="nonzero"/>
	<path id="path214" d="M176.713 330.068L182.186 310.343L199.246 317.63L194.448 332.734C194.448 332.734 209.114 339.731 214.528 341.62C218.135 342.875 228.922 345.351 228.389 349.971C228.389 351.346 227.275 352.459 225.901 352.459L174.233 352.459C172.852 352.459 171.727 351.337 171.745 349.955C171.792 346.393 172.522 339.263 176.713 330.068Z" stroke="#1A2E35" stroke-opacity="1.000000" stroke-width="1.333333" stroke-linejoin="round"/>
	<path id="path218" d="M181.132 338.421C183.797 340.375 198.013 342.862 194.448 340.02C190.883 337.176 194.448 332.733 194.448 332.733C194.448 332.733 209.113 339.731 214.529 341.619C218.136 342.876 228.923 345.351 228.39 349.971C228.39 351.345 227.275 352.458 225.901 352.458L174.233 352.458C172.852 352.458 171.728 351.337 171.745 349.955C171.784 346.947 172.319 341.385 175.009 334.191C177.947 334.227 178.466 336.466 181.132 338.421Z" fill="#38BFF2" fill-opacity="1.000000" fill-rule="nonzero"/>
	<path id="path222" d="M194.448 340.02C190.883 337.176 194.448 332.733 194.448 332.733C194.448 332.733 209.113 339.731 214.529 341.619C218.136 342.876 228.923 345.351 228.39 349.971C228.39 351.345 227.275 352.458 225.901 352.458L174.233 352.458C172.852 352.458 171.728 351.337 171.745 349.955C171.784 346.947 172.319 341.385 175.009 334.191C177.947 334.227 178.466 336.466 181.132 338.421C183.797 340.375 198.013 342.862 194.448 340.02Z" stroke="#1A2E35" stroke-opacity="1.000000" stroke-width="1.333333" stroke-linejoin="round"/>
	<path id="path226" d="M159.403 352.458L121.555 352.458C120.772 352.458 120.104 351.904 119.957 351.136C119.376 348.127 119.509 341.401 122.923 332.467L123.259 314.33L142.648 317.629L140.188 333.09C140.188 333.09 147.995 341.68 151.702 343.219C154.309 344.3 160.229 344.414 161.025 350.645C161.149 351.608 160.375 352.458 159.403 352.458Z" fill="#FFFFFF" fill-opacity="1.000000" fill-rule="nonzero"/>
	<path id="path230" d="M121.555 352.458C120.772 352.458 120.104 351.904 119.957 351.136C119.376 348.127 119.509 341.401 122.923 332.467L123.259 314.33L142.648 317.629L140.188 333.09C140.188 333.09 147.995 341.68 151.702 343.219C154.309 344.3 160.229 344.414 161.025 350.645C161.149 351.608 160.375 352.458 159.403 352.458L121.555 352.458Z" stroke="#1A2E35" stroke-opacity="1.000000" stroke-width="1.333333" stroke-linejoin="round"/>
	<path id="path234" d="M129.312 338.489C133.313 341.287 136.263 341.62 134.397 337.423C132.531 333.227 140.188 333.09 140.188 333.09C140.188 333.09 147.995 341.679 151.703 343.219C154.309 344.299 160.23 344.414 161.026 350.644C161.148 351.608 160.375 352.459 159.404 352.459L121.555 352.459C120.772 352.459 120.104 351.904 119.957 351.136C119.377 348.127 119.509 341.4 122.923 332.467C125.844 333.178 125.31 335.691 129.312 338.489Z" fill="#38BFF2" fill-opacity="1.000000" fill-rule="nonzero"/>
	<path id="path238" d="M134.397 337.423C132.531 333.227 140.188 333.09 140.188 333.09C140.188 333.09 147.995 341.679 151.703 343.219C154.309 344.299 160.23 344.414 161.026 350.644C161.148 351.608 160.375 352.459 159.404 352.459L121.555 352.459C120.772 352.459 120.104 351.904 119.957 351.136C119.377 348.127 119.509 341.4 122.923 332.467C125.844 333.178 125.31 335.691 129.312 338.489C133.313 341.287 136.263 341.62 134.397 337.423Z" stroke="#1A2E35" stroke-opacity="1.000000" stroke-width="1.333333" stroke-linejoin="round"/>
	<path id="path242" d="M163.173 214.028C163.173 214.028 166.983 217.938 182.582 220.425C198.18 222.913 230.522 230.733 230.167 243.527C229.812 256.322 199.958 324.56 199.958 324.56C199.958 324.56 185.03 321.716 178.1 317.451C178.1 317.451 190.115 268.76 199.124 255.966C199.124 255.966 158.681 250.991 136.315 241.75C113.949 232.509 127.099 211.479 127.099 211.479L163.173 214.028Z" fill="#1A2E35" fill-opacity="1.000000" fill-rule="nonzero"/>
	<path id="path246" d="M182.582 220.425C198.18 222.913 230.522 230.733 230.167 243.527C229.812 256.322 199.958 324.56 199.958 324.56C199.958 324.56 185.03 321.716 178.1 317.451C178.1 317.451 190.115 268.76 199.124 255.966C199.124 255.966 158.681 250.991 136.315 241.75C113.949 232.509 127.099 211.479 127.099 211.479L163.173 214.028C163.173 214.028 166.983 217.938 182.582 220.425Z" stroke="#1A2E35" stroke-opacity="1.000000" stroke-width="1.333333" stroke-linejoin="round"/>
	<path id="path250" d="M137.762 212.232C137.762 212.232 132.025 221.847 136.314 227.178C140.604 232.509 164.934 242.461 162.188 254.545C159.441 266.628 150.356 283.688 144.432 324.204C144.432 324.204 130.653 322.072 121.412 318.163C121.412 318.163 119.881 276.935 130.597 259.165C130.597 259.165 99.9097 253.479 96.8003 243.171C93.6904 232.865 99.5088 217.104 99.6206 211.479L137.762 212.232Z" fill="#1A2E35" fill-opacity="1.000000" fill-rule="nonzero"/>
	<path id="path254" d="M136.314 227.178C140.604 232.509 164.934 242.461 162.188 254.545C159.441 266.628 150.356 283.688 144.432 324.204C144.432 324.204 130.653 322.072 121.412 318.163C121.412 318.163 119.881 276.935 130.597 259.165C130.597 259.165 99.9097 253.479 96.8003 243.171C93.6904 232.865 99.5088 217.104 99.6206 211.479L137.762 212.232C137.762 212.232 132.025 221.847 136.314 227.178Z" stroke="#1A2E35" stroke-opacity="1.000000" stroke-width="1.333333" stroke-linejoin="round"/>
	<path id="path258" d="M156.25 227.499C156.93 227.455 157.638 227.462 158.375 227.534" stroke="#808080" stroke-opacity="1.000000" stroke-width="1.000000" stroke-linejoin="round" stroke-linecap="round"/>
	<path id="path262" d="M154.901 221.137C154.901 221.137 148.599 222.991 146.126 231.204C145.93 231.855 146.741 232.353 147.219 231.869C148.531 230.543 150.579 228.913 153.289 228.057" stroke="#808080" stroke-opacity="1.000000" stroke-width="1.000000" stroke-linejoin="round" stroke-linecap="round"/>
	<path id="path266" d="M202.088 255.522C202.088 252.056 217.016 250.191 213.017 246.992C209.019 243.794 199.956 254.189 199.956 254.189" stroke="#808080" stroke-opacity="1.000000" stroke-width="1.000000" stroke-linejoin="round" stroke-linecap="round"/>
	<path id="path270" d="M128.743 269.383C128.743 265.414 143.008 263.252 142.294 258.987C141.582 254.722 132.52 263.119 132.52 263.119" stroke="#808080" stroke-opacity="1.000000" stroke-width="1.000000" stroke-linejoin="round" stroke-linecap="round"/>
	<path id="path274" d="M201.529 324.803L199.958 328.427C199.779 328.839 199.339 329.068 198.902 328.969C195.454 328.192 181.08 324.796 176.032 321.176C175.731 320.961 175.607 320.573 175.694 320.213L176.673 316.173C176.818 315.575 177.49 315.28 178.03 315.576C180.297 316.815 186.622 319.768 200.901 323.528C201.454 323.673 201.756 324.278 201.529 324.803Z" fill="#9A9A9A" fill-opacity="1.000000" fill-rule="nonzero"/>
	<path id="path278" d="M199.958 328.427C199.779 328.839 199.339 329.068 198.902 328.969C195.454 328.192 181.08 324.796 176.032 321.176C175.731 320.961 175.607 320.573 175.694 320.213L176.673 316.173C176.818 315.575 177.49 315.28 178.03 315.576C180.297 316.815 186.622 319.768 200.901 323.528C201.454 323.673 201.756 324.278 201.529 324.803L199.958 328.427Z" stroke="#1A2E35" stroke-opacity="1.000000" stroke-width="1.333333" stroke-linejoin="round"/>
	<path id="path282" d="M146.167 321.818C146.246 321.273 145.72 320.822 145.205 321.013C144.182 321.393 142.451 321.689 139.849 321.094C135.896 320.191 124.579 316.609 121.212 315.535C120.736 315.383 120.257 315.741 120.257 316.241L120.257 320.954C120.257 321.247 120.422 321.508 120.689 321.626C123.336 322.805 137.502 328.873 144.917 327.22C145.212 327.153 145.43 326.901 145.473 326.6L146.167 321.818Z" fill="#9A9A9A" fill-opacity="1.000000" fill-rule="nonzero"/>
	<path id="path286" d="M145.205 321.013C144.182 321.393 142.451 321.689 139.849 321.094C135.896 320.191 124.579 316.609 121.212 315.535C120.736 315.383 120.257 315.741 120.257 316.241L120.257 320.954C120.257 321.247 120.422 321.508 120.689 321.626C123.336 322.805 137.502 328.873 144.917 327.22C145.212 327.153 145.43 326.901 145.473 326.6L146.167 321.818C146.246 321.273 145.72 320.822 145.205 321.013Z" stroke="#1A2E35" stroke-opacity="1.000000" stroke-width="1.333333" stroke-linejoin="round"/>
	<path id="path290" d="M134.766 223.128C134.9 224.588 135.358 225.99 136.314 227.178C139.443 231.066 153.234 237.412 159.403 245.252" stroke="#808080" stroke-opacity="1.000000" stroke-width="1.333333" stroke-linejoin="round" stroke-linecap="round"/>
	<path id="path294" d="M135.43 217.706C135.205 218.473 135.014 219.283 134.888 220.107" stroke="#808080" stroke-opacity="1.000000" stroke-width="1.333333" stroke-linejoin="round" stroke-linecap="round"/>
	<path id="path298" d="M217.086 344.018C217.086 344.018 216.02 345.706 215.221 349.083L176.714 349.083C176.714 349.083 176.612 346.501 174.571 344.685" stroke="#1A2E35" stroke-opacity="1.000000" stroke-width="1.333333" stroke-linejoin="round" stroke-linecap="round"/>
	<path id="path302" d="M150.182 344.018C150.182 344.018 144.851 344.418 142.852 349.083L122.727 349.083C122.727 349.083 121.66 346.684 121.66 344.685" stroke="#1A2E35" stroke-opacity="1.000000" stroke-width="1.333333" stroke-linejoin="round" stroke-linecap="round"/>
	<path id="path306" d="M181.741 153.726C181.246 155.609 180.739 157.473 180.231 159.296C174.9 178.488 167.971 215.006 167.971 215.006C133.852 222.203 97.8667 215.006 97.8667 215.006C97.6709 207.044 98.6401 196.544 99.7202 185.514C94.1245 183.966 90.0898 178.801 89.8701 170.225C89.6035 159.829 91.4878 141.112 92.5356 132.374C93.458 124.684 92.8022 120.112 104.712 114.285C110.681 110.839 120.591 109.21 132.786 107.584C156.775 104.386 174.086 109.233 180.231 111.849C185.102 110.566 186.457 116.286 186.457 116.286C189.155 114.242 192.288 122.88 192.288 122.88C200.179 132.95 206.387 149.905 208.45 155.952C208.902 157.276 209.747 158.42 210.859 159.269C216.457 163.537 213.346 168.814 213.346 168.814L201.884 172.327C201.884 172.327 196.331 173.772 192.088 166.469C188.539 160.36 182.74 150.004 181.741 153.726Z" fill="#38BFF2" fill-opacity="1.000000" fill-rule="nonzero"/>
	<g opacity="0.300003">
		<g opacity="0.300003">
			<g opacity="0.300003">
				<path id="path324" d="M199.772 167.507C199.772 167.507 200.039 162.177 204.304 161.244C208.568 160.311 203.104 158.719 199.772 159.516C196.44 160.311 197.208 157.379 194.359 152.581C191.509 147.783 190.11 143.99 187.677 146.757C185.244 149.523 182.767 149.904 181.74 153.726C180.714 157.547 185.778 166.468 185.778 166.468L193.734 172.639L197.773 174.904L203.806 174.904L205.866 169.69L199.772 167.507Z" fill="#000000" fill-opacity="1.000000" fill-rule="nonzero"/>
			</g>
		</g>
	</g>
	<path id="path342" d="M180.231 159.296C174.9 178.488 167.971 215.006 167.971 215.006C133.852 222.203 97.8672 215.006 97.8672 215.006C97.6714 207.044 98.6406 196.544 99.7207 185.514C94.125 183.966 90.0903 178.801 89.8706 170.224C89.604 159.829 91.4883 141.111 92.5361 132.374C93.4585 124.684 92.8027 120.112 104.712 114.285C110.681 110.839 120.592 109.21 132.786 107.584C156.776 104.385 174.087 109.233 180.231 111.849C185.102 110.566 186.458 116.286 186.458 116.286C189.156 114.242 192.289 122.88 192.289 122.88C200.18 132.949 206.387 149.904 208.45 155.952C208.902 157.276 209.748 158.42 210.86 159.269C216.458 163.537 213.346 168.814 213.346 168.814L201.884 172.327C201.884 172.327 196.332 173.772 192.089 166.469C188.54 160.36 182.741 150.004 181.741 153.726C181.247 155.609 180.739 157.472 180.231 159.296Z" stroke="#1A2E35" stroke-opacity="1.000000" stroke-width="1.333333" stroke-linejoin="round"/>
	<g opacity="0.300003">
		<g opacity="0.300003">
			<g opacity="0.300003">
				<path id="path352" d="M97.8682 215.006C97.7266 209.246 98.1978 202.147 98.876 194.491C97.7139 210.722 131.523 215.801 132.59 207.004C133.656 198.202 99.7212 185.514 118.186 189.95C134.301 193.82 165.521 190.122 173.204 189.119C170.254 202.987 167.972 215.006 167.972 215.006C133.853 222.203 97.8682 215.006 97.8682 215.006Z" fill="#000000" fill-opacity="1.000000" fill-rule="nonzero"/>
			</g>
		</g>
	</g>
	<g opacity="0.300003">
		<g opacity="0.300003">
			<g opacity="0.300003">
				<path id="path368" d="M113.37 133.44C113.37 133.44 118.195 147.567 118.185 155.031C118.174 162.487 131.72 167.497 131.743 167.507C124.491 166.028 117.429 164.078 114.055 163.103C112.857 162.758 112.075 161.621 112.184 160.38C112.849 152.728 113.569 142.424 113.369 133.44L113.37 133.44Z" fill="#000000" fill-opacity="1.000000" fill-rule="nonzero"/>
			</g>
		</g>
	</g>
	<path id="path378" d="M186.209 129.883C186.209 129.883 186.371 140.045 182.653 149.385C182.308 150.251 183.292 151.041 184.05 150.498C185.878 149.189 188.465 146.52 190.804 141.145" stroke="#1A2E35" stroke-opacity="1.000000" stroke-width="1.000000" stroke-linejoin="round" stroke-linecap="round"/>
	<path id="path382" d="M95.7344 173.423C98.5469 164.095 103.416 161.758 107.188 161.524C107.795 161.486 107.997 160.693 107.464 160.404C105.274 159.217 101 158.281 95.7344 164.093" stroke="#1A2E35" stroke-opacity="1.000000" stroke-width="1.000000" stroke-linejoin="round" stroke-linecap="round"/>
	<path id="path386" d="M149.821 146.719C149.821 147.604 150.539 148.32 151.422 148.32C152.307 148.32 153.025 147.604 153.025 146.719C153.025 145.834 152.307 145.117 151.422 145.117C150.539 145.117 149.821 145.834 149.821 146.719Z" fill="#9A9A9A" fill-opacity="1.000000" fill-rule="nonzero"/>
	<path id="path390" d="M151.422 148.32C152.307 148.32 153.025 147.604 153.025 146.719C153.025 145.834 152.307 145.117 151.422 145.117C150.539 145.117 149.821 145.834 149.821 146.719C149.821 147.604 150.539 148.32 151.422 148.32Z" stroke="#1A2E35" stroke-opacity="1.000000" stroke-width="1.000000" stroke-linejoin="round"/>
	<path id="path394" d="M147.65 164.867C147.65 165.752 148.368 166.469 149.252 166.469C150.138 166.469 150.854 165.752 150.854 164.867C150.854 163.982 150.138 163.265 149.252 163.265C148.368 163.265 147.65 163.982 147.65 164.867Z" fill="#9A9A9A" fill-opacity="1.000000" fill-rule="nonzero"/>
	<path id="path398" d="M149.252 166.469C150.138 166.469 150.854 165.752 150.854 164.867C150.854 163.982 150.138 163.265 149.252 163.265C148.368 163.265 147.65 163.982 147.65 164.867C147.65 165.752 148.368 166.469 149.252 166.469Z" stroke="#1A2E35" stroke-opacity="1.000000" stroke-width="1.000000" stroke-linejoin="round"/>
	<path id="path402" d="M142.294 208.605C142.294 209.49 143.012 210.208 143.897 210.208C144.781 210.208 145.499 209.49 145.499 208.605C145.499 207.72 144.781 207.004 143.897 207.004C143.012 207.004 142.294 207.72 142.294 208.605Z" fill="#9A9A9A" fill-opacity="1.000000" fill-rule="nonzero"/>
	<path id="path406" d="M143.897 210.208C144.781 210.208 145.499 209.49 145.499 208.605C145.499 207.72 144.781 207.004 143.897 207.004C143.012 207.004 142.294 207.72 142.294 208.605C142.294 209.49 143.012 210.208 143.897 210.208Z" stroke="#1A2E35" stroke-opacity="1.000000" stroke-width="1.333333" stroke-linejoin="round"/>
	<path id="path410" d="M172.911 176.755C172.911 176.755 178.148 181.751 175.657 181.829C173.168 181.907 170.017 178.487 167.129 178.087C164.239 177.688 168.904 175.922 168.904 175.922L172.911 176.755Z" fill="#FFFFFF" fill-opacity="1.000000" fill-rule="nonzero"/>
	<path id="path414" d="M175.657 181.829C173.168 181.907 170.017 178.487 167.129 178.087C164.239 177.688 168.904 175.922 168.904 175.922L172.911 176.755C172.911 176.755 178.148 181.751 175.657 181.829Z" stroke="#1A2E35" stroke-opacity="1.000000" stroke-width="1.333333" stroke-linejoin="round"/>
	<path id="path418" d="M142.342 171.143C142.811 170.716 143.446 170.514 144.08 170.565C146.645 170.771 153.994 171.329 156.775 171.157C161.695 170.854 176.203 167.78 176.203 167.78C176.539 167.723 176.884 167.742 177.211 167.838L186.195 170.477C186.522 170.574 186.823 170.743 187.075 170.975L192.513 175.972C192.692 176.137 192.843 176.33 192.96 176.545L194.086 178.61C194.564 179.483 194.402 180.568 193.692 181.265L184.694 181.546C184.139 181.563 183.597 181.373 183.175 181.011L180.51 178.726C180.333 178.574 180.183 178.394 180.059 178.195C179.402 177.142 176.892 173.615 172.91 173.956C172.91 173.956 181.432 178.487 179.832 180.353C178.233 182.219 171.702 176.888 169.57 177.421C167.483 177.943 167.295 183.184 155.69 181.289C155.175 181.205 154.641 181.225 154.138 181.365L143.584 184.316C142.262 184.686 140.904 183.893 140.564 182.564C139.774 179.476 139.054 174.14 142.342 171.143Z" fill="#FFFFFF" fill-opacity="1.000000" fill-rule="nonzero"/>
	<path id="path422" d="M144.08 170.565C146.645 170.771 153.994 171.329 156.775 171.157C161.695 170.854 176.203 167.78 176.203 167.78C176.539 167.723 176.884 167.742 177.211 167.838L186.195 170.477C186.522 170.574 186.823 170.743 187.075 170.975L192.513 175.972C192.692 176.137 192.843 176.33 192.96 176.545L194.086 178.61C194.564 179.483 194.402 180.568 193.692 181.265L184.694 181.546C184.139 181.563 183.597 181.373 183.175 181.011L180.51 178.726C180.333 178.574 180.183 178.394 180.059 178.195C179.402 177.142 176.892 173.615 172.91 173.956C172.91 173.956 181.432 178.487 179.832 180.353C178.233 182.219 171.702 176.888 169.57 177.421C167.483 177.943 167.295 183.184 155.69 181.289C155.175 181.205 154.641 181.225 154.138 181.365L143.584 184.316C142.262 184.686 140.904 183.893 140.564 182.564C139.774 179.476 139.054 174.14 142.342 171.143C142.811 170.716 143.446 170.514 144.08 170.565Z" stroke="#1A2E35" stroke-opacity="1.000000" stroke-width="1.333333" stroke-linejoin="round"/>
	<path id="path426" d="M174.948 169.691L177.212 170.073C178.315 170.259 179.345 170.747 180.187 171.484L182.539 173.543C182.954 173.906 183.316 174.323 183.618 174.783L185.162 177.145C185.332 177.405 185.523 177.649 185.732 177.879C186.649 178.89 189.173 181.892 186.447 181.492M174.86 170.332L174.837 170.348C174.469 170.286 174.229 169.948 174.291 169.58C174.353 169.212 174.69 168.971 175.059 169.033L175.075 169.057L174.86 170.332ZM186.373 182.135L186.35 182.151C185.981 182.097 185.733 181.764 185.787 181.395C185.841 181.026 186.174 180.778 186.543 180.832L186.561 180.855L186.373 182.135Z" fill="#FFFFFF" fill-opacity="1.000000" fill-rule="nonzero"/>
	<path id="path426" d="M174.948 169.691L177.212 170.073C178.315 170.259 179.345 170.747 180.187 171.484L182.539 173.543C182.954 173.906 183.316 174.323 183.618 174.783L185.162 177.145C185.332 177.405 185.523 177.649 185.732 177.879C186.649 178.89 189.173 181.892 186.447 181.492" stroke="#1A2E35" stroke-opacity="1.000000" stroke-width="1.333333" stroke-linejoin="round" stroke-linecap="round"/>
	<path id="path430" d="M181.312 170.491L183.653 171.123C184.381 171.32 185.049 171.697 185.594 172.221L187.418 173.973C187.59 174.139 187.75 174.318 187.895 174.511L190.888 178.487C190.888 178.487 192.492 181.303 190.888 181.353M181.163 171.12L181.139 171.134C180.778 171.037 180.572 170.677 180.669 170.317C180.767 169.956 181.126 169.75 181.486 169.847L181.5 169.871L181.163 171.12ZM190.929 181.999L190.909 182.019C190.536 182.031 190.234 181.747 190.222 181.374C190.21 181.001 190.495 180.698 190.868 180.687L190.888 180.706L190.929 181.999Z" fill="#FFFFFF" fill-opacity="1.000000" fill-rule="nonzero"/>
	<path id="path430" d="M181.312 170.491L183.653 171.123C184.381 171.32 185.049 171.697 185.594 172.221L187.418 173.973C187.59 174.139 187.75 174.318 187.895 174.511L190.888 178.487C190.888 178.487 192.492 181.303 190.888 181.353" stroke="#1A2E35" stroke-opacity="1.000000" stroke-width="1.333333" stroke-linejoin="round" stroke-linecap="round"/>
	<path id="path434" d="M113.3 131.178C113.694 140.648 112.905 152.078 112.182 160.38C112.075 161.621 112.856 162.757 114.054 163.103C118.708 164.447 130.381 167.654 139.896 168.909" stroke="#1A2E35" stroke-opacity="1.000000" stroke-width="1.333333" stroke-linejoin="round" stroke-linecap="round"/>
	<path id="path438" d="M112.769 124.567C112.909 125.651 113.022 126.791 113.113 127.976" stroke="#1A2E35" stroke-opacity="1.000000" stroke-width="1.000000" stroke-linejoin="round" stroke-linecap="round"/>
	<path id="path442" d="M109.19 114.581C110.414 115.633 111.313 117.582 111.96 120.146" stroke="#1A2E35" stroke-opacity="1.000000" stroke-width="1.000000" stroke-linejoin="round" stroke-linecap="round"/>
	<path id="path446" d="M162.576 108.25C162.576 108.25 161.91 106.118 158.312 104.918C154.713 103.719 142.262 101.797 135.854 104.918C129.446 108.039 141.719 124.977 141.719 124.977L147.449 132.839L152.513 136.638L154.78 129.884L157.712 126.842C157.712 126.842 164.042 121.645 163.509 116.513C162.976 111.383 162.576 108.25 162.576 108.25Z" fill="#FFFFFF" fill-opacity="1.000000" fill-rule="nonzero"/>
	<path id="path450" d="M136.405 107.546C144.869 134.117 152.333 135.305 152.333 135.305C154.82 125.532 156.953 127.665 160.329 121.557C163.039 116.658 162.122 110.446 161.654 108.183C161.541 107.632 161.192 107.155 160.69 106.9C152.292 102.624 142.016 104.197 137.778 105.133C136.7 105.371 136.071 106.495 136.405 107.546ZM131.12 107.808C132.12 104.302 136.694 103.319 136.694 103.319C158.552 99.5868 163.173 107.532 163.173 107.532C167.615 119.919 163.173 129.883 163.173 129.883C163.173 129.883 156.953 127.308 155.886 129.883C154.82 132.457 152.866 137.971 152.866 137.971C152.866 137.971 148.601 135.838 145.224 131.396C141.849 126.953 133.907 131.396 133.907 131.396C128.811 122.51 131.12 107.808 131.12 107.808Z" fill="#38BFF2" fill-opacity="1.000000" fill-rule="nonzero"/>
	<g opacity="0.399994">
		<g opacity="0.399994">
			<g opacity="0.399994">
				<path id="path468" d="M136.405 107.546C144.869 134.117 152.333 135.305 152.333 135.305C154.82 125.532 156.953 127.665 160.329 121.557C163.039 116.658 162.122 110.446 161.654 108.183C161.541 107.633 161.192 107.155 160.69 106.9C152.292 102.625 142.016 104.197 137.778 105.133C136.7 105.371 136.071 106.495 136.405 107.546ZM131.12 107.809C132.12 104.302 136.694 103.319 136.694 103.319C158.552 99.587 163.173 107.532 163.173 107.532C167.615 119.919 163.173 129.884 163.173 129.884C163.173 129.884 156.953 127.309 155.886 129.884C154.82 132.457 152.866 137.971 152.866 137.971C152.866 137.971 148.601 135.838 145.224 131.397C141.849 126.954 133.907 131.397 133.907 131.397C128.811 122.511 131.12 107.809 131.12 107.809Z" fill="#FFFFFF" fill-opacity="1.000000" fill-rule="nonzero"/>
			</g>
		</g>
	</g>
	<path id="path486" d="M152.332 135.305C154.819 125.532 156.952 127.665 160.329 121.557C163.038 116.658 162.121 110.446 161.654 108.183C161.54 107.632 161.191 107.155 160.69 106.9C152.292 102.624 142.015 104.197 137.777 105.133C136.699 105.371 136.07 106.495 136.405 107.546C144.869 134.117 152.332 135.305 152.332 135.305ZM136.694 103.319C158.551 99.5868 163.172 107.532 163.172 107.532C167.614 119.919 163.172 129.883 163.172 129.883C163.172 129.883 156.952 127.308 155.886 129.883C154.819 132.457 152.865 137.971 152.865 137.971C152.865 137.971 148.6 135.838 145.224 131.396C141.848 126.953 133.907 131.396 133.907 131.396C128.81 122.51 131.12 107.808 131.12 107.808C132.12 104.302 136.694 103.319 136.694 103.319Z" stroke="#1A2E35" stroke-opacity="1.000000" stroke-width="1.333333" stroke-linejoin="round"/>
	<path id="path490" d="M166.804 67.2049C166.804 67.2049 185.64 70.9772 175.267 83.2291C163.761 96.817 166.804 67.2049 166.804 67.2049Z" fill="#1A2E35" fill-opacity="1.000000" fill-rule="nonzero"/>
	<path id="path494" d="M175.267 83.2291C163.761 96.817 166.804 67.2049 166.804 67.2049C166.804 67.2049 185.64 70.9772 175.267 83.2291Z" stroke="#1A2E35" stroke-opacity="1.000000" stroke-width="1.333333" stroke-linejoin="round"/>
	<path id="path498" d="M174.232 97.0989C174.232 97.0989 178.71 78.9732 170.181 70.2654C161.651 61.5587 152.41 59.7813 145.479 64.0461C138.549 68.311 135.707 78.9732 136.773 84.4824C137.839 89.9904 137.319 109.715 146.82 117.89C156.32 126.065 162.167 124.05 168.449 112.914C172.578 105.598 174.552 103.496 174.232 97.0989Z" fill="#FFFFFF" fill-opacity="1.000000" fill-rule="nonzero"/>
	<path id="path502" d="M170.181 70.2654C161.651 61.5587 152.41 59.7813 145.479 64.0461C138.549 68.311 135.707 78.9732 136.773 84.4824C137.839 89.9904 137.319 109.715 146.82 117.89C156.32 126.065 162.167 124.05 168.449 112.914C172.578 105.598 174.552 103.496 174.232 97.0989C174.232 97.0989 178.71 78.9732 170.181 70.2654Z" stroke="#1A2E35" stroke-opacity="1.000000" stroke-width="1.333333" stroke-linejoin="round"/>
	<path id="path506" d="M141.219 93.5453C141.219 93.5453 148.379 86.4369 150.573 78.0852C152.766 69.7335 154.009 68.3112 162.184 72.399C170.358 76.4859 183.112 70.9842 179.776 60.6707C176.27 49.8304 165.561 63.8693 155.253 60.3145C144.946 56.7608 137.636 63.1581 137.62 72.576C137.62 72.576 131.391 78.6183 137.636 94.2565L141.219 93.5453Z" fill="#1A2E35" fill-opacity="1.000000" fill-rule="nonzero"/>
	<path id="path510" d="M150.573 78.0852C152.766 69.7335 154.009 68.3112 162.184 72.399C170.358 76.4859 183.112 70.9842 179.776 60.6707C176.27 49.8304 165.561 63.8693 155.253 60.3145C144.946 56.7608 137.636 63.1581 137.62 72.576C137.62 72.576 131.391 78.6183 137.636 94.2565L141.219 93.5453C141.219 93.5453 148.379 86.4369 150.573 78.0852Z" stroke="#1A2E35" stroke-opacity="1.000000" stroke-width="1.333333" stroke-linejoin="round"/>
	<path id="path514" d="M143.465 92.3531C143.465 92.3531 141.654 82.417 136.614 83.3382C131.575 84.2605 135.178 98.921 141.106 97.3217M144.098 92.2174L144.121 92.2335C144.188 92.6008 143.952 92.942 143.585 93.009C143.218 93.0759 142.876 92.84 142.81 92.4727L142.826 92.4494L144.098 92.2174ZM140.918 96.7025L140.932 96.678C141.292 96.5807 141.652 96.7876 141.75 97.148C141.847 97.5085 141.64 97.8681 141.279 97.9653L141.255 97.9512L140.918 96.7025Z" fill="#FFFFFF" fill-opacity="1.000000" fill-rule="nonzero"/>
	<path id="path514" d="M143.465 92.3531C143.465 92.3531 141.654 82.417 136.614 83.3382C131.575 84.2605 135.178 98.921 141.106 97.3217" stroke="#1A2E35" stroke-opacity="1.000000" stroke-width="1.333333" stroke-linejoin="round" stroke-linecap="round"/>
	<path id="path518" d="M167.426 95.7219C167.426 95.7219 169.401 104.943 168.759 106.528C168.116 108.114 162.011 106.9 162.011 106.9M166.798 95.8769L166.774 95.8616C166.696 95.4965 166.921 95.1483 167.287 95.0701C167.651 94.9919 168 95.2173 168.078 95.5823L168.062 95.6061L166.798 95.8769ZM161.904 107.538L161.881 107.554C161.515 107.481 161.284 107.136 161.357 106.77C161.43 106.404 161.774 106.174 162.141 106.246L162.156 106.27L161.904 107.538Z" fill="#FFFFFF" fill-opacity="1.000000" fill-rule="nonzero"/>
	<path id="path518" d="M167.426 95.7219C167.426 95.7219 169.401 104.943 168.759 106.528C168.116 108.114 162.011 106.9 162.011 106.9" stroke="#1A2E35" stroke-opacity="1.000000" stroke-width="1.333333" stroke-linejoin="round" stroke-linecap="round"/>
	<path id="path522" d="M161.162 110.916C161.162 110.916 156.381 112.804 152.174 106.528M160.906 110.321L160.917 110.295C161.265 110.158 161.645 110.323 161.782 110.671C161.919 111.018 161.754 111.398 161.407 111.536L161.381 111.524L160.906 110.321ZM151.648 106.905L151.62 106.899C151.412 106.589 151.493 106.182 151.803 105.974C152.113 105.766 152.52 105.847 152.728 106.157L152.722 106.185L151.648 106.905Z" fill="#FFFFFF" fill-opacity="1.000000" fill-rule="nonzero"/>
	<path id="path522" d="M161.162 110.916C161.162 110.916 156.381 112.804 152.174 106.528" stroke="#1A2E35" stroke-opacity="1.000000" stroke-width="1.333333" stroke-linejoin="round" stroke-linecap="round"/>
	<path id="path526" d="M170.697 96.4909C170.519 97.3503 170.743 98.1233 171.198 98.2182C171.652 98.312 172.167 97.6926 172.346 96.8332C172.523 95.9738 172.3 95.2008 171.844 95.107C171.389 95.0121 170.876 95.6315 170.697 96.4909Z" fill="#1A2E35" fill-opacity="1.000000" fill-rule="nonzero"/>
	<path id="path530" d="M159.004 95.5512C158.826 96.4106 159.05 97.1836 159.505 97.2774C159.959 97.3723 160.475 96.7518 160.653 95.8934C160.831 95.0341 160.607 94.261 160.151 94.1662C159.696 94.0723 159.183 94.6918 159.004 95.5512Z" fill="#1A2E35" fill-opacity="1.000000" fill-rule="nonzero"/>
	<path id="path534" d="M173.662 101.051C176.897 101.374 179.717 99.6783 179.959 97.2634C180.2 94.8473 177.657 93.7811 174.421 93.458C171.185 93.1349 168.481 93.6755 168.239 96.0916C167.998 98.5065 170.426 100.727 173.662 101.051Z" stroke="#1A2E35" stroke-opacity="1.000000" stroke-width="1.333333" stroke-linejoin="round"/>
	<path id="path538" d="M158.573 99.5419C161.809 99.866 164.628 98.1697 164.869 95.7547C165.111 93.3386 162.568 92.2735 159.333 91.9504C156.097 91.6274 153.393 92.168 153.15 94.5829C152.909 96.999 155.337 99.2189 158.573 99.5419Z" stroke="#1A2E35" stroke-opacity="1.000000" stroke-width="1.333333" stroke-linejoin="round"/>
	<path id="path542" d="M168.239 96.0917L164.87 95.7548M168.283 95.4462L168.305 95.4283C168.677 95.4655 168.939 95.7866 168.902 96.158C168.865 96.5295 168.544 96.7922 168.172 96.755L168.154 96.7332L168.283 95.4462ZM164.825 96.4002L164.803 96.4181C164.432 96.381 164.169 96.0599 164.206 95.6884C164.243 95.317 164.564 95.0543 164.936 95.0914L164.954 95.1133L164.825 96.4002Z" fill="#FFFFFF" fill-opacity="1.000000" fill-rule="nonzero"/>
	<path id="path542" d="M168.239 96.0917L164.87 95.7548" stroke="#1A2E35" stroke-opacity="1.000000" stroke-width="1.333333" stroke-linejoin="round" stroke-linecap="round"/>
	<path id="path546" d="M153.565 93.3735L141.17 86.0645M153.876 92.8063L153.904 92.7992C154.226 92.9888 154.329 93.3905 154.14 93.7121C153.95 94.0337 153.548 94.1374 153.227 93.9478L153.22 93.9203L153.876 92.8063ZM140.859 86.6317L140.832 86.6388C140.51 86.4492 140.407 86.0475 140.596 85.7259C140.786 85.4043 141.188 85.3007 141.509 85.4903L141.516 85.5177L140.859 86.6317Z" fill="#FFFFFF" fill-opacity="1.000000" fill-rule="nonzero"/>
	<path id="path546" d="M153.565 93.3735L141.17 86.0645" stroke="#1A2E35" stroke-opacity="1.000000" stroke-width="1.333333" stroke-linejoin="round" stroke-linecap="round"/>
	<path id="path550" d="M139.044 104.742L138.46 106.162M138.439 104.515L138.428 104.489C138.57 104.143 138.953 103.984 139.298 104.126C139.644 104.268 139.803 104.651 139.661 104.996L139.635 105.007L138.439 104.515ZM139.066 106.39L139.077 106.416C138.935 106.761 138.552 106.921 138.207 106.779C137.861 106.637 137.702 106.254 137.844 105.909L137.87 105.898L139.066 106.39Z" fill="#FFFFFF" fill-opacity="1.000000" fill-rule="nonzero"/>
	<path id="path550" d="M139.044 104.742L138.46 106.162" stroke="#1A2E35" stroke-opacity="1.000000" stroke-width="1.333333" stroke-linejoin="round" stroke-linecap="round"/>
	<path id="path554" d="M175.228 92.1943C175.228 92.1943 173.34 89.7922 171.023 90.949M175.724 91.7791L175.752 91.7825C175.982 92.076 175.933 92.4879 175.639 92.7186C175.346 92.9492 174.934 92.8998 174.703 92.6062L174.707 92.5781L175.724 91.7791ZM171.33 91.5186L171.321 91.5455C170.987 91.7122 170.594 91.5808 170.427 91.2468C170.26 90.9128 170.392 90.5193 170.726 90.3525L170.752 90.3615L171.33 91.5186Z" fill="#FFFFFF" fill-opacity="1.000000" fill-rule="nonzero"/>
	<path id="path554" d="M175.228 92.1943C175.228 92.1943 173.34 89.7922 171.023 90.949" stroke="#1A2E35" stroke-opacity="1.000000" stroke-width="1.333333" stroke-linejoin="round" stroke-linecap="round"/>
	<path id="path558" d="M155.909 91.1208C155.909 91.1208 159.226 87.9594 162.417 90.1772M156.37 91.5751L156.369 91.6034C156.099 91.861 155.684 91.851 155.427 91.5807C155.169 91.3105 155.179 90.8958 155.449 90.6382L155.478 90.6389L156.37 91.5751ZM162.77 89.6348L162.798 89.6298C163.104 89.8428 163.178 90.251 162.965 90.5576C162.752 90.8642 162.344 90.9377 162.037 90.7246L162.032 90.6968L162.77 89.6348Z" fill="#FFFFFF" fill-opacity="1.000000" fill-rule="nonzero"/>
	<path id="path558" d="M155.909 91.1208C155.909 91.1208 159.226 87.9594 162.417 90.1772" stroke="#1A2E35" stroke-opacity="1.000000" stroke-width="1.333333" stroke-linejoin="round" stroke-linecap="round"/>
	<path id="path562" d="M171.04 61.8669C165.998 63.4705 157.508 65.4281 150.572 63.3351C139.97 60.1364 143.568 72.0738 141.169 75.3684" stroke="#808080" stroke-opacity="1.000000" stroke-width="1.333333" stroke-linejoin="round" stroke-linecap="round"/>
	<path id="path566" d="M175.406 60.2703C175.406 60.2703 174.56 60.6434 173.125 61.1595" stroke="#808080" stroke-opacity="1.000000" stroke-width="1.333333" stroke-linejoin="round" stroke-linecap="round"/>
	<path id="path570" d="M162.668 67.8098C162.104 67.6371 161.512 67.4356 160.896 67.2053" stroke="#808080" stroke-opacity="1.000000" stroke-width="1.333333" stroke-linejoin="round" stroke-linecap="round"/>
	<path id="path574" d="M174.232 66.401C174.232 66.401 171.979 69.8939 164.698 68.3394" stroke="#808080" stroke-opacity="1.000000" stroke-width="1.333333" stroke-linejoin="round" stroke-linecap="round"/>
	<path id="path578" d="M147.156 73.2383C146.708 76.2717 145.56 80.671 142.637 84.6597" stroke="#808080" stroke-opacity="1.000000" stroke-width="1.333333" stroke-linejoin="round" stroke-linecap="round"/>
	<path id="path582" d="M147.435 69.4664C147.435 69.4664 147.461 70.1829 147.368 71.3738" stroke="#808080" stroke-opacity="1.000000" stroke-width="1.333333" stroke-linejoin="round" stroke-linecap="round"/>
	<g opacity="0.300003">
		<g opacity="0.300003">
			<g opacity="0.300003">
				<path id="path592" d="M137.95 183.843C138.808 184.611 138.309 186.027 137.158 186.033C129.958 186.066 110.533 186.114 103 185.685C93.6709 185.152 100.791 175 108.293 178.876C115.206 182.449 129.75 176.501 137.95 183.843Z" fill="#000000" fill-opacity="1.000000" fill-rule="nonzero"/>
			</g>
		</g>
	</g>
	<path id="path602" d="M219.143 173.848C219.143 173.848 214.785 162.237 203.847 164.08C192.797 165.942 201.269 175.08 206.527 175.898C206.527 175.898 207.326 172.71 219.143 173.848Z" fill="#FFFFFF" fill-opacity="1.000000" fill-rule="nonzero"/>
	<path id="path606" d="M203.847 164.08C192.797 165.942 201.269 175.08 206.527 175.898C206.527 175.898 207.326 172.71 219.143 173.848C219.143 173.848 214.785 162.237 203.847 164.08Z" stroke="#1A2E35" stroke-opacity="1.000000" stroke-width="1.333333" stroke-linejoin="round"/>
	<path id="path610" d="M228.406 180.436C229.85 181.879 233.312 182.003 230.983 178.876C228.406 175.416 225.502 174.256 223.52 173.371C218.331 171.055 216.308 171.519 211.613 170.49C206.918 169.462 206.041 171.371 204.416 172.261C200.548 174.382 199.618 174.75 198.641 176.882C197.664 179.015 196.598 181.79 199.618 181.79C202.372 181.79 202.55 177.237 205.216 177.415C207.881 177.592 209.214 181.79 211.08 181.79L211.791 181.79C213.391 181.79 213.477 180.459 212.498 178.368C211.52 176.276 210.458 174.393 210.458 174.393C210.458 174.393 212.776 175.449 214.057 178.17C215.336 180.891 215.572 182.037 217.924 182.037C220.276 182.037 220.114 180.29 217.774 176.431C217.774 176.431 219.882 177.589 221.034 179.767C222.187 181.947 222.787 181.79 224.298 181.79C226.273 181.79 226.141 178.525 222.63 176.393C222.63 176.393 223.409 175.438 228.406 180.436Z" fill="#FFFFFF" fill-opacity="1.000000" fill-rule="nonzero"/>
	<path id="path614" d="M230.983 178.876C228.406 175.416 225.502 174.256 223.52 173.371C218.331 171.055 216.308 171.519 211.613 170.49C206.918 169.462 206.041 171.371 204.416 172.261C200.548 174.382 199.618 174.75 198.641 176.882C197.664 179.015 196.598 181.79 199.618 181.79C202.372 181.79 202.55 177.237 205.216 177.415C207.881 177.592 209.214 181.79 211.08 181.79L211.791 181.79C213.391 181.79 213.477 180.459 212.498 178.368C211.52 176.276 210.458 174.393 210.458 174.393C210.458 174.393 212.776 175.449 214.057 178.17C215.336 180.891 215.572 182.037 217.924 182.037C220.276 182.037 220.114 180.29 217.774 176.431C217.774 176.431 219.882 177.589 221.034 179.767C222.187 181.947 222.787 181.79 224.298 181.79C226.273 181.79 226.141 178.525 222.63 176.393C222.63 176.393 223.409 175.438 228.406 180.436C229.85 181.879 233.312 182.003 230.983 178.876Z" stroke="#1A2E35" stroke-opacity="1.000000" stroke-width="1.333333" stroke-linejoin="round"/>
	<path id="path618" d="M214.698 172.639C214.698 172.639 216.078 172.573 216.944 174.905M214.741 173.118L214.722 173.139C214.443 173.152 214.212 172.943 214.199 172.663C214.186 172.383 214.395 172.153 214.674 172.14L214.695 172.159L214.741 173.118ZM217.387 174.719L217.413 174.731C217.51 174.993 217.38 175.276 217.118 175.374C216.855 175.471 216.573 175.341 216.475 175.079L216.487 175.053L217.387 174.719Z" fill="#FFFFFF" fill-opacity="1.000000" fill-rule="nonzero"/>
	<path id="path618" d="M214.698 172.639C214.698 172.639 216.078 172.573 216.944 174.905" stroke="#1A2E35" stroke-opacity="1.000000" stroke-width="1.000000" stroke-linejoin="round" stroke-linecap="round"/>
	<path id="path630" d="M39.4995 72.2537C32.6982 77.5997 26.1421 83.4064 19.8726 89.6757" stroke="#1A2E35" stroke-opacity="1.000000" stroke-width="1.000000" stroke-linejoin="round" stroke-linecap="round"/>
	<path id="path634" d="M46.939 66.6593C45.6348 67.5965 44.3394 68.5497 43.0527 69.5189" stroke="#1A2E35" stroke-opacity="1.000000" stroke-width="1.000000" stroke-linejoin="round" stroke-linecap="round"/>
	<path id="path638" d="M54.3687 61.5478C53.0317 62.4274 51.7021 63.3231 50.3809 64.2347" stroke="#1A2E35" stroke-opacity="1.000000" stroke-width="1.000000" stroke-linejoin="round" stroke-linecap="round"/>
	<path id="path642" d="M108.915 35.7446C91.478 41.1791 74.5884 48.8548 58.6982 58.7739" stroke="#1A2E35" stroke-opacity="1.000000" stroke-width="1.000000" stroke-linejoin="round" stroke-linecap="round"/>
	<path id="path646" d="M120.563 32.4673C118.404 33.01 116.251 33.5869 114.105 34.1978" stroke="#1A2E35" stroke-opacity="1.000000" stroke-width="1.000000" stroke-linejoin="round" stroke-linecap="round"/>
	<path id="path650" d="M132.54 29.8101C130.196 30.2611 127.859 30.7516 125.53 31.2794" stroke="#1A2E35" stroke-opacity="1.000000" stroke-width="1.000000" stroke-linejoin="round" stroke-linecap="round"/>
	<path id="path654" d="M143.216 28.0281C141.194 28.3149 139.177 28.6284 137.162 28.9717" stroke="#1A2E35" stroke-opacity="1.000000" stroke-width="1.000000" stroke-linejoin="round" stroke-linecap="round"/>
	<path id="path658" d="M207.522 28.4575C187.758 25.3889 167.653 25.0456 147.813 27.4265" stroke="#1A2E35" stroke-opacity="1.000000" stroke-width="1.000000" stroke-linejoin="round" stroke-linecap="round"/>
	<path id="path662" d="M216.32 30.0081C214.505 29.6498 212.687 29.315 210.865 29.0037" stroke="#1A2E35" stroke-opacity="1.000000" stroke-width="1.000000" stroke-linejoin="round" stroke-linecap="round"/>
	<path id="path666" d="M224.854 31.8713C223.039 31.4362 221.219 31.0258 219.395 30.6377" stroke="#1A2E35" stroke-opacity="1.000000" stroke-width="1.000000" stroke-linejoin="round" stroke-linecap="round"/>
	<path id="path670" d="M235.351 34.6629C233.499 34.1202 231.641 33.6031 229.777 33.1105" stroke="#1A2E35" stroke-opacity="1.000000" stroke-width="1.000000" stroke-linejoin="round" stroke-linecap="round"/>
	<path id="path674" d="M298.801 65.1645C280.848 52.5778 261.421 43.0149 241.228 36.4747" stroke="#1A2E35" stroke-opacity="1.000000" stroke-width="1.000000" stroke-linejoin="round" stroke-linecap="round"/>
	<path id="path678" d="M307.374 71.4936C305.706 70.1982 304.022 68.9293 302.327 67.6893" stroke="#1A2E35" stroke-opacity="1.000000" stroke-width="1.000000" stroke-linejoin="round" stroke-linecap="round"/>
	<path id="path682" d="M315.969 78.5281C314.142 76.9533 312.293 75.4137 310.426 73.9082" stroke="#1A2E35" stroke-opacity="1.000000" stroke-width="1.000000" stroke-linejoin="round" stroke-linecap="round"/>
	<path id="path686" d="M327.973 89.6757C325.472 87.1743 322.925 84.7465 320.335 82.3923" stroke="#1A2E35" stroke-opacity="1.000000" stroke-width="1.000000" stroke-linejoin="round" stroke-linecap="round"/>
	<path id="path690" d="M244.593 50.7268C244.593 65.3756 256.469 77.2512 271.118 77.2512C285.768 77.2512 297.643 65.3756 297.643 50.7268C297.643 36.077 285.768 24.2025 271.118 24.2025C256.469 24.2025 244.593 36.077 244.593 50.7268Z" fill="#38BFF2" fill-opacity="1.000000" fill-rule="nonzero"/>
	<g opacity="0.300003">
		<g opacity="0.300003">
			<g opacity="0.300003">
				<path id="path708" d="M245 50.093C245 64.7418 256.876 76.6173 271.525 76.6173C286.175 76.6173 298.05 64.7418 298.05 50.093C298.05 35.4431 286.175 23.5687 271.525 23.5687C256.876 23.5687 245 35.4431 245 50.093Z" fill="#FFFFFF" fill-opacity="1.000000" fill-rule="nonzero"/>
			</g>
		</g>
	</g>
	<path id="path726" d="M271.118 77.2512C285.768 77.2512 297.644 65.3757 297.644 50.7269C297.644 36.0771 285.768 24.2026 271.118 24.2026C256.469 24.2026 244.594 36.0771 244.594 50.7269C244.594 65.3757 256.469 77.2512 271.118 77.2512Z" stroke="#1A2E35" stroke-opacity="1.000000" stroke-width="1.000000" stroke-linejoin="round"/>
	<path id="path746" d="M322.516 125.397L337.819 125.397C344.86 125.397 350.569 119.688 350.569 112.647L350.569 97.3438C350.569 90.3025 344.86 84.5939 337.819 84.5939L322.516 84.5939C315.474 84.5939 309.766 90.3025 309.766 97.3438L309.766 112.647C309.766 119.688 315.474 125.397 322.516 125.397Z" fill="#38BFF2" fill-opacity="1.000000" fill-rule="nonzero"/>
	<path id="path750" d="M337.819 125.397C344.86 125.397 350.569 119.688 350.569 112.647L350.569 97.3438C350.569 90.3025 344.86 84.5939 337.819 84.5939L322.516 84.5939C315.474 84.5939 309.766 90.3025 309.766 97.3438L309.766 112.647C309.766 119.688 315.474 125.397 322.516 125.397L337.819 125.397Z" stroke="#1A2E35" stroke-opacity="1.000000" stroke-width="1.000000" stroke-linejoin="round"/>
	<path id="path754" d="M344.953 105.982L344.953 104.01L336.795 100.491L336.795 102.624L342.42 104.996L336.795 107.368L336.795 109.501L344.953 105.982Z" fill="#FFFFFF" fill-opacity="1.000000" fill-rule="nonzero"/>
	<path id="path758" d="M344.953 104.01L336.795 100.491L336.795 102.624L342.42 104.996L336.795 107.368L336.795 109.501L344.953 105.982L344.953 104.01Z" stroke="#1A2E35" stroke-opacity="1.000000" stroke-width="1.000000" stroke-linejoin="round"/>
	<path id="path762" d="M327.755 95.6663L325.223 95.6663L332.58 114.325L335.111 114.325L327.755 95.6663Z" fill="#FFFFFF" fill-opacity="1.000000" fill-rule="nonzero"/>
	<path id="path766" d="M325.223 95.6663L332.58 114.325L335.111 114.325L327.755 95.6663L325.223 95.6663Z" stroke="#1A2E35" stroke-opacity="1.000000" stroke-width="1.000000" stroke-linejoin="round"/>
	<path id="path770" d="M323.538 107.368L317.913 104.996L323.538 102.623L323.538 100.491L315.381 104.01L315.381 105.982L323.538 109.501L323.538 107.368Z" fill="#FFFFFF" fill-opacity="1.000000" fill-rule="nonzero"/>
	<path id="path774" d="M317.913 104.996L323.538 102.623L323.538 100.491L315.381 104.01L315.381 105.982L323.538 109.501L323.538 107.368L317.913 104.996Z" stroke="#1A2E35" stroke-opacity="1.000000" stroke-width="1.000000" stroke-linejoin="round"/>
	<path id="path778" d="M60.2939 44.7253C60.2939 57.2288 70.4307 67.3654 82.9331 67.3654C95.4375 67.3654 105.574 57.2288 105.574 44.7253C105.574 32.2207 95.4375 22.0852 82.9331 22.0852C70.4307 22.0852 60.2939 32.2207 60.2939 44.7253Z" fill="#38BFF2" fill-opacity="1.000000" fill-rule="nonzero"/>
	<g opacity="0.199997">
		<g opacity="0.199997">
			<g opacity="0.199997">
				<path id="path796" d="M60.1465 45.1644C60.1465 57.6679 70.2832 67.8044 82.7856 67.8044C95.29 67.8044 105.427 57.6679 105.427 45.1644C105.427 32.6598 95.29 22.5243 82.7856 22.5243C70.2832 22.5243 60.1465 32.6598 60.1465 45.1644Z" fill="#000000" fill-opacity="1.000000" fill-rule="nonzero"/>
			</g>
		</g>
	</g>
	<path id="path814" d="M82.9331 67.3654C95.4375 67.3654 105.574 57.2289 105.574 44.7253C105.574 32.2207 95.4375 22.0853 82.9331 22.0853C70.4307 22.0853 60.2939 32.2207 60.2939 44.7253C60.2939 57.2289 70.4307 67.3654 82.9331 67.3654Z" stroke="#1A2E35" stroke-opacity="1.000000" stroke-width="1.000000" stroke-linejoin="round"/>
	<path id="path842" d="M169.717 49.9576L190.174 49.9576C198.182 49.9576 204.674 43.4654 204.674 35.457L204.674 15.0005C204.674 6.99219 198.182 0.5 190.174 0.5L169.717 0.5C161.708 0.5 155.216 6.99219 155.216 15.0005L155.216 35.457C155.216 43.4654 161.708 49.9576 169.717 49.9576Z" fill="#38BFF2" fill-opacity="1.000000" fill-rule="nonzero"/>
	<path id="path846" d="M190.174 49.9576C198.182 49.9576 204.674 43.4654 204.674 35.457L204.674 15.0005C204.674 6.99219 198.182 0.5 190.174 0.5L169.717 0.5C161.708 0.5 155.216 6.99219 155.216 15.0005L155.216 35.457C155.216 43.4654 161.708 49.9576 169.717 49.9576L190.174 49.9576Z" stroke="#1A2E35" stroke-opacity="1.000000" stroke-width="1.000000" stroke-linejoin="round"/>
	<path id="path874" d="M0.499512 92.6078C0.499512 105.079 10.6079 115.189 23.0806 115.189C35.5522 115.189 45.6611 105.079 45.6611 92.6078C45.6611 80.1363 35.5522 70.0264 23.0806 70.0264C10.6079 70.0264 0.499512 80.1363 0.499512 92.6078Z" fill="#38BFF2" fill-opacity="1.000000" fill-rule="nonzero"/>
	<g opacity="0.300003">
		<g opacity="0.300003">
			<g opacity="0.300003">
				<path id="path892" d="M1.09277 93.064C1.09277 105.536 11.2012 115.645 23.6738 115.645C36.1455 115.645 46.2544 105.536 46.2544 93.064C46.2544 80.5925 36.1455 70.4826 23.6738 70.4826C11.2012 70.4826 1.09277 80.5925 1.09277 93.064Z" fill="#FFFFFF" fill-opacity="1.000000" fill-rule="nonzero"/>
			</g>
		</g>
	</g>
	<path id="path910" d="M23.0811 115.189C35.5527 115.189 45.6616 105.079 45.6616 92.6077C45.6616 80.1361 35.5527 70.0262 23.0811 70.0262C10.6084 70.0262 0.5 80.1361 0.5 92.6077C0.5 105.079 10.6084 115.189 23.0811 115.189Z" stroke="#1A2E35" stroke-opacity="1.000000" stroke-width="1.000000" stroke-linejoin="round"/>
	<path id="path930" d="M290.03 352.637L293.981 352.637L295.047 195.631L290.03 195.631L290.03 352.637Z" fill="#868686" fill-opacity="1.000000" fill-rule="nonzero"/>
	<path id="path934" d="M293.981 352.637L295.047 195.631L290.03 195.631L290.03 352.637L293.981 352.637Z" stroke="#1A2E35" stroke-opacity="1.000000" stroke-width="1.333333" stroke-linejoin="round"/>
	<path id="path938" d="M286.079 352.637L290.03 352.637L290.03 195.631L285.012 195.631L286.079 352.637Z" fill="#9A9A9A" fill-opacity="1.000000" fill-rule="nonzero"/>
	<path id="path942" d="M290.03 352.637L290.03 195.631L285.012 195.631L286.079 352.637L290.03 352.637Z" stroke="#1A2E35" stroke-opacity="1.000000" stroke-width="1.333333" stroke-linejoin="round"/>
	<path id="path944" d="M64.2495 195.631L335.289 195.631L335.289 186.018L64.2495 186.018L64.2495 195.631Z" fill="#1A2E35" fill-opacity="1.000000" fill-rule="nonzero"/>
	<path id="path944" d="M335.289 195.631L335.289 186.018L64.2495 186.018L64.2495 195.631L335.289 195.631Z" stroke="#1A2E35" stroke-opacity="1.000000" stroke-width="1.333333" stroke-linejoin="round"/>
	<path id="path946" d="M7.60449 195.631L68.2925 195.631L68.2925 186.018L7.60449 186.018L7.60449 195.631Z" fill="#868686" fill-opacity="1.000000" fill-rule="nonzero"/>
	<path id="path946" d="M68.2925 195.631L68.2925 186.018L7.60449 186.018L7.60449 195.631L68.2925 195.631Z" stroke="#1A2E35" stroke-opacity="1.000000" stroke-width="1.333333" stroke-linejoin="round"/>
	<path id="path948" d="M51.9492 211.479L321.407 211.479L321.407 195.63L51.9492 195.63L51.9492 211.479Z" fill="#38BFF2" fill-opacity="1.000000" fill-rule="nonzero"/>
	<path id="path948" d="M321.407 211.479L321.407 195.63L51.9492 195.63L51.9492 211.479L321.407 211.479Z" stroke="#1A2E35" stroke-opacity="1.000000" stroke-width="1.333333"/>
	<path id="path950" d="M51.9492 211.479L20.5728 211.479L20.5728 195.63L51.9492 195.63L51.9492 211.479Z" fill="#38BFF2" fill-opacity="1.000000" fill-rule="nonzero"/>
	<g opacity="0.300003">
		<g opacity="0.300003">
			<path id="path968" d="M51.9487 211.479L20.5723 211.479L20.5723 195.631L51.9487 195.631L51.9487 211.479Z" fill="#000000" fill-opacity="1.000000" fill-rule="nonzero"/>
		</g>
	</g>
	<path id="path974" d="M20.5728 211.479L20.5728 195.63L51.9492 195.63L51.9492 211.479L20.5728 211.479Z" stroke="#1A2E35" stroke-opacity="1.000000" stroke-width="1.333333"/>
	<path id="path978" d="M51.9482 352.637L55.8984 352.637L56.9648 195.631L51.9482 195.631L51.9482 352.637Z" fill="#868686" fill-opacity="1.000000" fill-rule="nonzero"/>
	<path id="path982" d="M55.8984 352.637L56.9648 195.631L51.9482 195.631L51.9482 352.637L55.8984 352.637Z" stroke="#1A2E35" stroke-opacity="1.000000" stroke-width="1.333333" stroke-linejoin="round"/>
	<path id="path986" d="M47.9976 352.637L51.9487 352.637L51.9487 195.631L46.9312 195.631L47.9976 352.637Z" fill="#9A9A9A" fill-opacity="1.000000" fill-rule="nonzero"/>
	<path id="path990" d="M51.9487 352.637L51.9487 195.631L46.9312 195.631L47.9976 352.637L51.9487 352.637Z" stroke="#1A2E35" stroke-opacity="1.000000" stroke-width="1.333333" stroke-linejoin="round"/>
	<path id="path994" d="M321.407 352.637L325.358 352.637L326.424 195.631L321.407 195.631L321.407 352.637Z" fill="#868686" fill-opacity="1.000000" fill-rule="nonzero"/>
	<path id="path998" d="M325.358 352.637L326.424 195.631L321.407 195.631L321.407 352.637L325.358 352.637Z" stroke="#1A2E35" stroke-opacity="1.000000" stroke-width="1.333333" stroke-linejoin="round"/>
	<path id="path1002" d="M317.455 352.637L321.406 352.637L321.406 195.631L316.388 195.631L317.455 352.637Z" fill="#9A9A9A" fill-opacity="1.000000" fill-rule="nonzero"/>
	<path id="path1006" d="M321.406 352.637L321.406 195.631L316.388 195.631L317.455 352.637L321.406 352.637Z" stroke="#1A2E35" stroke-opacity="1.000000" stroke-width="1.333333" stroke-linejoin="round"/>
	<path id="path1010" d="M20.5723 352.637L24.5225 352.637L25.5889 195.631L20.5723 195.631L20.5723 352.637Z" fill="#868686" fill-opacity="1.000000" fill-rule="nonzero"/>
	<path id="path1014" d="M24.5225 352.637L25.5889 195.631L20.5723 195.631L20.5723 352.637L24.5225 352.637Z" stroke="#1A2E35" stroke-opacity="1.000000" stroke-width="1.333333" stroke-linejoin="round"/>
	<path id="path1018" d="M16.6211 352.637L20.5723 352.637L20.5723 195.631L15.5547 195.631L16.6211 352.637Z" fill="#9A9A9A" fill-opacity="1.000000" fill-rule="nonzero"/>
	<path id="path1022" d="M20.5723 352.637L20.5723 195.631L15.5547 195.631L16.6211 352.637L20.5723 352.637Z" stroke="#1A2E35" stroke-opacity="1.000000" stroke-width="1.333333" stroke-linejoin="round"/>
	<path id="path1034" d="M160.138 184.952L191.903 184.952C192.553 184.952 193.08 184.425 193.08 183.775L193.08 181.153L158.96 182.219L158.96 183.775C158.96 184.425 159.488 184.952 160.138 184.952Z" fill="#868686" fill-opacity="1.000000" fill-rule="nonzero"/>
	<path id="path1038" d="M191.903 184.952C192.553 184.952 193.08 184.425 193.08 183.775L193.08 181.153L158.96 182.219L158.96 183.775C158.96 184.425 159.488 184.952 160.138 184.952L191.903 184.952Z" stroke="#1A2E35" stroke-opacity="1.000000" stroke-width="1.333333" stroke-linejoin="round"/>
	<path id="path1042" d="M196.623 184.952L260.482 184.952C261.506 184.952 262.504 184.194 262.815 183.18L276.523 138.676C276.899 137.455 276.14 136.372 274.91 136.372L211.048 136.372C210.026 136.372 209.028 137.13 208.716 138.144L195.008 182.648C194.632 183.867 195.391 184.952 196.623 184.952Z" fill="#9A9A9A" fill-opacity="1.000000" fill-rule="nonzero"/>
	<path id="path1046" d="M260.482 184.952C261.506 184.952 262.504 184.194 262.815 183.18L276.523 138.676C276.899 137.455 276.14 136.372 274.91 136.372L211.048 136.372C210.026 136.372 209.028 137.13 208.716 138.144L195.008 182.648C194.632 183.867 195.391 184.952 196.623 184.952L260.482 184.952Z" stroke="#1A2E35" stroke-opacity="1.000000" stroke-width="1.333333" stroke-linejoin="round"/>
	<path id="path1050" d="M192.14 182.648L205.847 138.144C206.16 137.13 207.158 136.372 208.18 136.372L211.049 136.372C210.027 136.372 209.029 137.13 208.716 138.144L195.009 182.648C194.633 183.868 195.392 184.952 196.624 184.952L193.754 184.952C192.523 184.952 191.764 183.868 192.14 182.648Z" fill="#868686" fill-opacity="1.000000" fill-rule="nonzero"/>
	<path id="path1054" d="M205.847 138.144C206.16 137.13 207.158 136.372 208.18 136.372L211.049 136.372C210.027 136.372 209.029 137.13 208.716 138.144L195.009 182.648C194.633 183.868 195.392 184.952 196.624 184.952L193.754 184.952C192.523 184.952 191.764 183.868 192.14 182.648L205.847 138.144Z" stroke="#1A2E35" stroke-opacity="1.000000" stroke-width="1.333333" stroke-linejoin="round"/>
	<path id="path1058" d="M231.816 160.661C231.548 162.843 233.1 164.612 235.281 164.612C237.462 164.612 239.449 162.843 239.717 160.661C239.984 158.48 238.433 156.711 236.251 156.711C234.07 156.711 232.083 158.48 231.816 160.661Z" fill="#FFFFFF" fill-opacity="1.000000" fill-rule="nonzero"/>
	<path id="path1062" d="M235.281 164.612C237.462 164.612 239.449 162.843 239.717 160.661C239.984 158.48 238.433 156.711 236.251 156.711C234.07 156.711 232.083 158.48 231.816 160.661C231.548 162.843 233.1 164.612 235.281 164.612Z" stroke="#1A2E35" stroke-opacity="1.000000" stroke-width="1.333333" stroke-linejoin="round"/>
	<path id="path738" d="M86.8213 52.5355L87.2339 52.5355C88.1362 52.5355 88.5996 52.1236 88.5996 50.7069L88.5996 46.8404C88.5996 45.9124 88.9346 44.9334 90.1719 44.5726L90.1719 44.5215C88.9346 44.1607 88.5996 43.1802 88.5996 42.253L88.5996 38.3872C88.5996 36.9698 88.1362 36.5579 87.2339 36.5579L86.8213 36.5579L86.8213 34.2375L88.2646 34.2375C89.8618 34.2375 91.1255 35.1397 91.1255 37.0992L91.1255 41.8404C91.1255 43.0264 91.4595 43.3873 92.7485 43.3873L92.7485 45.7061C91.4595 45.7061 91.1255 46.0669 91.1255 47.2522L91.1255 51.995C91.1255 53.9529 89.8618 54.855 88.2646 54.855L86.8213 54.855L86.8213 52.5355Z" fill="#FFFFFF" fill-opacity="1.000000" fill-rule="nonzero"/>
	<path id="path742" d="M86.9805 52.8068C87.939 52.8068 88.4312 52.3793 88.4312 50.9086L88.4312 46.8949C88.4312 45.9315 88.7866 44.9153 90.1006 44.5407L90.1006 44.4878C88.7866 44.1132 88.4312 43.0953 88.4312 42.1328L88.4312 38.1199C88.4312 36.6484 87.939 36.2209 86.9805 36.2209L86.5425 36.2209L86.5425 33.8122L88.0752 33.8122C89.7715 33.8122 91.1138 34.7486 91.1138 36.7827L91.1138 41.7045C91.1138 42.9357 91.4688 43.3103 92.8374 43.3103L92.8374 45.7174C91.4688 45.7174 91.1138 46.092 91.1138 47.3224L91.1138 52.2457C91.1138 54.2783 89.7715 55.2147 88.0752 55.2147L86.5425 55.2147L86.5425 52.8068L86.9805 52.8068Z" stroke="#1A2E35" stroke-opacity="1.000000" stroke-width="1.000000" stroke-linejoin="round"/>
	<path id="path738" d="M79.9697 52.5355L79.5571 52.5355C78.6548 52.5355 78.1914 52.1236 78.1914 50.7069L78.1914 46.8404C78.1914 45.9124 77.8564 44.9334 76.6191 44.5726L76.6191 44.5215C77.8564 44.1607 78.1914 43.1802 78.1914 42.253L78.1914 38.3872C78.1914 36.9698 78.6548 36.5579 79.5571 36.5579L79.9697 36.5579L79.9697 34.2375L78.5264 34.2375C76.9292 34.2375 75.6655 35.1397 75.6655 37.0992L75.6655 41.8404C75.6655 43.0264 75.3315 43.3873 74.0425 43.3873L74.0425 45.7061C75.3315 45.7061 75.6655 46.0669 75.6655 47.2522L75.6655 51.995C75.6655 53.9529 76.9292 54.855 78.5264 54.855L79.9697 54.855L79.9697 52.5355Z" fill="#FFFFFF" fill-opacity="1.000000" fill-rule="nonzero"/>
	<path id="path742" d="M79.8101 52.8068C78.8516 52.8068 78.3594 52.3793 78.3594 50.9086L78.3594 46.8949C78.3594 45.9315 78.0039 44.9153 76.6899 44.5407L76.6899 44.4878C78.0039 44.1132 78.3594 43.0953 78.3594 42.1328L78.3594 38.1199C78.3594 36.6484 78.8516 36.2209 79.8101 36.2209L80.248 36.2209L80.248 33.8122L78.7153 33.8122C77.019 33.8122 75.6768 34.7486 75.6768 36.7827L75.6768 41.7045C75.6768 42.9357 75.3218 43.3103 73.9531 43.3103L73.9531 45.7174C75.3218 45.7174 75.6768 46.092 75.6768 47.3224L75.6768 52.2457C75.6768 54.2783 77.019 55.2147 78.7153 55.2147L80.248 55.2147L80.248 52.8068L79.8101 52.8068Z" stroke="#1A2E35" stroke-opacity="1.000000" stroke-width="1.000000" stroke-linejoin="round"/>
</svg>
