<svg width="391.895996" height="408.820648" viewBox="0 0 391.896 408.821" fill="none" xmlns="http://www.w3.org/2000/svg" xmlns:xlink="http://www.w3.org/1999/xlink">
	<desc>
			Created with Pixso.
	</desc>
	<defs/>
	<path id="Vector" d="M330.243 212.775L61.7012 212.775L61.7012 325.899L330.243 325.899L330.243 212.775Z" fill="#38BFF2" fill-opacity="1.000000" fill-rule="nonzero"/>
	<path id="Vector" d="M330.243 212.775L330.243 325.899L61.7012 325.899L61.7012 212.775L330.243 212.775Z" stroke="#263238" stroke-opacity="1.000000" stroke-width="1.000000" stroke-linejoin="round"/>
	<path id="Vector" d="M92.5752 219.622L67.3125 219.622L67.3125 233.606L92.5752 233.606L92.5752 219.622Z" fill="#FFFFFF" fill-opacity="1.000000" fill-rule="nonzero"/>
	<path id="Vector" d="M92.5752 219.622L92.5752 233.606L67.3125 233.606L67.3125 219.622L92.5752 219.622Z" stroke="#263238" stroke-opacity="1.000000" stroke-width="1.000000"/>
	<path id="Vector" d="M324.026 287.81L284.234 287.81L284.234 301.795L324.026 301.795L324.026 287.81Z" fill="#FFFFFF" fill-opacity="1.000000" fill-rule="nonzero"/>
	<path id="Vector" d="M324.026 287.81L324.026 301.795L284.234 301.795L284.234 287.81L324.026 287.81Z" stroke="#263238" stroke-opacity="1.000000" stroke-width="1.000000"/>
	<path id="Vector" d="M324.038 237.088L299.474 237.088L299.474 251.073L324.038 251.073L324.038 237.088Z" fill="#FFFFFF" fill-opacity="1.000000" fill-rule="nonzero"/>
	<path id="Vector" d="M324.038 237.088L324.038 251.073L299.474 251.073L299.474 237.088L324.038 237.088Z" stroke="#263238" stroke-opacity="1.000000" stroke-width="1.000000"/>
	<path id="Vector" d="M92.5752 270.565L67.3125 270.565L67.3125 284.55L92.5752 284.55L92.5752 270.565Z" fill="#FFFFFF" fill-opacity="1.000000" fill-rule="nonzero"/>
	<path id="Vector" d="M92.5752 270.565L92.5752 284.55L67.3125 284.55L67.3125 270.565L92.5752 270.565Z" stroke="#263238" stroke-opacity="1.000000" stroke-width="1.000000"/>
	<path id="Vector" d="M87.7671 253.716L67.3125 253.716L67.3125 267.701L87.7671 267.701L87.7671 253.716Z" fill="#FFFFFF" fill-opacity="1.000000" fill-rule="nonzero"/>
	<path id="Vector" d="M87.7671 253.716L87.7671 267.701L67.3125 267.701L67.3125 253.716L87.7671 253.716Z" stroke="#263238" stroke-opacity="1.000000" stroke-width="1.000000"/>
	<path id="Vector" d="M81.2944 236.669L67.3125 236.669L67.3125 250.654L81.2944 250.654L81.2944 236.669Z" fill="#FFFFFF" fill-opacity="1.000000" fill-rule="nonzero"/>
	<path id="Vector" d="M81.2944 236.669L81.2944 250.654L67.3125 250.654L67.3125 236.669L81.2944 236.669Z" stroke="#263238" stroke-opacity="1.000000" stroke-width="1.000000"/>
	<path id="Vector" d="M99.1528 236.669L85.1709 236.669L85.1709 250.654L99.1528 250.654L99.1528 236.669Z" fill="#FFFFFF" fill-opacity="1.000000" fill-rule="nonzero"/>
	<path id="Vector" d="M99.1528 236.669L99.1528 250.654L85.1709 250.654L85.1709 236.669L99.1528 236.669Z" stroke="#263238" stroke-opacity="1.000000" stroke-width="1.000000"/>
	<path id="Vector" d="M117 236.669L103.018 236.669L103.018 250.654L117 250.654L117 236.669Z" fill="#FFFFFF" fill-opacity="1.000000" fill-rule="nonzero"/>
	<path id="Vector" d="M117 236.669L117 250.654L103.018 250.654L103.018 236.669L117 236.669Z" stroke="#263238" stroke-opacity="1.000000" stroke-width="1.000000"/>
	<path id="Vector" d="M134.847 236.669L120.865 236.669L120.865 250.654L134.847 250.654L134.847 236.669Z" fill="#FFFFFF" fill-opacity="1.000000" fill-rule="nonzero"/>
	<path id="Vector" d="M134.847 236.669L134.847 250.654L120.865 250.654L120.865 236.669L134.847 236.669Z" stroke="#263238" stroke-opacity="1.000000" stroke-width="1.000000"/>
	<path id="Vector" d="M152.706 236.669L138.724 236.669L138.724 250.654L152.706 250.654L152.706 236.669Z" fill="#FFFFFF" fill-opacity="1.000000" fill-rule="nonzero"/>
	<path id="Vector" d="M152.706 236.669L152.706 250.654L138.724 250.654L138.724 236.669L152.706 236.669Z" stroke="#263238" stroke-opacity="1.000000" stroke-width="1.000000"/>
	<path id="Vector" d="M170.552 236.669L156.57 236.669L156.57 250.654L170.552 250.654L170.552 236.669Z" fill="#FFFFFF" fill-opacity="1.000000" fill-rule="nonzero"/>
	<path id="Vector" d="M170.552 236.669L170.552 250.654L156.57 250.654L156.57 236.669L170.552 236.669Z" stroke="#263238" stroke-opacity="1.000000" stroke-width="1.000000"/>
	<path id="Vector" d="M188.399 236.669L174.417 236.669L174.417 250.654L188.399 250.654L188.399 236.669Z" fill="#FFFFFF" fill-opacity="1.000000" fill-rule="nonzero"/>
	<path id="Vector" d="M188.399 236.669L188.399 250.654L174.417 250.654L174.417 236.669L188.399 236.669Z" stroke="#263238" stroke-opacity="1.000000" stroke-width="1.000000"/>
	<path id="Vector" d="M206.258 236.669L192.276 236.669L192.276 250.654L206.258 250.654L206.258 236.669Z" fill="#FFFFFF" fill-opacity="1.000000" fill-rule="nonzero"/>
	<path id="Vector" d="M206.258 236.669L206.258 250.654L192.276 250.654L192.276 236.669L206.258 236.669Z" stroke="#263238" stroke-opacity="1.000000" stroke-width="1.000000"/>
	<path id="Vector" d="M224.105 236.669L210.123 236.669L210.123 250.654L224.105 250.654L224.105 236.669Z" fill="#FFFFFF" fill-opacity="1.000000" fill-rule="nonzero"/>
	<path id="Vector" d="M224.105 236.669L224.105 250.654L210.123 250.654L210.123 236.669L224.105 236.669Z" stroke="#263238" stroke-opacity="1.000000" stroke-width="1.000000"/>
	<path id="Vector" d="M241.963 236.669L227.981 236.669L227.981 250.654L241.963 250.654L241.963 236.669Z" fill="#FFFFFF" fill-opacity="1.000000" fill-rule="nonzero"/>
	<path id="Vector" d="M241.963 236.669L241.963 250.654L227.981 250.654L227.981 236.669L241.963 236.669Z" stroke="#263238" stroke-opacity="1.000000" stroke-width="1.000000"/>
	<path id="Vector" d="M259.81 236.669L245.828 236.669L245.828 250.654L259.81 250.654L259.81 236.669Z" fill="#FFFFFF" fill-opacity="1.000000" fill-rule="nonzero"/>
	<path id="Vector" d="M259.81 236.669L259.81 250.654L245.828 250.654L245.828 236.669L259.81 236.669Z" stroke="#263238" stroke-opacity="1.000000" stroke-width="1.000000"/>
	<path id="Vector" d="M277.657 236.669L263.675 236.669L263.675 250.654L277.657 250.654L277.657 236.669Z" fill="#FFFFFF" fill-opacity="1.000000" fill-rule="nonzero"/>
	<path id="Vector" d="M277.657 236.669L277.657 250.654L263.675 250.654L263.675 236.669L277.657 236.669Z" stroke="#263238" stroke-opacity="1.000000" stroke-width="1.000000"/>
	<path id="Vector" d="M295.515 236.669L281.533 236.669L281.533 250.654L295.515 250.654L295.515 236.669Z" fill="#FFFFFF" fill-opacity="1.000000" fill-rule="nonzero"/>
	<path id="Vector" d="M295.515 236.669L295.515 250.654L281.533 250.654L281.533 236.669L295.515 236.669Z" stroke="#263238" stroke-opacity="1.000000" stroke-width="1.000000"/>
	<path id="Vector" d="M81.2944 305.055L67.3125 305.055L67.3125 319.04L81.2944 319.04L81.2944 305.055Z" fill="#FFFFFF" fill-opacity="1.000000" fill-rule="nonzero"/>
	<path id="Vector" d="M81.2944 305.055L81.2944 319.04L67.3125 319.04L67.3125 305.055L81.2944 305.055Z" stroke="#263238" stroke-opacity="1.000000" stroke-width="1.000000"/>
	<path id="Vector" d="M99.1528 305.055L85.1709 305.055L85.1709 319.04L99.1528 319.04L99.1528 305.055Z" fill="#FFFFFF" fill-opacity="1.000000" fill-rule="nonzero"/>
	<path id="Vector" d="M99.1528 305.055L99.1528 319.04L85.1709 319.04L85.1709 305.055L99.1528 305.055Z" stroke="#263238" stroke-opacity="1.000000" stroke-width="1.000000"/>
	<path id="Vector" d="M117 305.055L103.018 305.055L103.018 319.04L117 319.04L117 305.055Z" fill="#FFFFFF" fill-opacity="1.000000" fill-rule="nonzero"/>
	<path id="Vector" d="M117 305.055L117 319.04L103.018 319.04L103.018 305.055L117 305.055Z" stroke="#263238" stroke-opacity="1.000000" stroke-width="1.000000"/>
	<path id="Vector" d="M137.932 305.055L120.865 305.055L120.865 319.04L137.932 319.04L137.932 305.055Z" fill="#FFFFFF" fill-opacity="1.000000" fill-rule="nonzero"/>
	<path id="Vector" d="M137.932 305.055L137.932 319.04L120.865 319.04L120.865 305.055L137.932 305.055Z" stroke="#263238" stroke-opacity="1.000000" stroke-width="1.000000"/>
	<path id="Vector" d="M227.189 305.055L141.797 305.055L141.797 319.04L227.189 319.04L227.189 305.055Z" fill="#FFFFFF" fill-opacity="1.000000" fill-rule="nonzero"/>
	<path id="Vector" d="M227.189 305.055L227.189 319.04L141.797 319.04L141.797 305.055L227.189 305.055Z" stroke="#263238" stroke-opacity="1.000000" stroke-width="1.000000"/>
	<path id="Vector" d="M287.727 305.055L273.745 305.055L273.745 319.04L287.727 319.04L287.727 305.055Z" fill="#FFFFFF" fill-opacity="1.000000" fill-rule="nonzero"/>
	<path id="Vector" d="M287.727 305.055L287.727 319.04L273.745 319.04L273.745 305.055L287.727 305.055Z" stroke="#263238" stroke-opacity="1.000000" stroke-width="1.000000"/>
	<path id="Vector" d="M305.609 305.055L291.627 305.055L291.627 319.04L305.609 319.04L305.609 305.055Z" fill="#FFFFFF" fill-opacity="1.000000" fill-rule="nonzero"/>
	<path id="Vector" d="M305.609 305.055L305.609 319.04L291.627 319.04L291.627 305.055L305.609 305.055Z" stroke="#263238" stroke-opacity="1.000000" stroke-width="1.000000"/>
	<path id="Vector" d="M252.394 305.055L230.682 305.055L230.682 319.04L252.394 319.04L252.394 305.055Z" fill="#FFFFFF" fill-opacity="1.000000" fill-rule="nonzero"/>
	<path id="Vector" d="M252.394 305.055L252.394 319.04L230.682 319.04L230.682 305.055L252.394 305.055Z" stroke="#263238" stroke-opacity="1.000000" stroke-width="1.000000"/>
	<path id="Vector" d="M324.026 305.055L310.044 305.055L310.044 319.04L324.026 319.04L324.026 305.055Z" fill="#FFFFFF" fill-opacity="1.000000" fill-rule="nonzero"/>
	<path id="Vector" d="M324.026 305.055L324.026 319.04L310.044 319.04L310.044 305.055L324.026 305.055Z" stroke="#263238" stroke-opacity="1.000000" stroke-width="1.000000"/>
	<path id="Vector" d="M105.719 253.716L91.7368 253.716L91.7368 267.701L105.719 267.701L105.719 253.716Z" fill="#FFFFFF" fill-opacity="1.000000" fill-rule="nonzero"/>
	<path id="Vector" d="M105.719 253.716L105.719 267.701L91.7368 267.701L91.7368 253.716L105.719 253.716Z" stroke="#263238" stroke-opacity="1.000000" stroke-width="1.000000"/>
	<path id="Vector" d="M123.566 253.716L109.584 253.716L109.584 267.701L123.566 267.701L123.566 253.716Z" fill="#FFFFFF" fill-opacity="1.000000" fill-rule="nonzero"/>
	<path id="Vector" d="M123.566 253.716L123.566 267.701L109.584 267.701L109.584 253.716L123.566 253.716Z" stroke="#263238" stroke-opacity="1.000000" stroke-width="1.000000"/>
	<path id="Vector" d="M141.424 253.716L127.442 253.716L127.442 267.701L141.424 267.701L141.424 253.716Z" fill="#FFFFFF" fill-opacity="1.000000" fill-rule="nonzero"/>
	<path id="Vector" d="M141.424 253.716L141.424 267.701L127.442 267.701L127.442 253.716L141.424 253.716Z" stroke="#263238" stroke-opacity="1.000000" stroke-width="1.000000"/>
	<path id="Vector" d="M159.271 253.716L145.289 253.716L145.289 267.701L159.271 267.701L159.271 253.716Z" fill="#FFFFFF" fill-opacity="1.000000" fill-rule="nonzero"/>
	<path id="Vector" d="M159.271 253.716L159.271 267.701L145.289 267.701L145.289 253.716L159.271 253.716Z" stroke="#263238" stroke-opacity="1.000000" stroke-width="1.000000"/>
	<path id="Vector" d="M177.13 253.716L163.148 253.716L163.148 267.701L177.13 267.701L177.13 253.716Z" fill="#FFFFFF" fill-opacity="1.000000" fill-rule="nonzero"/>
	<path id="Vector" d="M177.13 253.716L177.13 267.701L163.148 267.701L163.148 253.716L177.13 253.716Z" stroke="#263238" stroke-opacity="1.000000" stroke-width="1.000000"/>
	<path id="Vector" d="M194.977 253.716L180.995 253.716L180.995 267.701L194.977 267.701L194.977 253.716Z" fill="#FFFFFF" fill-opacity="1.000000" fill-rule="nonzero"/>
	<path id="Vector" d="M194.977 253.716L194.977 267.701L180.995 267.701L180.995 253.716L194.977 253.716Z" stroke="#263238" stroke-opacity="1.000000" stroke-width="1.000000"/>
	<path id="Vector" d="M212.824 253.716L198.842 253.716L198.842 267.701L212.824 267.701L212.824 253.716Z" fill="#FFFFFF" fill-opacity="1.000000" fill-rule="nonzero"/>
	<path id="Vector" d="M212.824 253.716L212.824 267.701L198.842 267.701L198.842 253.716L212.824 253.716Z" stroke="#263238" stroke-opacity="1.000000" stroke-width="1.000000"/>
	<path id="Vector" d="M230.682 253.716L216.7 253.716L216.7 267.701L230.682 267.701L230.682 253.716Z" fill="#FFFFFF" fill-opacity="1.000000" fill-rule="nonzero"/>
	<path id="Vector" d="M230.682 253.716L230.682 267.701L216.7 267.701L216.7 253.716L230.682 253.716Z" stroke="#263238" stroke-opacity="1.000000" stroke-width="1.000000"/>
	<path id="Vector" d="M248.529 253.716L234.547 253.716L234.547 267.701L248.529 267.701L248.529 253.716Z" fill="#FFFFFF" fill-opacity="1.000000" fill-rule="nonzero"/>
	<path id="Vector" d="M248.529 253.716L248.529 267.701L234.547 267.701L234.547 253.716L248.529 253.716Z" stroke="#263238" stroke-opacity="1.000000" stroke-width="1.000000"/>
	<path id="Vector" d="M266.376 253.716L252.395 253.716L252.395 267.701L266.376 267.701L266.376 253.716Z" fill="#FFFFFF" fill-opacity="1.000000" fill-rule="nonzero"/>
	<path id="Vector" d="M266.376 253.716L266.376 267.701L252.395 267.701L252.395 253.716L266.376 253.716Z" stroke="#263238" stroke-opacity="1.000000" stroke-width="1.000000"/>
	<path id="Vector" d="M284.235 253.716L270.253 253.716L270.253 267.701L284.235 267.701L284.235 253.716Z" fill="#FFFFFF" fill-opacity="1.000000" fill-rule="nonzero"/>
	<path id="Vector" d="M284.235 253.716L284.235 267.701L270.253 267.701L270.253 253.716L284.235 253.716Z" stroke="#263238" stroke-opacity="1.000000" stroke-width="1.000000"/>
	<path id="Vector" d="M302.082 253.716L288.1 253.716L288.1 267.701L302.082 267.701L302.082 253.716Z" fill="#FFFFFF" fill-opacity="1.000000" fill-rule="nonzero"/>
	<path id="Vector" d="M302.082 253.716L302.082 267.701L288.1 267.701L288.1 253.716L302.082 253.716Z" stroke="#263238" stroke-opacity="1.000000" stroke-width="1.000000"/>
	<path id="Vector" d="M324.026 253.716L324.026 284.76L310.044 284.76L310.044 267.701L305.946 267.701L305.946 253.716L324.026 253.716Z" fill="#FFFFFF" fill-opacity="1.000000" fill-rule="nonzero"/>
	<path id="Vector" d="M324.026 284.76L310.044 284.76L310.044 267.701L305.946 267.701L305.946 253.716L324.026 253.716L324.026 284.76Z" stroke="#263238" stroke-opacity="1.000000" stroke-width="1.000000"/>
	<path id="Vector" d="M109.817 270.763L95.835 270.763L95.835 284.748L109.817 284.748L109.817 270.763Z" fill="#FFFFFF" fill-opacity="1.000000" fill-rule="nonzero"/>
	<path id="Vector" d="M109.817 270.763L109.817 284.748L95.835 284.748L95.835 270.763L109.817 270.763Z" stroke="#263238" stroke-opacity="1.000000" stroke-width="1.000000"/>
	<path id="Vector" d="M127.664 270.763L113.682 270.763L113.682 284.748L127.664 284.748L127.664 270.763Z" fill="#FFFFFF" fill-opacity="1.000000" fill-rule="nonzero"/>
	<path id="Vector" d="M127.664 270.763L127.664 284.748L113.682 284.748L113.682 270.763L127.664 270.763Z" stroke="#263238" stroke-opacity="1.000000" stroke-width="1.000000"/>
	<path id="Vector" d="M145.511 270.763L131.529 270.763L131.529 284.748L145.511 284.748L145.511 270.763Z" fill="#FFFFFF" fill-opacity="1.000000" fill-rule="nonzero"/>
	<path id="Vector" d="M145.511 270.763L145.511 284.748L131.529 284.748L131.529 270.763L145.511 270.763Z" stroke="#263238" stroke-opacity="1.000000" stroke-width="1.000000"/>
	<path id="Vector" d="M163.37 270.763L149.388 270.763L149.388 284.748L163.37 284.748L163.37 270.763Z" fill="#FFFFFF" fill-opacity="1.000000" fill-rule="nonzero"/>
	<path id="Vector" d="M163.37 270.763L163.37 284.748L149.388 284.748L149.388 270.763L163.37 270.763Z" stroke="#263238" stroke-opacity="1.000000" stroke-width="1.000000"/>
	<path id="Vector" d="M181.216 270.763L167.234 270.763L167.234 284.748L181.216 284.748L181.216 270.763Z" fill="#FFFFFF" fill-opacity="1.000000" fill-rule="nonzero"/>
	<path id="Vector" d="M181.216 270.763L181.216 284.748L167.234 284.748L167.234 270.763L181.216 270.763Z" stroke="#263238" stroke-opacity="1.000000" stroke-width="1.000000"/>
	<path id="Vector" d="M199.075 270.763L185.093 270.763L185.093 284.748L199.075 284.748L199.075 270.763Z" fill="#FFFFFF" fill-opacity="1.000000" fill-rule="nonzero"/>
	<path id="Vector" d="M199.075 270.763L199.075 284.748L185.093 284.748L185.093 270.763L199.075 270.763Z" stroke="#263238" stroke-opacity="1.000000" stroke-width="1.000000"/>
	<path id="Vector" d="M216.921 270.763L202.939 270.763L202.939 284.748L216.921 284.748L216.921 270.763Z" fill="#FFFFFF" fill-opacity="1.000000" fill-rule="nonzero"/>
	<path id="Vector" d="M216.921 270.763L216.921 284.748L202.939 284.748L202.939 270.763L216.921 270.763Z" stroke="#263238" stroke-opacity="1.000000" stroke-width="1.000000"/>
	<path id="Vector" d="M234.769 270.763L220.787 270.763L220.787 284.748L234.769 284.748L234.769 270.763Z" fill="#FFFFFF" fill-opacity="1.000000" fill-rule="nonzero"/>
	<path id="Vector" d="M234.769 270.763L234.769 284.748L220.787 284.748L220.787 270.763L234.769 270.763Z" stroke="#263238" stroke-opacity="1.000000" stroke-width="1.000000"/>
	<path id="Vector" d="M252.627 270.763L238.646 270.763L238.646 284.748L252.627 284.748L252.627 270.763Z" fill="#FFFFFF" fill-opacity="1.000000" fill-rule="nonzero"/>
	<path id="Vector" d="M252.627 270.763L252.627 284.748L238.646 284.748L238.646 270.763L252.627 270.763Z" stroke="#263238" stroke-opacity="1.000000" stroke-width="1.000000"/>
	<path id="Vector" d="M270.474 270.763L256.492 270.763L256.492 284.748L270.474 284.748L270.474 270.763Z" fill="#FFFFFF" fill-opacity="1.000000" fill-rule="nonzero"/>
	<path id="Vector" d="M270.474 270.763L270.474 284.748L256.492 284.748L256.492 270.763L270.474 270.763Z" stroke="#263238" stroke-opacity="1.000000" stroke-width="1.000000"/>
	<path id="Vector" d="M288.321 270.763L274.339 270.763L274.339 284.748L288.321 284.748L288.321 270.763Z" fill="#FFFFFF" fill-opacity="1.000000" fill-rule="nonzero"/>
	<path id="Vector" d="M288.321 270.763L288.321 284.748L274.339 284.748L274.339 270.763L288.321 270.763Z" stroke="#263238" stroke-opacity="1.000000" stroke-width="1.000000"/>
	<path id="Vector" d="M306.179 270.763L292.197 270.763L292.197 284.748L306.179 284.748L306.179 270.763Z" fill="#FFFFFF" fill-opacity="1.000000" fill-rule="nonzero"/>
	<path id="Vector" d="M306.179 270.763L306.179 284.748L292.197 284.748L292.197 270.763L306.179 270.763Z" stroke="#263238" stroke-opacity="1.000000" stroke-width="1.000000"/>
	<path id="Vector" d="M102.227 287.81L88.2446 287.81L88.2446 301.795L102.227 301.795L102.227 287.81Z" fill="#FFFFFF" fill-opacity="1.000000" fill-rule="nonzero"/>
	<path id="Vector" d="M102.227 287.81L102.227 301.795L88.2446 301.795L88.2446 287.81L102.227 287.81Z" stroke="#263238" stroke-opacity="1.000000" stroke-width="1.000000"/>
	<path id="Vector" d="M120.073 287.81L106.091 287.81L106.091 301.795L120.073 301.795L120.073 287.81Z" fill="#FFFFFF" fill-opacity="1.000000" fill-rule="nonzero"/>
	<path id="Vector" d="M120.073 287.81L120.073 301.795L106.091 301.795L106.091 287.81L120.073 287.81Z" stroke="#263238" stroke-opacity="1.000000" stroke-width="1.000000"/>
	<path id="Vector" d="M137.932 287.81L123.95 287.81L123.95 301.795L137.932 301.795L137.932 287.81Z" fill="#FFFFFF" fill-opacity="1.000000" fill-rule="nonzero"/>
	<path id="Vector" d="M137.932 287.81L137.932 301.795L123.95 301.795L123.95 287.81L137.932 287.81Z" stroke="#263238" stroke-opacity="1.000000" stroke-width="1.000000"/>
	<path id="Vector" d="M155.779 287.81L141.797 287.81L141.797 301.795L155.779 301.795L155.779 287.81Z" fill="#FFFFFF" fill-opacity="1.000000" fill-rule="nonzero"/>
	<path id="Vector" d="M155.779 287.81L155.779 301.795L141.797 301.795L141.797 287.81L155.779 287.81Z" stroke="#263238" stroke-opacity="1.000000" stroke-width="1.000000"/>
	<path id="Vector" d="M173.637 287.81L159.655 287.81L159.655 301.795L173.637 301.795L173.637 287.81Z" fill="#FFFFFF" fill-opacity="1.000000" fill-rule="nonzero"/>
	<path id="Vector" d="M173.637 287.81L173.637 301.795L159.655 301.795L159.655 287.81L173.637 287.81Z" stroke="#263238" stroke-opacity="1.000000" stroke-width="1.000000"/>
	<path id="Vector" d="M191.484 287.81L177.502 287.81L177.502 301.795L191.484 301.795L191.484 287.81Z" fill="#FFFFFF" fill-opacity="1.000000" fill-rule="nonzero"/>
	<path id="Vector" d="M191.484 287.81L191.484 301.795L177.502 301.795L177.502 287.81L191.484 287.81Z" stroke="#263238" stroke-opacity="1.000000" stroke-width="1.000000"/>
	<path id="Vector" d="M209.332 287.81L195.35 287.81L195.35 301.795L209.332 301.795L209.332 287.81Z" fill="#FFFFFF" fill-opacity="1.000000" fill-rule="nonzero"/>
	<path id="Vector" d="M209.332 287.81L209.332 301.795L195.35 301.795L195.35 287.81L209.332 287.81Z" stroke="#263238" stroke-opacity="1.000000" stroke-width="1.000000"/>
	<path id="Vector" d="M227.19 287.81L213.208 287.81L213.208 301.795L227.19 301.795L227.19 287.81Z" fill="#FFFFFF" fill-opacity="1.000000" fill-rule="nonzero"/>
	<path id="Vector" d="M227.19 287.81L227.19 301.795L213.208 301.795L213.208 287.81L227.19 287.81Z" stroke="#263238" stroke-opacity="1.000000" stroke-width="1.000000"/>
	<path id="Vector" d="M245.037 287.81L231.055 287.81L231.055 301.795L245.037 301.795L245.037 287.81Z" fill="#FFFFFF" fill-opacity="1.000000" fill-rule="nonzero"/>
	<path id="Vector" d="M245.037 287.81L245.037 301.795L231.055 301.795L231.055 287.81L245.037 287.81Z" stroke="#263238" stroke-opacity="1.000000" stroke-width="1.000000"/>
	<path id="Vector" d="M262.883 287.81L248.901 287.81L248.901 301.795L262.883 301.795L262.883 287.81Z" fill="#FFFFFF" fill-opacity="1.000000" fill-rule="nonzero"/>
	<path id="Vector" d="M262.883 287.81L262.883 301.795L248.901 301.795L248.901 287.81L262.883 287.81Z" stroke="#263238" stroke-opacity="1.000000" stroke-width="1.000000"/>
	<path id="Vector" d="M280.742 287.81L266.76 287.81L266.76 301.795L280.742 301.795L280.742 287.81Z" fill="#FFFFFF" fill-opacity="1.000000" fill-rule="nonzero"/>
	<path id="Vector" d="M280.742 287.81L280.742 301.795L266.76 301.795L266.76 287.81L280.742 287.81Z" stroke="#263238" stroke-opacity="1.000000" stroke-width="1.000000"/>
	<path id="Vector" d="M109.817 220.46L95.835 220.46L95.835 234.445L109.817 234.445L109.817 220.46Z" fill="#FFFFFF" fill-opacity="1.000000" fill-rule="nonzero"/>
	<path id="Vector" d="M109.817 220.46L109.817 234.445L95.835 234.445L95.835 220.46L109.817 220.46Z" stroke="#263238" stroke-opacity="1.000000" stroke-width="1.000000"/>
	<path id="Vector" d="M127.664 220.46L113.682 220.46L113.682 234.445L127.664 234.445L127.664 220.46Z" fill="#FFFFFF" fill-opacity="1.000000" fill-rule="nonzero"/>
	<path id="Vector" d="M127.664 220.46L127.664 234.445L113.682 234.445L113.682 220.46L127.664 220.46Z" stroke="#263238" stroke-opacity="1.000000" stroke-width="1.000000"/>
	<path id="Vector" d="M145.511 220.46L131.529 220.46L131.529 234.445L145.511 234.445L145.511 220.46Z" fill="#FFFFFF" fill-opacity="1.000000" fill-rule="nonzero"/>
	<path id="Vector" d="M145.511 220.46L145.511 234.445L131.529 234.445L131.529 220.46L145.511 220.46Z" stroke="#263238" stroke-opacity="1.000000" stroke-width="1.000000"/>
	<path id="Vector" d="M163.37 220.46L149.388 220.46L149.388 234.445L163.37 234.445L163.37 220.46Z" fill="#FFFFFF" fill-opacity="1.000000" fill-rule="nonzero"/>
	<path id="Vector" d="M163.37 220.46L163.37 234.445L149.388 234.445L149.388 220.46L163.37 220.46Z" stroke="#263238" stroke-opacity="1.000000" stroke-width="1.000000"/>
	<path id="Vector" d="M181.216 220.46L167.234 220.46L167.234 234.445L181.216 234.445L181.216 220.46Z" fill="#FFFFFF" fill-opacity="1.000000" fill-rule="nonzero"/>
	<path id="Vector" d="M181.216 220.46L181.216 234.445L167.234 234.445L167.234 220.46L181.216 220.46Z" stroke="#263238" stroke-opacity="1.000000" stroke-width="1.000000"/>
	<path id="Vector" d="M199.075 220.46L185.093 220.46L185.093 234.445L199.075 234.445L199.075 220.46Z" fill="#FFFFFF" fill-opacity="1.000000" fill-rule="nonzero"/>
	<path id="Vector" d="M199.075 220.46L199.075 234.445L185.093 234.445L185.093 220.46L199.075 220.46Z" stroke="#263238" stroke-opacity="1.000000" stroke-width="1.000000"/>
	<path id="Vector" d="M216.921 220.46L202.939 220.46L202.939 234.445L216.921 234.445L216.921 220.46Z" fill="#FFFFFF" fill-opacity="1.000000" fill-rule="nonzero"/>
	<path id="Vector" d="M216.921 220.46L216.921 234.445L202.939 234.445L202.939 220.46L216.921 220.46Z" stroke="#263238" stroke-opacity="1.000000" stroke-width="1.000000"/>
	<path id="Vector" d="M234.769 220.46L220.787 220.46L220.787 234.445L234.769 234.445L234.769 220.46Z" fill="#FFFFFF" fill-opacity="1.000000" fill-rule="nonzero"/>
	<path id="Vector" d="M234.769 220.46L234.769 234.445L220.787 234.445L220.787 220.46L234.769 220.46Z" stroke="#263238" stroke-opacity="1.000000" stroke-width="1.000000"/>
	<path id="Vector" d="M252.627 220.46L238.646 220.46L238.646 234.445L252.627 234.445L252.627 220.46Z" fill="#FFFFFF" fill-opacity="1.000000" fill-rule="nonzero"/>
	<path id="Vector" d="M252.627 220.46L252.627 234.445L238.646 234.445L238.646 220.46L252.627 220.46Z" stroke="#263238" stroke-opacity="1.000000" stroke-width="1.000000"/>
	<path id="Vector" d="M270.474 220.46L256.492 220.46L256.492 234.445L270.474 234.445L270.474 220.46Z" fill="#FFFFFF" fill-opacity="1.000000" fill-rule="nonzero"/>
	<path id="Vector" d="M270.474 220.46L270.474 234.445L256.492 234.445L256.492 220.46L270.474 220.46Z" stroke="#263238" stroke-opacity="1.000000" stroke-width="1.000000"/>
	<path id="Vector" d="M288.321 220.46L274.339 220.46L274.339 234.445L288.321 234.445L288.321 220.46Z" fill="#FFFFFF" fill-opacity="1.000000" fill-rule="nonzero"/>
	<path id="Vector" d="M288.321 220.46L288.321 234.445L274.339 234.445L274.339 220.46L288.321 220.46Z" stroke="#263238" stroke-opacity="1.000000" stroke-width="1.000000"/>
	<path id="Vector" d="M306.179 220.46L292.197 220.46L292.197 234.445L306.179 234.445L306.179 220.46Z" fill="#FFFFFF" fill-opacity="1.000000" fill-rule="nonzero"/>
	<path id="Vector" d="M306.179 220.46L306.179 234.445L292.197 234.445L292.197 220.46L306.179 220.46Z" stroke="#263238" stroke-opacity="1.000000" stroke-width="1.000000"/>
	<path id="Vector" d="M324.026 220.46L310.044 220.46L310.044 234.445L324.026 234.445L324.026 220.46Z" fill="#FFFFFF" fill-opacity="1.000000" fill-rule="nonzero"/>
	<path id="Vector" d="M324.026 220.46L324.026 234.445L310.044 234.445L310.044 220.46L324.026 220.46Z" stroke="#263238" stroke-opacity="1.000000" stroke-width="1.000000"/>
	<path id="Vector" d="M84.2515 287.81L67.3125 287.81L67.3125 301.795L84.2515 301.795L84.2515 287.81Z" fill="#FFFFFF" fill-opacity="1.000000" fill-rule="nonzero"/>
	<path id="Vector" d="M84.2515 287.81L84.2515 301.795L67.3125 301.795L67.3125 287.81L84.2515 287.81Z" stroke="#263238" stroke-opacity="1.000000" stroke-width="1.000000"/>
	<path id="Vector" d="M61.7012 213.497L67.3125 211.622L326.599 211.622L330.29 213.473L61.7012 213.497Z" fill="#263238" fill-opacity="1.000000" fill-rule="nonzero"/>
	<path id="Vector" d="M296.854 347.522L296.994 296.043C297.553 293.97 298.007 286.332 299.194 281.01C301.22 272.091 293.257 261.331 292.698 260.982C290.463 259.585 285.713 259.608 285.713 259.608C285.713 259.608 281.057 254.298 276.9 252.621C274.044 251.607 271 251.23 267.982 251.515C264.782 248.872 261.213 246.711 257.389 245.099C255.892 244.533 254.268 244.39 252.694 244.686C251.122 244.982 249.66 245.705 248.471 246.776L243.232 254.927C242.467 256.084 242.12 257.467 242.249 258.848C242.378 260.229 242.976 261.525 243.942 262.519C246.434 264.964 249.624 263.823 251.23 263.823C253.454 263.823 254.292 261.308 254.292 261.308C254.292 261.308 254.839 274.408 254.292 276.085C253.722 277.75 249.554 281.651 249.554 281.651L235.583 263.218C230.788 256.709 226.591 249.78 223.045 242.514C222.641 241.628 222.112 240.805 221.474 240.069C219.029 237.309 213.802 236.494 212.439 241.618C212.104 243.256 212.181 244.953 212.661 246.555C218.481 263.765 225.909 276.772 232.673 290.326C236.689 298.372 235.199 298.279 237.202 301.912C236.969 302.075 237.085 302.377 236.829 302.529C235.851 306.441 235.165 310.365 234.175 314.278C233.355 309.366 231.854 304.592 229.716 300.095C230.281 297.37 230.488 294.583 230.333 291.804C230.158 288.997 228.907 286.365 226.84 284.457C225.683 283.521 224.263 282.967 222.777 282.873C221.713 282.804 220.663 283.138 219.834 283.809C219.005 284.48 218.46 285.439 218.307 286.495C218.075 288.624 217.686 290.734 217.143 292.806C216.253 295.511 215.179 298.153 213.93 300.712C213.93 305.917 217.143 305.067 219.483 325.957C221.299 342.259 242.254 352.983 253.663 364.732L267.175 404.653C284.175 396.653 291.175 392.653 305.675 381.653L296.854 347.522Z" fill="#FFFFFF" fill-opacity="1.000000" fill-rule="nonzero"/>
	<path id="Vector" d="M227.131 319.343C227.271 319.087 227.387 318.831 227.503 318.563C227.38 318.65 227.281 318.768 227.215 318.904C227.15 319.041 227.121 319.192 227.131 319.343Z" fill="#92E3A9" fill-opacity="1.000000" fill-rule="nonzero"/>
	<path id="Vector" d="M260.694 247.312C259.097 246.063 257.197 245.259 255.188 244.983L260.694 247.312Z" fill="#92E3A9" fill-opacity="1.000000" fill-rule="nonzero"/>
	<path id="Vector" d="M254.49 252.761L254.56 253.343C254.601 253.147 254.576 252.942 254.49 252.761Z" fill="#92E3A9" fill-opacity="1.000000" fill-rule="nonzero"/>
	<g opacity="0.500000">
		<g opacity="0.500000">
			<path id="Vector" d="M227.131 319.343C227.271 319.087 227.387 318.831 227.503 318.563C227.38 318.65 227.281 318.768 227.215 318.904C227.15 319.041 227.121 319.192 227.131 319.343Z" fill="#FFFFFF" fill-opacity="1.000000" fill-rule="nonzero"/>
		</g>
		<g opacity="0.500000">
			<path id="Vector" d="M260.694 247.312C259.097 246.063 257.197 245.259 255.188 244.983L260.694 247.312Z" fill="#FFFFFF" fill-opacity="1.000000" fill-rule="nonzero"/>
		</g>
		<g opacity="0.500000">
			<path id="Vector" d="M254.489 252.761L254.559 253.343C254.6 253.147 254.575 252.942 254.489 252.761Z" fill="#FFFFFF" fill-opacity="1.000000" fill-rule="nonzero"/>
		</g>
		<g opacity="0.500000">
			<path id="Vector" d="M260.904 303.262C260.38 301.958 257.842 298.209 256.363 300.805L260.904 303.262Z" fill="#FFFFFF" fill-opacity="1.000000" fill-rule="nonzero"/>
		</g>
	</g>
	<path id="Vector" d="M217.62 296.998C216.267 298.064 215.112 299.361 214.209 300.829L217.62 296.998Z" fill="#FFFFFF" fill-opacity="1.000000" fill-rule="nonzero"/>
	<path id="Vector" d="M267.175 404.653L253.779 364.697C242.371 352.948 221.415 342.201 219.599 325.922C217.271 305.032 214.046 305.882 214.046 300.677C215.295 298.118 216.369 295.476 217.259 292.771C217.802 290.699 218.191 288.589 218.423 286.46C218.576 285.404 219.122 284.445 219.95 283.774C220.779 283.103 221.83 282.769 222.894 282.838C224.379 282.932 225.799 283.486 226.957 284.422C229.023 286.33 230.274 288.962 230.449 291.769C230.604 294.548 230.397 297.335 229.832 300.06C231.97 304.557 233.471 309.331 234.291 314.243C235.281 310.33 235.967 306.406 236.945 302.494C237.202 302.342 237.085 302.04 237.318 301.877C235.315 298.244 236.806 298.383 232.789 290.291C226.025 276.737 218.609 263.73 212.777 246.52C212.297 244.918 212.221 243.221 212.556 241.583C213.918 236.459 219.145 237.274 221.59 240.034C222.228 240.77 222.757 241.593 223.162 242.479C226.708 249.745 230.904 256.674 235.7 263.183L249.67 281.616C249.67 281.616 253.838 277.715 254.408 276.05C254.955 274.373 254.408 261.273 254.408 261.273C254.408 261.273 253.57 263.788 251.346 263.788C249.74 263.788 246.55 264.953 244.059 262.484C243.083 261.506 242.469 260.225 242.318 258.851C242.168 257.477 242.49 256.093 243.232 254.927L248.436 246.776C249.625 245.705 251.086 244.982 252.66 244.686C254.232 244.39 255.856 244.533 257.354 245.099C261.178 246.711 264.748 248.872 267.948 251.515C270.965 251.23 274.009 251.607 276.865 252.621C281.056 254.31 285.678 259.608 285.678 259.608C285.678 259.608 290.417 259.608 292.663 260.982C293.222 261.331 301.185 272.091 299.159 281.01C297.995 286.332 297.518 293.97 296.959 296.043L296.819 347.522L306.175 381.653" stroke="#263238" stroke-opacity="1.000000" stroke-width="1.000000"/>
	<path id="Vector" d="M269.263 253.332C271.313 260.927 272.377 268.754 272.43 276.62C272.364 277.938 272.505 279.259 272.849 280.533C273.029 281.166 273.369 281.743 273.836 282.208C274.303 282.672 274.881 283.01 275.515 283.188" stroke="#263238" stroke-opacity="1.000000" stroke-width="1.000000"/>
	<path id="Vector" d="M285.725 260.982C289.218 268.271 285.644 284.55 285.9 285.703C286.009 286.282 286.242 286.831 286.581 287.313C286.92 287.795 287.359 288.199 287.867 288.497" stroke="#263238" stroke-opacity="1.000000" stroke-width="1.000000"/>
	<path id="Vector" d="M255.712 252.33C255.305 254.659 254.967 257.337 254.548 259.655C253.193 258.488 252.083 257.064 251.284 255.465C250.484 253.865 250.011 252.123 249.891 250.339" stroke="#263238" stroke-opacity="1.000000" stroke-width="1.000000"/>
	<path id="Vector" d="M233.406 314.464L230.892 315.57" stroke="#263238" stroke-opacity="1.000000" stroke-width="1.000000"/>
	<path id="Vector" d="M234.047 316.479C233.645 318.422 233.645 320.427 234.047 322.371" stroke="#263238" stroke-opacity="1.000000" stroke-width="1.000000"/>
	<path id="Vector" d="M248.762 294.715L251.544 299.734" stroke="#263238" stroke-opacity="1.000000" stroke-width="1.000000"/>
	<path id="Vector" d="M254.117 276.352L256.887 272.44" stroke="#263238" stroke-opacity="1.000000" stroke-width="1.000000"/>
	<path id="Vector" d="M293.083 294.715L292.244 297.789" stroke="#263238" stroke-opacity="1.000000" stroke-width="1.000000"/>
	<path id="Vector" d="M286.307 286.366C287.083 283.758 287.901 281.15 288.763 278.542" stroke="#263238" stroke-opacity="1.000000" stroke-width="1.000000"/>
	<path id="Vector" d="M294.456 272.452C295.193 272.066 296.052 271.987 296.847 272.234C297.641 272.481 298.305 273.032 298.694 273.767" stroke="#263238" stroke-opacity="1.000000" stroke-width="1.000000"/>
	<path id="Vector" d="M277.773 259.084C278.74 258.813 279.758 258.788 280.736 259.012C281.714 259.235 282.621 259.701 283.373 260.365" stroke="#263238" stroke-opacity="1.000000" stroke-width="1.000000"/>
	<path id="Vector" d="M225.92 266.851C226.824 265.86 227.949 265.097 229.203 264.623C230.457 264.15 231.806 263.979 233.138 264.126" stroke="#263238" stroke-opacity="1.000000" stroke-width="1.000000"/>
	<path id="Vector" d="M215.408 244.89C216.24 244.289 217.183 243.859 218.182 243.623C219.18 243.388 220.216 243.351 221.229 243.516" stroke="#263238" stroke-opacity="1.000000" stroke-width="1.000000"/>
	<path id="Vector" d="M217.62 296.998C216.267 298.064 215.112 299.361 214.209 300.829" stroke="#263238" stroke-opacity="1.000000" stroke-width="1.000000"/>
	<path id="Vector" d="M218.691 291.7C220.531 290.395 223.464 293.33 225.153 291.828C225.452 291.49 225.661 291.083 225.76 290.643C225.86 290.204 225.847 289.746 225.723 289.312C225.475 288.446 225.36 287.547 225.385 286.646" stroke="#263238" stroke-opacity="1.000000" stroke-width="1.000000"/>
	<path id="Vector" d="M270.602 283.63C272.842 288.281 273.298 293.593 271.882 298.558" stroke="#263238" stroke-opacity="1.000000" stroke-width="1.000000"/>
	<path id="Vector" d="M284.129 290.815C284.492 293.016 284.081 295.275 282.965 297.207" stroke="#263238" stroke-opacity="1.000000" stroke-width="1.000000"/>
	<path id="Vector" d="M167.124 290.161C166.623 287.832 163.352 288.193 163.352 288.193C152.35 288.833 150.872 306.078 150.872 306.078L146.925 317.897L145.761 300.128L145.877 277.224C145.877 277.224 149.207 255.309 147.728 251.874C147.391 250.927 146.776 250.103 145.964 249.509C145.152 248.915 144.181 248.579 143.176 248.544C136.773 246.937 136.401 256.171 136.401 256.171L130.999 275.011L128.717 295.331L126.877 294.341C126.877 294.341 126.004 272.787 126.377 272.426C126.75 272.065 128.961 257.522 128.961 257.522C128.961 257.522 130.125 254.82 131.674 251.374C132.112 250.406 132.338 249.356 132.338 248.294C132.338 247.232 132.112 246.182 131.674 245.214C129.078 239.916 123.676 242.384 122.559 245.214C121.247 248.087 119.77 250.883 118.135 253.586L111.964 270.459C112.197 274.278 110.009 293.107 110.009 293.107L107.785 292.105L104.211 281.043L106.935 269.713C106.935 269.713 112.884 263.193 111.848 259.35C110.812 255.507 105.817 256.648 105.817 256.648L95.7358 268.7L92.7671 268.7L85.7822 277.573C82.6113 287.09 82.0444 297.282 84.1406 307.091L85.7471 314.579L85.7471 362.984C85.7471 362.984 80.9624 370.739 80.9624 371.472C80.9624 371.81 76.4341 380.026 73.6748 387.653C85.6968 395.514 98.6748 402.153 114.175 408.653C118.587 396.229 126.109 379.251 128.961 376.153C134.62 369.994 145.703 358.175 145.703 358.175C145.703 358.175 158.287 337.949 159.766 331.218C160.93 325.699 163.934 315.685 164.958 312.25C165.196 311.47 165.291 310.653 165.237 309.839C165.156 308.023 164.981 304.495 164.981 301.386C164.981 296.891 167.601 292.455 167.124 290.161Z" fill="#FFFFFF" fill-opacity="1.000000" fill-rule="nonzero"/>
	<path id="Vector" d="M73.6748 387.653C77.1748 379.653 82.0859 368.493 82.0859 368.156C82.0859 367.422 86.8706 359.667 86.8706 359.667L86.8706 311.274L85.2642 303.833C83.1694 294.049 83.7241 283.883 86.8706 274.385L93.8555 265.512L96.8242 265.512L106.906 253.46C106.906 253.46 111.958 252.295 112.937 256.161C113.915 260.027 108.024 266.501 108.024 266.501L105.299 277.831L108.874 288.893L111.097 289.895C111.097 289.895 113.286 271.066 113.053 267.247L119.223 250.374C120.858 247.671 122.335 244.876 123.647 242.002C124.811 239.172 130.167 236.704 132.763 242.002C133.2 242.97 133.426 244.02 133.426 245.082C133.426 246.144 133.2 247.194 132.763 248.162C131.272 251.655 130.05 254.31 130.05 254.31C130.05 254.31 127.838 268.842 127.466 269.215C127.093 269.587 127.966 291.129 127.966 291.129L129.806 292.119L132.029 271.8L137.431 252.959C137.431 252.959 137.804 243.725 144.207 245.332C145.211 245.367 146.183 245.703 146.995 246.297C147.806 246.891 148.421 247.715 148.758 248.662C150.237 252.097 146.907 274.012 146.907 274.012L146.791 296.916L147.955 314.685L151.902 302.866C151.902 302.866 153.38 285.621 164.382 284.981C164.382 284.981 167.653 284.643 168.154 286.949C168.654 289.254 166.012 293.679 166.012 298.116C166.012 301.225 166.187 304.753 166.268 306.569C166.321 307.383 166.226 308.2 165.988 308.98C164.964 312.415 162.019 322.429 160.796 327.948C159.317 334.678 146.733 354.905 146.733 354.905C146.733 354.905 135.65 366.723 129.992 372.883C127.14 375.981 118.587 396.229 114.175 408.653" stroke="#263238" stroke-opacity="1.000000" stroke-width="1.000000"/>
	<path id="Vector" d="M110.934 291.676C111.244 292.833 111.253 294.049 110.962 295.211C110.67 296.372 110.088 297.44 109.27 298.313" fill="#FFFFFF" fill-opacity="1.000000" fill-rule="nonzero"/>
	<path id="Vector" d="M110.934 291.676C111.244 292.833 111.253 294.049 110.962 295.211C110.67 296.372 110.088 297.44 109.27 298.313" stroke="#263238" stroke-opacity="1.000000" stroke-width="1.000000"/>
	<path id="Vector" d="M92.1562 307.955C93.751 305.475 95.311 302.075 94.8804 299.164C94.042 293.446 91.3877 286.867 92.6104 281.208C93.3555 277.598 94.1123 273.977 94.8569 270.367" fill="#FFFFFF" fill-opacity="1.000000" fill-rule="nonzero"/>
	<path id="Vector" d="M92.1562 307.955C93.751 305.475 95.311 302.075 94.8804 299.164C94.042 293.446 91.3877 286.867 92.6104 281.208C93.3555 277.598 94.1123 273.977 94.8569 270.367" stroke="#263238" stroke-opacity="1.000000" stroke-width="1.000000"/>
	<path id="Vector" d="M138.572 253.949C140.479 253.446 142.485 253.446 144.393 253.949C144.393 253.413 144.393 252.878 144.393 252.33" stroke="#263238" stroke-opacity="1.000000" stroke-width="1.000000"/>
	<path id="Vector" d="M123.321 246.671C123.882 247.058 124.539 247.283 125.219 247.321C125.899 247.36 126.577 247.21 127.178 246.889C127.779 246.568 128.28 246.088 128.627 245.501C128.973 244.914 129.151 244.244 129.142 243.562" stroke="#263238" stroke-opacity="1.000000" stroke-width="1.000000"/>
	<path id="Vector" d="M165.36 287.1C163.75 287.514 162.336 288.477 161.36 289.823C160.385 291.168 159.91 292.812 160.016 294.471L162.869 295.321" stroke="#263238" stroke-opacity="1.000000" stroke-width="1.000000"/>
	<path id="Vector" d="M127.896 288.521C128.025 290.477 127.78 295.146 127.896 297.091" fill="#FFFFFF" fill-opacity="1.000000" fill-rule="nonzero"/>
	<path id="Vector" d="M127.896 288.521C128.025 290.477 127.78 295.146 127.896 297.091" stroke="#263238" stroke-opacity="1.000000" stroke-width="1.000000"/>
	<path id="Vector" d="M130.038 291.222C129.806 294.428 129.569 297.63 129.328 300.829C129.328 300.421 129.328 300.014 129.328 299.606" fill="#FFFFFF" fill-opacity="1.000000" fill-rule="nonzero"/>
	<path id="Vector" d="M130.038 291.222C129.806 294.428 129.569 297.63 129.328 300.829C129.328 300.421 129.328 300.014 129.328 299.606" stroke="#263238" stroke-opacity="1.000000" stroke-width="1.000000"/>
	<path id="Vector" d="M147.769 318.214C148.614 321.752 148.228 325.473 146.674 328.763" fill="#FFFFFF" fill-opacity="1.000000" fill-rule="nonzero"/>
	<path id="Vector" d="M147.769 318.214C148.614 321.752 148.228 325.473 146.674 328.763" stroke="#263238" stroke-opacity="1.000000" stroke-width="1.000000"/>
	<path id="Vector" d="M118.292 301.434C115.754 304.217 116.127 310.889 117.92 314.569" stroke="#263238" stroke-opacity="1.000000" stroke-width="1.000000"/>
	<path id="Vector" d="M137.047 306.022C137.062 309.15 135.959 312.181 133.938 314.569" stroke="#263238" stroke-opacity="1.000000" stroke-width="1.000000"/>
	<path id="Vector" d="M99.8052 302.762C99.3833 305.599 99.9995 308.493 101.54 310.913" stroke="#263238" stroke-opacity="1.000000" stroke-width="1.000000"/>
	<path id="Vector" d="M89.001 311.46C88.8896 313.674 89.5205 315.863 90.7935 317.678" stroke="#263238" stroke-opacity="1.000000" stroke-width="1.000000"/>
	<path id="Vector" d="M103.809 257.768C104.478 257.463 105.222 257.363 105.947 257.482C106.672 257.6 107.346 257.93 107.884 258.432L109.351 256.522" stroke="#263238" stroke-opacity="1.000000" stroke-width="1.000000"/>
	<path id="Vector" d="M115.754 266.327C116.736 265.738 117.896 265.519 119.024 265.709C120.153 265.899 121.177 266.485 121.913 267.363" stroke="#263238" stroke-opacity="1.000000" stroke-width="1.000000"/>
	<path id="Vector" d="M134.404 272.149C135.45 271.682 136.587 271.452 137.732 271.477C138.877 271.501 140.003 271.778 141.028 272.289" stroke="#263238" stroke-opacity="1.000000" stroke-width="1.000000"/>
	<path id="Vector" d="M92.9009 281.918C93.5205 280.882 94.4253 280.046 95.5068 279.509C96.5884 278.972 97.8013 278.758 99.001 278.891" stroke="#263238" stroke-opacity="1.000000" stroke-width="1.000000"/>
	<path id="Vector" d="M85.0898 293.05C85.1274 292.297 85.4214 291.578 85.9233 291.015C86.4253 290.452 87.105 290.077 87.8491 289.953" stroke="#263238" stroke-opacity="1.000000" stroke-width="1.000000"/>
	<path id="Vector" d="M391.083 14.3799L0.5 16.2198L6.40234 7.37012C7.7959 5.2648 9.6875 3.53619 11.9092 2.33771C14.1309 1.13925 16.6143 0.507996 19.1387 0.5L372.538 0.5C374.825 0.498352 377.083 1.01013 379.146 1.99762C381.21 2.98511 383.025 4.42313 384.459 6.20569L391.083 14.3799Z" fill="#FFFFFF" fill-opacity="1.000000" fill-rule="nonzero"/>
	<path id="Vector" d="M0.5 16.2198L6.40234 7.37012C7.7959 5.2648 9.6875 3.53619 11.9092 2.33771C14.1309 1.13925 16.6143 0.507996 19.1387 0.5L372.538 0.5C374.825 0.498352 377.083 1.01013 379.146 1.99762C381.21 2.98511 383.025 4.42313 384.459 6.20569L391.083 14.3799L0.5 16.2198Z" stroke="#263238" stroke-opacity="1.000000" stroke-width="1.000000" stroke-linejoin="round"/>
	<path id="Vector" d="M202.578 72.9389L181.181 72.9389C159.224 72.9389 141.424 90.7424 141.424 112.704L141.424 134.106C141.424 156.068 159.224 173.871 181.181 173.871L202.578 173.871C224.535 173.871 242.335 156.068 242.335 134.106L242.335 112.704C242.335 90.7424 224.535 72.9389 202.578 72.9389Z" fill="#757575" fill-opacity="1.000000" fill-rule="nonzero"/>
	<path id="Vector" d="M202.578 72.9389C224.535 72.9389 242.335 90.7424 242.335 112.704L242.335 134.106C242.335 156.068 224.535 173.871 202.578 173.871L181.181 173.871C159.224 173.871 141.424 156.068 141.424 134.106L141.424 112.704C141.424 90.7424 159.224 72.9389 181.181 72.9389L202.578 72.9389Z" stroke="#263238" stroke-opacity="1.000000" stroke-width="1.000000" stroke-linejoin="round"/>
	<path id="Vector" d="M159.76 131.94L159.76 146.286C159.76 148.448 160.618 150.521 162.146 152.05C163.675 153.578 165.748 154.437 167.909 154.437L217.119 154.437C219.271 154.437 221.334 153.586 222.861 152.07C224.388 150.554 225.253 148.496 225.269 146.344C225.338 139.882 225.676 131.94 225.676 131.94L159.76 131.94Z" fill="#999999" fill-opacity="1.000000" fill-rule="nonzero"/>
	<path id="Vector" d="M159.76 146.286C159.76 148.448 160.618 150.521 162.146 152.05C163.675 153.578 165.748 154.437 167.909 154.437L217.119 154.437C219.271 154.437 221.334 153.586 222.861 152.07C224.388 150.554 225.253 148.496 225.269 146.344C225.338 139.882 225.676 131.94 225.676 131.94L159.76 131.94L159.76 146.286Z" stroke="#263238" stroke-opacity="1.000000" stroke-width="1.000000" stroke-linejoin="round"/>
	<path id="Vector" d="M339.859 136.726L52.0737 136.726C50.5933 136.729 49.1465 136.287 47.9214 135.456C46.6963 134.625 45.7495 133.445 45.2051 132.068L0.814453 18.0828C0.54541 17.3937 0.448242 16.6492 0.532227 15.9141C0.616211 15.179 0.878418 14.4756 1.2959 13.865C1.71387 13.2543 2.27441 12.755 2.9292 12.4105C3.5835 12.0659 4.3125 11.8866 5.05225 11.8881L386.904 11.8881C387.639 11.896 388.36 12.0822 389.008 12.4308C389.655 12.7792 390.208 13.2796 390.618 13.8888C391.029 14.4981 391.287 15.198 391.367 15.9285C391.448 16.659 391.351 17.3983 391.083 18.0828L346.693 132.033C346.156 133.411 345.217 134.595 343.999 135.432C342.78 136.269 341.337 136.72 339.859 136.726Z" fill="#FFFFFF" fill-opacity="1.000000" fill-rule="nonzero"/>
	<path id="Vector" d="M52.0737 136.726C50.5933 136.73 49.1465 136.287 47.9214 135.456C46.6963 134.625 45.7495 133.445 45.2051 132.068L0.814453 18.0828C0.54541 17.3937 0.448242 16.6492 0.532227 15.9141C0.616211 15.179 0.878418 14.4756 1.2959 13.865C1.71387 13.2543 2.27441 12.755 2.9292 12.4105C3.5835 12.0659 4.3125 11.8866 5.05225 11.8881L386.904 11.8881C387.639 11.896 388.361 12.0822 389.008 12.4308C389.654 12.7792 390.208 13.2796 390.618 13.8888C391.029 14.4981 391.287 15.198 391.368 15.9285C391.448 16.659 391.351 17.3983 391.083 18.0828L346.693 132.033C346.156 133.411 345.217 134.595 343.999 135.432C342.78 136.269 341.337 136.72 339.859 136.726L52.0737 136.726Z" stroke="#263238" stroke-opacity="1.000000" stroke-width="1.000000" stroke-linejoin="round"/>
	<path id="Vector" d="M342.001 126.794L49.2441 126.794L8.96338 19.1075L382.095 19.1075L342.001 126.794Z" fill="#FFFFFF" fill-opacity="1.000000" fill-rule="nonzero"/>
	<path id="Vector" d="M160.074 136.575L225.338 136.575L225.338 141.046L160.074 141.046L160.074 136.575Z" fill="#263238" fill-opacity="1.000000" fill-rule="evenodd"/>
	<path id="Vector" d="M299.241 122.182L92.5059 122.182C91.3413 122.182 90.2939 121.67 90.084 121.018L60.6768 27.5729C60.3511 26.5249 61.2705 25.6749 62.7378 25.6749L329.009 25.6749C330.476 25.6749 331.396 26.5249 331.058 27.5729L301.663 121.018C301.441 121.658 300.371 122.182 299.241 122.182Z" fill="#38BFF2" fill-opacity="1.000000" fill-rule="nonzero"/>
	<path id="Vector" d="M297.168 120.052L94.6011 120.052C94.2212 120.054 93.8511 119.933 93.5464 119.706C93.2417 119.479 93.019 119.159 92.9131 118.794L68.9775 40.2419C68.8882 39.9742 68.8643 39.689 68.9077 39.4102C68.9512 39.1315 69.0605 38.8671 69.2271 38.6392C69.3936 38.4114 69.6118 38.2265 69.8638 38.1002C70.1162 37.9739 70.395 37.9097 70.6772 37.913L321.069 37.913C321.352 37.9097 321.63 37.9739 321.882 38.1002C322.135 38.2265 322.353 38.4114 322.52 38.6392C322.686 38.8671 322.795 39.1315 322.838 39.4102C322.882 39.689 322.858 39.9742 322.769 40.2419L298.857 118.794C298.749 119.158 298.526 119.477 298.222 119.703C297.917 119.93 297.548 120.052 297.168 120.052Z" fill="#263238" fill-opacity="1.000000" fill-rule="nonzero"/>
	<path id="Vector" d="M122.727 58.337L83.8784 58.337C82.9121 58.337 82.2832 58.8494 82.4697 59.5014C82.6577 59.8766 82.9526 60.1876 83.3174 60.3949C83.6821 60.6022 84.1001 60.6965 84.5186 60.6659L123.146 60.6659C124.101 60.6659 124.776 60.1535 124.671 59.5014C124.566 58.8494 123.682 58.337 122.727 58.337Z" fill="#FFFFFF" fill-opacity="1.000000" fill-rule="nonzero"/>
	<path id="Vector" d="M124.019 65.4284L90.98 65.4284C90.0366 65.4284 89.4199 65.9291 89.5825 66.5928C89.7607 66.9633 90.0454 67.2722 90.3999 67.4797C90.7549 67.6871 91.1636 67.7838 91.5732 67.7572L124.485 67.7572C125.428 67.7572 126.091 67.2565 125.987 66.5928C125.882 65.9291 124.962 65.4284 124.019 65.4284Z" fill="#FFFFFF" fill-opacity="1.000000" fill-rule="nonzero"/>
	<g opacity="0.500000">
		<path id="Vector" d="M125.277 72.2752L87.7905 72.2752C86.8589 72.2752 86.2534 72.7526 86.4165 73.3465C86.604 73.702 86.8911 73.9951 87.2427 74.1896C87.5942 74.384 87.9951 74.4715 88.3955 74.441L125.649 74.441C126.569 74.441 127.233 73.9636 127.128 73.3698C127.023 72.7759 126.208 72.2752 125.277 72.2752Z" fill="#FFFFFF" fill-opacity="1.000000" fill-rule="nonzero"/>
	</g>
	<path id="Vector" d="M126.488 78.8891L104.473 78.8891C103.565 78.8891 102.937 79.3549 103.076 79.9255C103.216 80.496 104.065 80.9618 104.974 80.9618L126.872 80.9618C127.78 80.9618 128.432 80.496 128.327 79.9255C128.222 79.3549 127.408 78.8891 126.488 78.8891Z" fill="#FFFFFF" fill-opacity="1.000000" fill-rule="nonzero"/>
	<path id="Vector" d="M127.664 85.2702L91.4341 85.2702C90.5493 85.2702 89.9443 85.7243 90.1069 86.2716C90.27 86.8189 91.1084 87.273 92.0049 87.273L128.094 87.273C128.979 87.273 129.62 86.8305 129.526 86.2716C129.433 85.7127 128.56 85.2702 127.664 85.2702Z" fill="#FFFFFF" fill-opacity="1.000000" fill-rule="nonzero"/>
	<path id="Vector" d="M128.792 91.4533L99.5483 91.4533C98.6636 91.4533 98.0698 91.8841 98.2095 92.4198C98.3491 92.9554 99.1758 93.3862 100.049 93.3862L129.153 93.3862C130.026 93.3862 130.655 92.9554 130.562 92.4198C130.469 91.8841 129.677 91.4533 128.792 91.4533Z" fill="#FFFFFF" fill-opacity="1.000000" fill-rule="nonzero"/>
	<path id="Vector" d="M129.887 97.4268L101.121 97.4268C100.247 97.4268 99.665 97.846 99.8047 98.3583C99.9443 98.8707 100.748 99.3015 101.609 99.3015L130.237 99.3015C131.098 99.3015 131.715 98.8823 131.622 98.3583C131.529 97.8343 130.76 97.4268 129.887 97.4268Z" fill="#FFFFFF" fill-opacity="1.000000" fill-rule="nonzero"/>
	<path id="Vector" d="M130.947 103.202L99.5137 103.202C98.6636 103.202 98.0815 103.61 98.2212 104.111C98.3613 104.611 99.1528 105.019 100.002 105.019L131.238 105.019C132.087 105.019 132.705 104.611 132.611 104.111C132.518 103.61 131.808 103.202 130.947 103.202Z" fill="#FFFFFF" fill-opacity="1.000000" fill-rule="nonzero"/>
	<g opacity="0.500000">
		<path id="Vector" d="M131.982 108.803L111.679 108.803C110.841 108.803 110.259 109.199 110.375 109.688C110.492 110.177 111.271 110.562 112.098 110.562L132.273 110.562C133.112 110.562 133.717 110.166 133.636 109.688C133.554 109.211 132.821 108.803 131.982 108.803Z" fill="#FFFFFF" fill-opacity="1.000000" fill-rule="nonzero"/>
	</g>
	<g opacity="0.500000">
		<path id="Vector" d="M121.377 50.9779L92.4238 50.9779C91.4458 50.9779 90.7939 51.5135 90.9688 52.1423C91.1562 52.5204 91.4526 52.8336 91.8203 53.0412C92.1875 53.2488 92.6089 53.3413 93.0293 53.3067L121.808 53.3067C122.786 53.3067 123.473 52.7711 123.356 52.1423C123.194 51.762 122.915 51.4438 122.559 51.2342C122.202 51.0246 121.788 50.9348 121.377 50.9779Z" fill="#FFFFFF" fill-opacity="1.000000" fill-rule="nonzero"/>
	</g>
	<path id="Vector" d="M119.969 43.3509L79.6646 43.3509C78.6748 43.3509 78.0229 43.8982 78.2212 44.5852C78.416 44.9798 78.7236 45.3078 79.1045 45.5275C79.4858 45.7472 79.9238 45.8488 80.3633 45.8195L120.434 45.8195C121.412 45.8195 122.122 45.2722 121.994 44.5852C121.866 43.8982 120.993 43.3509 119.969 43.3509Z" fill="#FFFFFF" fill-opacity="1.000000" fill-rule="nonzero"/>
	<path id="Vector" d="M132.972 114.229L99.5718 114.229C98.7456 114.229 98.1865 114.614 98.3145 115.079C98.4429 115.545 99.2227 115.93 100.049 115.93L133.287 115.93C134.102 115.93 134.707 115.545 134.625 115.079C134.544 114.614 133.799 114.229 132.972 114.229Z" fill="#FFFFFF" fill-opacity="1.000000" fill-rule="nonzero"/>
	<g opacity="0.500000">
		<path id="Vector" d="M136.372 60.922L143.904 60.922L143.532 58.0459L135.941 58.0459L136.372 60.922Z" fill="#FFFFFF" fill-opacity="1.000000" fill-rule="nonzero"/>
	</g>
	<g opacity="0.500000">
		<path id="Vector" d="M137.419 67.9202L144.824 67.9202L144.463 65.1489L137 65.1489L137.419 67.9202Z" fill="#FFFFFF" fill-opacity="1.000000" fill-rule="nonzero"/>
	</g>
	<g opacity="0.500000">
		<path id="Vector" d="M138.433 74.6855L145.708 74.6855L145.359 72.0074L138.037 72.0074L138.433 74.6855Z" fill="#FFFFFF" fill-opacity="1.000000" fill-rule="nonzero"/>
	</g>
	<g opacity="0.500000">
		<path id="Vector" d="M139.422 81.218L146.57 81.218L146.221 78.6213L139.026 78.6213L139.422 81.218Z" fill="#FFFFFF" fill-opacity="1.000000" fill-rule="nonzero"/>
	</g>
	<g opacity="0.500000">
		<path id="Vector" d="M140.365 87.5175L147.397 87.5175L147.059 85.0257L139.993 85.0257L140.365 87.5175Z" fill="#FFFFFF" fill-opacity="1.000000" fill-rule="nonzero"/>
	</g>
	<g opacity="0.500000">
		<path id="Vector" d="M141.285 93.6191L148.188 93.6191L147.874 91.2088L140.912 91.2088L141.285 93.6191Z" fill="#FFFFFF" fill-opacity="1.000000" fill-rule="nonzero"/>
	</g>
	<g opacity="0.500000">
		<path id="Vector" d="M142.169 99.5344L148.968 99.5344L148.666 97.1823L141.82 97.1823L142.169 99.5344Z" fill="#FFFFFF" fill-opacity="1.000000" fill-rule="nonzero"/>
	</g>
	<g opacity="0.500000">
		<path id="Vector" d="M143.019 105.24L149.713 105.24L149.422 102.981L142.681 102.981L143.019 105.24Z" fill="#FFFFFF" fill-opacity="1.000000" fill-rule="nonzero"/>
	</g>
	<g opacity="0.500000">
		<path id="Vector" d="M143.857 110.783L150.446 110.783L150.155 108.582L143.531 108.582L143.857 110.783Z" fill="#FFFFFF" fill-opacity="1.000000" fill-rule="nonzero"/>
	</g>
	<g opacity="0.500000">
		<path id="Vector" d="M135.277 53.6677L142.949 53.6677L142.565 50.6751L134.835 50.6751L135.277 53.6677Z" fill="#FFFFFF" fill-opacity="1.000000" fill-rule="nonzero"/>
	</g>
	<g opacity="0.500000">
		<path id="Vector" d="M134.148 46.1338L141.96 46.1338L141.564 43.0365L133.683 43.0365L134.148 46.1338Z" fill="#FFFFFF" fill-opacity="1.000000" fill-rule="nonzero"/>
	</g>
	<g opacity="0.500000">
		<path id="Vector" d="M144.661 116.139L151.145 116.139L150.866 114.008L144.346 114.008L144.661 116.139Z" fill="#FFFFFF" fill-opacity="1.000000" fill-rule="nonzero"/>
	</g>
	<path id="Vector" d="M184.371 104.111C184.371 103.61 185.023 103.202 185.873 103.202L297.425 103.202C298.274 103.202 298.857 103.61 298.706 104.111C298.522 104.416 298.257 104.663 297.94 104.823C297.623 104.984 297.267 105.052 296.913 105.019L185.931 105.019C185.081 105.019 184.383 104.611 184.371 104.111Z" fill="#FFFFFF" fill-opacity="1.000000" fill-rule="nonzero"/>
	<path id="Vector" d="M298.554 99.3015L236.783 99.3015C235.921 99.3015 235.269 98.8823 235.327 98.3583C235.386 97.8343 236.13 97.4268 237.004 97.4268L299.113 97.4268C299.975 97.4268 300.557 97.846 300.405 98.3583C300.222 98.6785 299.949 98.9382 299.62 99.1058C299.292 99.2733 298.921 99.3413 298.554 99.3015Z" fill="#FFFFFF" fill-opacity="1.000000" fill-rule="nonzero"/>
	<g opacity="0.500000">
		<path id="Vector" d="M222.125 99.3015L202.916 99.3015C202.055 99.3015 201.356 98.8823 201.368 98.3583C201.379 97.8343 202.078 97.4268 202.951 97.4268L222.276 97.4268C223.138 97.4268 223.813 97.846 223.767 98.3583C223.72 98.8707 222.987 99.3015 222.125 99.3015Z" fill="#FFFFFF" fill-opacity="1.000000" fill-rule="nonzero"/>
	</g>
	<path id="Vector" d="M262.219 93.3862L175.092 93.3862C174.219 93.3862 173.485 92.9554 173.451 92.4198C173.416 91.8841 174.103 91.4533 174.987 91.4533L262.58 91.4533C263.454 91.4533 264.094 91.8841 263.989 92.4198C263.884 92.9554 263.104 93.3862 262.219 93.3862Z" fill="#FFFFFF" fill-opacity="1.000000" fill-rule="nonzero"/>
	<g opacity="0.500000">
		<path id="Vector" d="M156.885 91.4533L163.09 91.4533C163.963 91.4533 164.72 91.8841 164.766 92.4198C164.813 92.9554 164.138 93.3862 163.265 93.3862L157.083 93.3862C156.209 93.3862 155.453 92.9554 155.395 92.4198C155.336 91.8841 156 91.4533 156.885 91.4533Z" fill="#FFFFFF" fill-opacity="1.000000" fill-rule="nonzero"/>
	</g>
	<path id="Vector" d="M274.828 86.2716C274.711 86.8305 273.896 87.273 273 87.273L190.902 87.273C190.005 87.273 189.284 86.8305 189.272 86.2716C189.26 85.7127 189.982 85.2702 190.867 85.2702L273.419 85.2702C274.315 85.2702 274.944 85.7243 274.828 86.2716Z" fill="#FFFFFF" fill-opacity="1.000000" fill-rule="nonzero"/>
	<path id="Vector" d="M156.222 85.2702L179.505 85.2702C180.401 85.2702 181.146 85.7243 181.17 86.2716C181.193 86.8189 180.483 87.273 179.598 87.273L156.431 87.273C155.546 87.273 154.778 86.8305 154.708 86.2716C154.638 85.7127 155.325 85.2702 156.222 85.2702Z" fill="#FFFFFF" fill-opacity="1.000000" fill-rule="nonzero"/>
	<path id="Vector" d="M155.534 78.8891L245.106 78.8891C246.014 78.8891 246.689 79.3549 246.608 79.9255C246.526 80.496 245.735 80.9618 244.827 80.9618L155.755 80.9618C154.859 80.9618 154.067 80.496 154.009 79.9255C153.951 79.3549 154.626 78.8891 155.534 78.8891Z" fill="#FFFFFF" fill-opacity="1.000000" fill-rule="nonzero"/>
	<path id="Vector" d="M213.685 74.441C212.766 74.441 212.043 73.9636 212.067 73.3698C212.09 72.7759 212.858 72.2985 213.79 72.2985L261.044 72.2985C261.976 72.2985 262.639 72.7759 262.534 73.3698C262.43 73.9636 261.603 74.441 260.683 74.441L213.685 74.441Z" fill="#FFFFFF" fill-opacity="1.000000" fill-rule="nonzero"/>
	<path id="Vector" d="M154.835 72.2752L195.733 72.2752C196.665 72.2752 197.41 72.7526 197.41 73.3465C197.41 73.9403 196.665 74.441 195.733 74.441L155.068 74.441C154.137 74.441 153.345 73.9636 153.275 73.3698C153.206 72.7759 153.904 72.2752 154.835 72.2752Z" fill="#FFFFFF" fill-opacity="1.000000" fill-rule="nonzero"/>
	<path id="Vector" d="M307.634 67.6524L195.046 67.6524C194.115 67.6524 193.347 67.1517 193.347 66.488C193.347 65.8243 194.104 65.3236 195.046 65.3236L308.263 65.3236C309.206 65.3236 309.823 65.8243 309.648 66.488C309.464 66.8584 309.175 67.1663 308.817 67.3734C308.458 67.5805 308.047 67.6775 307.634 67.6524Z" fill="#FFFFFF" fill-opacity="1.000000" fill-rule="nonzero"/>
	<path id="Vector" d="M309.59 60.6309L210.635 60.6309C209.68 60.6309 208.923 60.1186 208.947 59.4665C208.97 58.8144 209.762 58.3021 210.728 58.3021L310.359 58.3021C311.313 58.3021 311.942 58.8144 311.756 59.4665C311.558 59.8595 311.244 60.182 310.856 60.3904C310.469 60.5987 310.027 60.6827 309.59 60.6309Z" fill="#FFFFFF" fill-opacity="1.000000" fill-rule="nonzero"/>
	<g opacity="0.500000">
		<path id="Vector" d="M311.732 53.3649L290.963 53.3649C289.985 53.3649 289.322 52.8293 289.473 52.2005C289.655 51.8201 289.948 51.5046 290.315 51.2964C290.681 51.0882 291.103 50.9973 291.522 51.0361L312.384 51.0361C313.362 51.0361 314.002 51.5717 313.805 52.2005C313.608 52.5736 313.308 52.882 312.94 53.0886C312.573 53.2952 312.153 53.3911 311.732 53.3649Z" fill="#FFFFFF" fill-opacity="1.000000" fill-rule="nonzero"/>
	</g>
	<path id="Vector" d="M276.469 53.3649L200.297 53.3649C199.331 53.3649 198.539 52.8293 198.55 52.2005C198.562 51.5717 199.342 51.0361 200.32 51.0361L276.993 51.0361C277.971 51.0361 278.658 51.5717 278.518 52.2005C278.344 52.5863 278.051 52.9069 277.683 53.1161C277.315 53.3253 276.89 53.4124 276.469 53.3649Z" fill="#FFFFFF" fill-opacity="1.000000" fill-rule="nonzero"/>
	<path id="Vector" d="M158.724 108.803L229.076 108.803C229.914 108.803 230.554 109.199 230.496 109.688C230.438 110.177 229.739 110.562 228.901 110.562L158.922 110.562C158.084 110.562 157.362 110.166 157.315 109.688C157.269 109.211 157.886 108.803 158.724 108.803Z" fill="#FFFFFF" fill-opacity="1.000000" fill-rule="nonzero"/>
	<path id="Vector" d="M159.306 114.229L267.389 114.229C268.204 114.229 268.797 114.614 268.693 115.079C268.588 115.545 267.854 115.93 267.028 115.93L159.493 115.93C158.666 115.93 157.956 115.545 157.909 115.079C157.863 114.614 158.479 114.229 159.306 114.229Z" fill="#FFFFFF" fill-opacity="1.000000" fill-rule="nonzero"/>
	<path id="Vector" d="M272.686 45.8195L217.62 45.8195C216.63 45.8195 215.862 45.2722 215.897 44.5852C215.932 43.8982 216.759 43.3509 217.76 43.3509L273.151 43.3509C274.153 43.3509 274.852 43.8982 274.723 44.5852C274.559 44.9809 274.273 45.3139 273.907 45.5358C273.54 45.7578 273.113 45.8571 272.686 45.8195Z" fill="#FFFFFF" fill-opacity="1.000000" fill-rule="nonzero"/>
	<g opacity="0.500000">
		<path id="Vector" d="M202.066 45.8195L152.006 45.8195C151.017 45.8195 150.155 45.2722 150.074 44.5852C149.993 43.8982 150.738 43.3509 151.739 43.3509L202.09 43.3509C203.079 43.3509 203.882 43.8982 203.871 44.5852C203.859 45.2722 203.056 45.8195 202.066 45.8195Z" fill="#FFFFFF" fill-opacity="1.000000" fill-rule="nonzero"/>
	</g>
	<g opacity="0.500000">
		<path id="Vector" d="M244.676 108.803C245.514 108.803 246.143 109.199 246.073 109.688C246.003 110.177 245.27 110.562 244.431 110.562L238.995 110.562C238.168 110.562 237.539 110.166 237.598 109.688C237.656 109.211 238.377 108.803 239.216 108.803L244.676 108.803Z" fill="#FFFFFF" fill-opacity="1.000000" fill-rule="nonzero"/>
	</g>
	<g opacity="0.500000">
		<path id="Vector" d="M177.957 104.111C177.957 104.611 177.316 105.019 176.466 105.019L169.062 105.019C168.212 105.019 167.49 104.611 167.456 104.111C167.42 103.61 168.072 103.202 168.922 103.202L176.361 103.202C177.223 103.202 177.933 103.61 177.957 104.111Z" fill="#FFFFFF" fill-opacity="1.000000" fill-rule="nonzero"/>
	</g>
	<g opacity="0.500000">
		<path id="Vector" d="M267.307 79.9255C267.203 80.496 266.388 80.9618 265.479 80.9618L256.818 80.9618C255.91 80.9618 255.258 80.496 255.339 79.9255C255.421 79.3549 256.248 78.8891 257.156 78.8891L265.864 78.8891C266.771 78.8891 267.424 79.3549 267.307 79.9255Z" fill="#FFFFFF" fill-opacity="1.000000" fill-rule="nonzero"/>
	</g>
	<g opacity="0.500000">
		<path id="Vector" d="M294.328 85.2702C295.225 85.2702 295.83 85.7243 295.679 86.2716C295.499 86.6044 295.226 86.877 294.893 87.0551C294.559 87.2333 294.181 87.3091 293.804 87.273L286.9 87.273C286.004 87.273 285.399 86.8305 285.527 86.2716C285.703 85.9387 285.974 85.6656 286.306 85.4873C286.638 85.309 287.015 85.2334 287.39 85.2702L294.328 85.2702Z" fill="#FFFFFF" fill-opacity="1.000000" fill-rule="nonzero"/>
	</g>
	<g opacity="0.500000">
		<path id="Vector" d="M181.414 67.6524C180.482 67.6524 179.703 67.1517 179.667 66.488C179.633 65.8243 180.39 65.3236 181.333 65.3236L188.678 65.3236C189.622 65.3236 190.39 65.8243 190.401 66.488C190.413 67.1517 189.656 67.6524 188.725 67.6524L181.414 67.6524Z" fill="#FFFFFF" fill-opacity="1.000000" fill-rule="nonzero"/>
	</g>
	<path id="Vector" d="M81.4106 31.7998C81.5737 32.1891 81.6353 32.6138 81.5884 33.0335C81.542 33.4532 81.3892 33.854 81.144 34.198C80.8994 34.542 80.5708 34.8178 80.1895 34.9993C79.8081 35.1807 79.3872 35.2618 78.9658 35.2348C77.9487 35.1756 76.9712 34.8183 76.1558 34.2075C75.3398 33.5966 74.7222 32.7593 74.3789 31.7998C74.2065 31.4094 74.1377 30.9815 74.1782 30.5568C74.2188 30.1322 74.3682 29.7251 74.6108 29.3745C74.854 29.0239 75.1831 28.7416 75.5664 28.5546C75.9497 28.3676 76.3745 28.2822 76.8003 28.3065C77.8301 28.3596 78.8203 28.7211 79.6426 29.344C80.4644 29.9669 81.0806 30.8224 81.4106 31.7998Z" fill="#FFFFFF" fill-opacity="1.000000" fill-rule="nonzero"/>
	<path id="Vector" d="M90.8408 31.858C90.9873 32.2567 91.0317 32.6857 90.9702 33.106C90.9087 33.5263 90.7432 33.9246 90.4888 34.2647C90.2344 34.6048 89.8989 34.8759 89.5132 35.0534C89.1274 35.231 88.7031 35.3094 88.2793 35.2814C87.2754 35.2313 86.3101 34.8771 85.5117 34.2657C84.7129 33.6543 84.1196 32.8146 83.8091 31.858C83.6553 31.4574 83.6035 31.0247 83.6597 30.5992C83.7153 30.1736 83.877 29.7689 84.1294 29.4217C84.3813 29.0745 84.7163 28.7959 85.104 28.6113C85.4912 28.4267 85.9185 28.3419 86.3472 28.3647C87.3647 28.4118 88.3433 28.7729 89.1479 29.3983C89.9526 30.0238 90.5439 30.883 90.8408 31.858Z" fill="#FFFFFF" fill-opacity="1.000000" fill-rule="nonzero"/>
	<path id="Vector" d="M100.421 31.7998C100.552 32.2115 100.58 32.6489 100.502 33.0738C100.424 33.4987 100.244 33.8981 99.9761 34.237C99.7085 34.5759 99.3618 34.8441 98.9663 35.0181C98.5713 35.192 98.1396 35.2664 97.7085 35.2348C96.7139 35.1895 95.7578 34.8339 94.9751 34.2179C94.1919 33.6019 93.6216 32.7564 93.3433 31.7998C93.2061 31.3896 93.1709 30.9522 93.2417 30.5255C93.312 30.0988 93.4854 29.6957 93.7471 29.3514C94.0088 29.0071 94.3506 28.7319 94.7427 28.5498C95.1348 28.3677 95.5654 28.2842 95.9976 28.3065C97.0122 28.3364 97.9902 28.6923 98.7871 29.3214C99.5835 29.9506 100.157 30.8195 100.421 31.7998Z" fill="#FFFFFF" fill-opacity="1.000000" fill-rule="nonzero"/>
	<path id="Vector" d="M92.2256 173.534L67.6729 173.534C66.1294 173.534 64.6484 174.147 63.5571 175.239C62.4653 176.331 61.8521 177.812 61.8521 179.356L61.8521 191.314C61.8521 192.859 62.4653 194.339 63.5571 195.431C64.6484 196.523 66.1294 197.137 67.6729 197.137L74.0874 197.137L78.9541 208.164L85.811 197.137L92.2256 197.137C93.7695 197.137 95.25 196.523 96.3418 195.431C97.4331 194.339 98.0464 192.859 98.0464 191.314L98.0464 179.309C98.0342 177.773 97.4155 176.304 96.3252 175.222C95.2349 174.141 93.7612 173.534 92.2256 173.534Z" fill="#FFFFFF" fill-opacity="1.000000" fill-rule="nonzero"/>
	<path id="Vector" d="M67.6729 173.534C66.1294 173.534 64.6484 174.147 63.5571 175.239C62.4653 176.331 61.8521 177.812 61.8521 179.356L61.8521 191.314C61.8521 192.859 62.4653 194.339 63.5571 195.431C64.6484 196.523 66.1294 197.137 67.6729 197.137L74.0874 197.137L78.9541 208.164L85.811 197.137L92.2256 197.137C93.7695 197.137 95.25 196.523 96.3418 195.431C97.4331 194.339 98.0464 192.859 98.0464 191.314L98.0464 179.309C98.0342 177.773 97.4155 176.304 96.3252 175.222C95.2349 174.141 93.7612 173.534 92.2256 173.534L67.6729 173.534Z" stroke="#263238" stroke-opacity="1.000000" stroke-width="1.000000" stroke-linejoin="round"/>
	<path id="Vector" d="M76.5327 180.404C76.5327 180.095 76.6553 179.799 76.8735 179.58C77.0918 179.362 77.3882 179.239 77.6968 179.239C77.9922 179.239 78.2764 179.35 78.4927 179.551C78.7085 179.752 78.8403 180.028 78.8613 180.322C78.8613 180.631 78.7383 180.927 78.52 181.146C78.3018 181.364 78.0059 181.487 77.6968 181.487C77.4019 181.487 77.1172 181.376 76.9014 181.175C76.6851 180.974 76.5532 180.698 76.5327 180.404ZM76.7891 182.837L78.6631 182.837L78.6631 190.825L76.7539 190.825L76.7891 182.837Z" fill="#263238" fill-opacity="1.000000" fill-rule="nonzero"/>
	<path id="Vector" d="M83.1685 182.395L83.1685 182.872L85.3687 182.872L85.3687 184.374L83.2383 184.374L83.2383 190.802L81.4106 190.802L81.4106 184.374L80.0483 184.374L80.0483 182.872L81.4106 182.872L81.4106 182.36C81.3804 181.982 81.4346 181.602 81.5688 181.247C81.7031 180.892 81.9141 180.572 82.1865 180.308C82.459 180.044 82.7866 179.844 83.1455 179.722C83.5044 179.599 83.8857 179.558 84.2627 179.6C84.8594 179.57 85.4517 179.72 85.9624 180.031L85.4385 181.44C85.1333 181.23 84.7725 181.117 84.4023 181.114C83.5757 181.114 83.1685 181.568 83.1685 182.395Z" fill="#263238" fill-opacity="1.000000" fill-rule="nonzero"/>
	<path id="Vector" d="M166.99 175.21L142.425 175.21C140.882 175.21 139.401 175.824 138.31 176.916C137.218 178.008 136.604 179.488 136.604 181.033L136.604 192.98C136.604 194.524 137.218 196.005 138.31 197.096C139.401 198.188 140.882 198.802 142.425 198.802L148.852 198.802L153.707 209.829L160.563 198.802L166.99 198.802C168.533 198.802 170.014 198.188 171.105 197.096C172.197 196.005 172.811 194.524 172.811 192.98L172.811 180.986C172.798 179.45 172.18 177.981 171.089 176.899C169.999 175.817 168.525 175.21 166.99 175.21Z" fill="#FFFFFF" fill-opacity="1.000000" fill-rule="nonzero"/>
	<path id="Vector" d="M142.425 175.21C140.882 175.21 139.401 175.824 138.31 176.916C137.218 178.008 136.604 179.488 136.604 181.033L136.604 192.98C136.604 194.524 137.218 196.005 138.31 197.096C139.401 198.188 140.882 198.802 142.425 198.802L148.852 198.802L153.707 209.829L160.563 198.802L166.99 198.802C168.533 198.802 170.014 198.188 171.105 197.096C172.197 196.005 172.811 194.524 172.811 192.98L172.811 180.986C172.798 179.45 172.18 177.981 171.089 176.899C169.999 175.817 168.525 175.21 166.99 175.21L142.425 175.21Z" stroke="#263238" stroke-opacity="1.000000" stroke-width="1.000000" stroke-linejoin="round"/>
	<path id="Vector" d="M147.595 189.079L141.319 189.079C141.442 189.661 141.774 190.178 142.253 190.532C142.731 190.886 143.323 191.053 143.916 191C144.318 191.015 144.718 190.945 145.091 190.794C145.464 190.644 145.802 190.416 146.081 190.127L147.083 191.291C146.478 191.892 145.714 192.309 144.881 192.491C144.048 192.673 143.181 192.614 142.38 192.321C141.58 192.028 140.879 191.512 140.362 190.835C139.844 190.157 139.53 189.346 139.457 188.497C139.44 187.952 139.536 187.411 139.738 186.905C139.94 186.399 140.243 185.941 140.63 185.557C141.016 185.174 141.478 184.874 141.985 184.677C142.492 184.479 143.034 184.388 143.578 184.409C144.123 184.387 144.666 184.479 145.172 184.681C145.679 184.882 146.137 185.187 146.518 185.577C146.899 185.967 147.194 186.432 147.383 186.943C147.573 187.454 147.652 187.999 147.618 188.543C147.618 188.671 147.606 188.904 147.595 189.079ZM141.308 187.844L145.836 187.844C145.781 187.292 145.516 186.781 145.096 186.418C144.676 186.054 144.133 185.865 143.578 185.888C143.022 185.867 142.48 186.057 142.059 186.42C141.638 186.783 141.369 187.292 141.308 187.844Z" fill="#263238" fill-opacity="1.000000" fill-rule="nonzero"/>
	<path id="Vector" d="M149.411 181.382L151.262 181.382L151.262 192.479L149.388 192.479L149.411 181.382Z" fill="#263238" fill-opacity="1.000000" fill-rule="nonzero"/>
	<path id="Vector" d="M152.821 191.687L153.531 190.266C154.369 190.78 155.332 191.053 156.314 191.058C157.478 191.058 157.99 190.732 157.99 190.173C157.99 188.648 153.054 190.08 153.054 186.901C153.054 185.388 154.416 184.398 156.547 184.398C157.585 184.381 158.612 184.617 159.539 185.085L158.817 186.505C158.111 186.095 157.305 185.89 156.488 185.911C155.324 185.911 154.812 186.284 154.812 186.808C154.812 188.427 159.748 186.983 159.748 190.115C159.748 191.606 158.375 192.584 156.127 192.584C154.964 192.591 153.821 192.281 152.821 191.687Z" fill="#263238" fill-opacity="1.000000" fill-rule="nonzero"/>
	<path id="Vector" d="M168.911 189.079L162.636 189.079C162.759 189.661 163.091 190.178 163.569 190.532C164.048 190.886 164.639 191.053 165.232 191C165.634 191.015 166.035 190.945 166.408 190.794C166.781 190.644 167.118 190.416 167.397 190.127L168.398 191.291C167.794 191.892 167.03 192.309 166.198 192.491C165.365 192.673 164.497 192.614 163.697 192.321C162.896 192.028 162.196 191.512 161.678 190.835C161.16 190.157 160.847 189.346 160.773 188.497C160.757 187.952 160.853 187.411 161.054 186.905C161.256 186.399 161.56 185.941 161.946 185.557C162.333 185.174 162.794 184.874 163.301 184.677C163.808 184.479 164.351 184.388 164.895 184.409C165.439 184.387 165.982 184.479 166.488 184.681C166.995 184.882 167.454 185.187 167.834 185.577C168.215 185.967 168.51 186.432 168.7 186.943C168.889 187.454 168.969 187.999 168.934 188.543C168.934 188.671 168.922 188.904 168.911 189.079ZM162.625 187.844L167.153 187.844C167.097 187.292 166.832 186.781 166.412 186.418C165.992 186.054 165.449 185.865 164.895 185.888C164.339 185.867 163.796 186.057 163.375 186.42C162.954 186.783 162.686 187.292 162.625 187.844Z" fill="#263238" fill-opacity="1.000000" fill-rule="nonzero"/>
	<path id="Vector" d="M239.472 174.5L214.908 174.5C213.364 174.5 211.883 175.114 210.792 176.205C209.7 177.297 209.087 178.778 209.087 180.322L209.087 192.281C209.087 193.825 209.7 195.306 210.792 196.398C211.883 197.49 213.364 198.103 214.908 198.103L221.334 198.103L226.189 209.13L233.046 198.103L239.472 198.103C241.016 198.103 242.497 197.49 243.588 196.398C244.68 195.306 245.293 193.825 245.293 192.281L245.293 180.276C245.281 178.74 244.662 177.271 243.572 176.189C242.481 175.107 241.008 174.5 239.472 174.5Z" fill="#FFFFFF" fill-opacity="1.000000" fill-rule="nonzero"/>
	<path id="Vector" d="M214.908 174.5C213.364 174.5 211.883 175.114 210.792 176.205C209.7 177.297 209.087 178.778 209.087 180.322L209.087 192.281C209.087 193.825 209.7 195.306 210.792 196.398C211.883 197.49 213.364 198.103 214.908 198.103L221.334 198.103L226.189 209.13L233.046 198.103L239.472 198.103C241.016 198.103 242.497 197.49 243.588 196.398C244.68 195.306 245.293 193.825 245.293 192.281L245.293 180.276C245.281 178.74 244.662 177.271 243.572 176.189C242.481 175.107 241.008 174.5 239.472 174.5L214.908 174.5Z" stroke="#263238" stroke-opacity="1.000000" stroke-width="1.000000" stroke-linejoin="round"/>
	<path id="Vector" d="M220.542 183.361L220.542 183.897L222.743 183.897L222.743 185.399L220.601 185.399L220.601 191.827L218.784 191.827L218.784 185.399L217.469 185.399L217.469 183.897L218.784 183.897L218.784 183.385C218.754 183.007 218.809 182.627 218.943 182.272C219.077 181.917 219.288 181.596 219.561 181.333C219.833 181.069 220.16 180.869 220.519 180.746C220.878 180.624 221.26 180.583 221.637 180.625C222.229 180.596 222.818 180.746 223.325 181.056L222.801 182.465C222.502 182.25 222.144 182.132 221.776 182.127C220.95 182.069 220.542 182.511 220.542 183.361Z" fill="#263238" fill-opacity="1.000000" fill-rule="nonzero"/>
	<path id="Vector" d="M223.22 187.775C223.188 186.925 223.41 186.085 223.858 185.363C224.307 184.641 224.961 184.069 225.737 183.722C226.513 183.374 227.375 183.267 228.212 183.414C229.049 183.56 229.824 183.954 230.436 184.544C231.047 185.134 231.469 185.894 231.646 186.725C231.822 187.557 231.746 188.423 231.427 189.211C231.108 189.999 230.561 190.673 229.855 191.148C229.15 191.622 228.319 191.875 227.469 191.873C226.916 191.906 226.361 191.823 225.841 191.63C225.321 191.438 224.847 191.14 224.447 190.755C224.048 190.37 223.733 189.906 223.521 189.393C223.311 188.88 223.208 188.329 223.22 187.775ZM229.844 187.775C229.812 187.322 229.649 186.889 229.375 186.528C229.101 186.167 228.727 185.894 228.3 185.743C227.873 185.591 227.41 185.568 226.97 185.675C226.529 185.783 226.13 186.016 225.82 186.347C225.511 186.679 225.305 187.093 225.228 187.54C225.15 187.987 225.205 188.446 225.385 188.862C225.564 189.279 225.862 189.633 226.241 189.883C226.619 190.132 227.062 190.265 227.516 190.266C227.836 190.267 228.152 190.202 228.446 190.075C228.74 189.948 229.004 189.762 229.223 189.528C229.441 189.294 229.609 189.018 229.716 188.716C229.823 188.414 229.867 188.094 229.844 187.775Z" fill="#263238" fill-opacity="1.000000" fill-rule="nonzero"/>
	<path id="Vector" d="M238.132 183.687L238.132 185.469C237.989 185.459 237.845 185.459 237.702 185.469C237.377 185.443 237.051 185.491 236.747 185.608C236.443 185.725 236.17 185.909 235.946 186.145C235.723 186.382 235.556 186.666 235.457 186.976C235.357 187.287 235.329 187.615 235.374 187.938L235.374 191.815L233.499 191.815L233.499 183.781L235.28 183.781L235.28 184.945C235.606 184.506 236.04 184.16 236.54 183.939C237.04 183.719 237.589 183.632 238.132 183.687Z" fill="#263238" fill-opacity="1.000000" fill-rule="nonzero"/>
	<path id="Vector" d="M310.906 173.534L286.307 173.534C284.763 173.534 283.282 174.147 282.191 175.239C281.099 176.331 280.486 177.812 280.486 179.356L280.486 191.314C280.486 192.859 281.099 194.339 282.191 195.431C283.282 196.523 284.763 197.137 286.307 197.137L292.733 197.137L297.588 208.164L304.445 197.137L310.871 197.137C312.415 197.137 313.896 196.523 314.987 195.431C316.079 194.339 316.692 192.859 316.692 191.314L316.692 179.309C316.68 177.779 316.066 176.316 314.983 175.235C313.9 174.154 312.436 173.543 310.906 173.534Z" fill="#FFFFFF" fill-opacity="1.000000" fill-rule="nonzero"/>
	<path id="Vector" d="M286.307 173.534C284.763 173.534 283.282 174.147 282.191 175.239C281.099 176.331 280.486 177.812 280.486 179.356L280.486 191.314C280.486 192.859 281.099 194.339 282.191 195.431C283.282 196.523 284.763 197.137 286.307 197.137L292.733 197.137L297.588 208.164L304.445 197.137L310.871 197.137C312.415 197.137 313.896 196.523 314.987 195.431C316.079 194.339 316.692 192.859 316.692 191.314L316.692 179.309C316.68 177.779 316.066 176.316 314.983 175.235C313.9 174.154 312.436 173.543 310.906 173.534L286.307 173.534Z" stroke="#263238" stroke-opacity="1.000000" stroke-width="1.000000" stroke-linejoin="round"/>
	<path id="Vector" d="M295.434 182.418L302.326 182.418L302.326 183.897L295.434 183.897L295.434 182.418ZM295.434 186.04L302.326 186.04L302.326 187.542L295.434 187.542L295.434 186.04Z" fill="#263238" fill-opacity="1.000000" fill-rule="nonzero"/>
	<path id="Vector" d="M129.666 159.712L105.102 159.712C103.558 159.712 102.077 160.325 100.986 161.417C99.894 162.509 99.2808 163.99 99.2808 165.534L99.2808 177.481C99.2808 179.025 99.894 180.506 100.986 181.598C102.077 182.69 103.558 183.303 105.102 183.303L111.528 183.303L116.383 194.33L123.24 183.303L129.666 183.303C131.21 183.303 132.69 182.69 133.782 181.598C134.874 180.506 135.487 179.025 135.487 177.481L135.487 165.487C135.475 163.951 134.856 162.482 133.766 161.401C132.675 160.319 131.202 159.712 129.666 159.712Z" fill="#FFFFFF" fill-opacity="1.000000" fill-rule="nonzero"/>
	<path id="Vector" d="M105.102 159.712C103.558 159.712 102.077 160.325 100.986 161.417C99.894 162.509 99.2808 163.99 99.2808 165.534L99.2808 177.481C99.2808 179.025 99.894 180.506 100.986 181.598C102.077 182.69 103.558 183.303 105.102 183.303L111.528 183.303L116.383 194.33L123.24 183.303L129.666 183.303C131.21 183.303 132.69 182.69 133.782 181.598C134.874 180.506 135.487 179.025 135.487 177.481L135.487 165.487C135.475 163.951 134.856 162.482 133.766 161.401C132.675 160.319 131.202 159.712 129.666 159.712L105.102 159.712Z" stroke="#263238" stroke-opacity="1.000000" stroke-width="1.000000" stroke-linejoin="round"/>
	<path id="Vector" d="M111.609 164.672L115.172 164.672L115.172 166.174L113.472 166.174L113.472 177.178L115.172 177.178L115.172 178.68L111.609 178.68L111.609 164.672Z" fill="#263238" fill-opacity="1.000000" fill-rule="nonzero"/>
	<path id="Vector" d="M119.829 178.68L119.829 177.178L121.517 177.178L121.517 166.174L119.829 166.174L119.829 164.672L123.321 164.672L123.321 178.645L119.829 178.68Z" fill="#263238" fill-opacity="1.000000" fill-rule="nonzero"/>
	<path id="Vector" d="M202.684 158.489L178.12 158.489C176.576 158.489 175.095 159.103 174.004 160.195C172.912 161.286 172.299 162.767 172.299 164.311L172.299 176.212C172.299 177.756 172.912 179.237 174.004 180.329C175.095 181.421 176.576 182.034 178.12 182.034L184.546 182.034L189.412 193.061L196.27 182.034L202.684 182.034C204.228 182.034 205.708 181.421 206.8 180.329C207.892 179.237 208.505 177.756 208.505 176.212L208.505 164.265C208.493 162.729 207.874 161.26 206.784 160.178C205.693 159.096 204.22 158.489 202.684 158.489Z" fill="#FFFFFF" fill-opacity="1.000000" fill-rule="nonzero"/>
	<path id="Vector" d="M178.12 158.489C176.576 158.489 175.095 159.103 174.004 160.195C172.912 161.286 172.299 162.767 172.299 164.311L172.299 176.212C172.299 177.756 172.912 179.237 174.004 180.329C175.095 181.421 176.576 182.034 178.12 182.034L184.546 182.034L189.412 193.061L196.27 182.034L202.684 182.034C204.228 182.034 205.708 181.421 206.8 180.329C207.892 179.237 208.505 177.756 208.505 176.212L208.505 164.265C208.493 162.729 207.874 161.26 206.784 160.178C205.693 159.096 204.22 158.489 202.684 158.489L178.12 158.489Z" stroke="#263238" stroke-opacity="1.000000" stroke-width="1.000000" stroke-linejoin="round"/>
	<path id="Vector" d="M185.407 170.401C186 170.599 186.292 171.007 186.292 171.927L186.292 174.78C186.265 174.933 186.275 175.091 186.32 175.24C186.365 175.39 186.445 175.526 186.552 175.639C186.66 175.753 186.792 175.839 186.939 175.892C187.085 175.945 187.243 175.963 187.397 175.944L187.712 175.944L187.712 177.446L186.955 177.446C186.618 177.496 186.274 177.469 185.95 177.365C185.626 177.261 185.33 177.084 185.084 176.848C184.839 176.612 184.651 176.322 184.536 176.002C184.42 175.682 184.379 175.339 184.417 175.001L184.417 171.927C184.417 171.426 184.161 171.205 183.742 171.205L183.253 171.205L183.253 169.679L183.742 169.679C184.161 169.679 184.417 169.458 184.417 168.957L184.417 165.872C184.379 165.534 184.419 165.191 184.535 164.871C184.651 164.552 184.839 164.263 185.084 164.027C185.33 163.792 185.626 163.616 185.951 163.514C186.275 163.412 186.619 163.386 186.955 163.438L187.712 163.438L187.712 164.94L187.351 164.94C187.195 164.919 187.037 164.935 186.889 164.987C186.741 165.039 186.608 165.125 186.5 165.239C186.392 165.353 186.312 165.491 186.268 165.641C186.224 165.792 186.216 165.95 186.245 166.105L186.245 168.946C186.292 169.807 186 170.215 185.407 170.401Z" fill="#263238" fill-opacity="1.000000" fill-rule="nonzero"/>
	<path id="Vector" d="M196.816 169.644L196.816 171.17L196.304 171.17C195.896 171.17 195.64 171.391 195.64 171.892L195.64 174.966C195.676 175.305 195.633 175.648 195.516 175.968C195.399 176.288 195.21 176.577 194.964 176.813C194.718 177.049 194.421 177.226 194.097 177.329C193.772 177.433 193.428 177.461 193.091 177.411L192.334 177.411L192.334 175.909L192.648 175.909C192.807 175.935 192.97 175.923 193.123 175.874C193.276 175.825 193.416 175.74 193.529 175.626C193.643 175.512 193.728 175.373 193.777 175.219C193.827 175.066 193.839 174.903 193.812 174.745L193.812 171.892C193.812 170.972 194.08 170.564 194.674 170.366C194.08 170.18 193.812 169.773 193.812 168.841L193.812 166C193.841 165.841 193.832 165.677 193.783 165.522C193.735 165.368 193.65 165.227 193.536 165.113C193.421 164.998 193.28 164.913 193.126 164.865C192.972 164.816 192.808 164.806 192.648 164.835L192.334 164.835L192.334 163.403L193.091 163.403C193.427 163.351 193.771 163.377 194.096 163.48C194.421 163.582 194.718 163.757 194.964 163.992C195.21 164.227 195.4 164.516 195.517 164.836C195.634 165.156 195.676 165.498 195.64 165.837L195.64 168.923C195.64 169.423 195.896 169.644 196.304 169.644L196.816 169.644Z" fill="#263238" fill-opacity="1.000000" fill-rule="nonzero"/>
	<path id="Vector" d="M274.933 156.067L250.369 156.067C248.825 156.067 247.344 156.681 246.253 157.773C245.161 158.864 244.548 160.345 244.548 161.889L244.548 173.836C244.548 175.381 245.161 176.861 246.253 177.953C247.344 179.045 248.825 179.659 250.369 179.659L256.783 179.659L261.65 190.686L268.507 179.659L274.933 179.659C276.477 179.659 277.958 179.045 279.049 177.953C280.141 176.861 280.754 175.381 280.754 173.836L280.754 161.843C280.742 160.307 280.123 158.838 279.033 157.756C277.942 156.674 276.469 156.067 274.933 156.067Z" fill="#FFFFFF" fill-opacity="1.000000" fill-rule="nonzero"/>
	<path id="Vector" d="M250.369 156.067C248.825 156.067 247.344 156.681 246.253 157.773C245.161 158.864 244.548 160.345 244.548 161.889L244.548 173.836C244.548 175.381 245.161 176.861 246.253 177.953C247.344 179.045 248.825 179.659 250.369 179.659L256.783 179.659L261.65 190.686L268.507 179.659L274.933 179.659C276.477 179.659 277.958 179.045 279.049 177.953C280.141 176.861 280.754 175.381 280.754 173.836L280.754 161.843C280.742 160.307 280.123 158.838 279.033 157.756C277.942 156.674 276.469 156.067 274.933 156.067L250.369 156.067Z" stroke="#263238" stroke-opacity="1.000000" stroke-width="1.000000" stroke-linejoin="round"/>
	<path id="Vector" d="M261.673 164.905C261.656 164.734 261.675 164.561 261.729 164.397C261.784 164.234 261.872 164.084 261.987 163.956C262.103 163.829 262.244 163.727 262.401 163.657C262.559 163.587 262.729 163.551 262.901 163.551C263.073 163.551 263.244 163.587 263.401 163.657C263.558 163.727 263.699 163.829 263.815 163.956C263.931 164.084 264.019 164.234 264.072 164.397C264.126 164.561 264.146 164.734 264.129 164.905C264.146 165.077 264.126 165.25 264.072 165.413C264.019 165.577 263.931 165.727 263.815 165.854C263.699 165.982 263.558 166.084 263.401 166.154C263.244 166.223 263.073 166.259 262.901 166.259C262.729 166.259 262.559 166.223 262.401 166.154C262.244 166.084 262.103 165.982 261.987 165.854C261.872 165.727 261.784 165.577 261.729 165.413C261.675 165.25 261.656 165.077 261.673 164.905ZM264.129 170.611C264.098 171.057 263.979 171.492 263.78 171.892L263.012 174.011L261.848 174.011L262.453 171.682C262.237 171.591 262.053 171.436 261.927 171.239C261.8 171.042 261.736 170.81 261.743 170.576C261.743 170.253 261.871 169.944 262.099 169.716C262.327 169.487 262.637 169.359 262.959 169.359C263.282 169.359 263.591 169.487 263.819 169.716C264.048 169.944 264.176 170.253 264.176 170.576L264.129 170.611Z" fill="#263238" fill-opacity="1.000000" fill-rule="nonzero"/>
	<path id="Vector" d="M178.911 365.012L203.463 365.012C205.007 365.012 206.488 364.398 207.58 363.307C208.671 362.215 209.284 360.734 209.284 359.19L209.284 347.278C209.269 345.744 208.649 344.278 207.559 343.198C206.469 342.119 204.997 341.514 203.463 341.514L197.049 341.514L195.174 330.487L185.325 341.514L178.911 341.514C177.377 341.514 175.905 342.119 174.815 343.198C173.725 344.278 173.105 345.744 173.09 347.278L173.09 359.236C173.102 360.772 173.721 362.241 174.811 363.323C175.901 364.405 177.375 365.012 178.911 365.012Z" fill="#FFFFFF" fill-opacity="1.000000" fill-rule="nonzero"/>
	<path id="Vector" d="M203.463 365.012C205.007 365.012 206.488 364.398 207.58 363.307C208.671 362.215 209.284 360.734 209.284 359.19L209.284 347.278C209.269 345.744 208.649 344.278 207.559 343.198C206.469 342.119 204.997 341.514 203.463 341.514L197.049 341.514L195.174 330.487L185.325 341.514L178.911 341.514C177.377 341.514 175.905 342.119 174.815 343.198C173.725 344.278 173.105 345.744 173.09 347.278L173.09 359.236C173.102 360.772 173.721 362.241 174.811 363.323C175.901 364.405 177.375 365.012 178.911 365.012L203.463 365.012Z" stroke="#263238" stroke-opacity="1.000000" stroke-width="1.000000" stroke-linejoin="round"/>
	<path id="Vector" d="M187.538 350.806L182.38 352.739L187.538 354.672L187.538 356.232L180.646 353.554L180.646 351.924L187.538 349.245L187.538 350.806Z" fill="#263238" fill-opacity="1.000000" fill-rule="nonzero"/>
	<path id="Vector" d="M192.986 345.368L194.651 345.368L189.68 359.469L188.05 359.469L192.986 345.368Z" fill="#263238" fill-opacity="1.000000" fill-rule="nonzero"/>
	<path id="Vector" d="M201.904 351.924L201.904 353.542L195.012 356.22L195.012 354.66L200.157 352.739L195 350.817L195 349.245L201.904 351.924Z" fill="#263238" fill-opacity="1.000000" fill-rule="nonzero"/>
	<path id="Vector" d="M22.77 277.971L47.3228 277.971C48.8667 277.971 50.3472 277.358 51.439 276.266C52.5303 275.174 53.1436 273.693 53.1436 272.149L53.1436 260.248C53.1436 258.704 52.5303 257.223 51.439 256.132C50.3472 255.04 48.8667 254.426 47.3228 254.426L40.9082 254.426L42.3052 243.399L29.1846 254.426L22.77 254.426C21.2266 254.426 19.7456 255.04 18.6543 256.132C17.5625 257.223 16.9492 258.704 16.9492 260.248L16.9492 272.195C16.9614 273.731 17.5801 275.2 18.6704 276.282C19.7607 277.364 21.2344 277.971 22.77 277.971Z" fill="#FFFFFF" fill-opacity="1.000000" fill-rule="nonzero"/>
	<path id="Vector" d="M47.3228 277.971C48.8667 277.971 50.3472 277.358 51.439 276.266C52.5303 275.174 53.1436 273.693 53.1436 272.149L53.1436 260.248C53.1436 258.704 52.5303 257.223 51.439 256.132C50.3472 255.04 48.8667 254.426 47.3228 254.426L40.9082 254.426L42.3052 243.399L29.1846 254.426L22.77 254.426C21.2266 254.426 19.7456 255.04 18.6543 256.132C17.5625 257.223 16.9492 258.704 16.9492 260.248L16.9492 272.195C16.9614 273.731 17.5801 275.2 18.6704 276.282C19.7607 277.364 21.2344 277.971 22.77 277.971L47.3228 277.971Z" stroke="#263238" stroke-opacity="1.000000" stroke-width="1.000000" stroke-linejoin="round"/>
	<path id="Vector" d="M30.0469 270.391C30.0469 270.082 30.1694 269.786 30.3877 269.567C30.606 269.349 30.9023 269.226 31.2109 269.226C31.52 269.226 31.8159 269.349 32.0342 269.567C32.2524 269.786 32.375 270.082 32.375 270.391C32.375 270.699 32.2524 270.996 32.0342 271.214C31.8159 271.432 31.52 271.555 31.2109 271.555C30.9023 271.555 30.606 271.432 30.3877 271.214C30.1694 270.996 30.0469 270.699 30.0469 270.391ZM30.1865 260.982L32.3984 260.982L32.0259 267.969L30.5127 267.969L30.1865 260.982Z" fill="#263238" fill-opacity="1.000000" fill-rule="nonzero"/>
	<path id="Vector" d="M34.2959 263.66L41.188 263.66L41.188 265.162L34.2959 265.162L34.2959 263.66ZM34.2959 267.282L41.188 267.282L41.188 268.784L34.2959 268.784L34.2959 267.282Z" fill="#263238" fill-opacity="1.000000" fill-rule="nonzero"/>
</svg>
