<svg width="15.003906" height="15.004089" id="arrow" viewBox="0 0 15.0039 15.0041" fill="none" xmlns="http://www.w3.org/2000/svg" xmlns:xlink="http://www.w3.org/1999/xlink">
	<desc>
			Created with Pixso.
	</desc>
	<defs/>
	<path id="Arrow 1" d="M0.296875 13.2929L13.2969 0.292892L14.7109 1.70711L1.71094 14.7071L0.296875 13.2929ZM1.71094 14.6788L1.71094 14.7071C1.31494 15.1031 0.692871 15.1031 0.296875 14.7071C-0.0991211 14.3111 -0.0991211 13.6889 0.296875 13.2929L0.325195 13.2929L1.71094 14.6788ZM13.0039 2L6.00391 2C5.44385 2 5.00391 1.56 5.00391 1C5.00391 0.440002 5.44385 0 6.00391 0L14.0039 0C14.564 0 15.0039 0.439999 15.0039 1L15.0039 9C15.0039 9.56 14.564 10 14.0039 10C13.4438 10 13.0039 9.56 13.0039 9L13.0039 2Z" fill="#FFFFFF" fill-opacity="1.000000" fill-rule="evenodd"/>
</svg>
