<svg width="37.000000" height="37.000000" viewBox="0 0 37 37" fill="none" xmlns="http://www.w3.org/2000/svg" xmlns:xlink="http://www.w3.org/1999/xlink">
	<desc>
			Created with Pixso.
	</desc>
	<defs/>
	<circle id="Ellipse 797" cx="18.500000" cy="18.500000" r="18.500000" fill="#FFFFFF" fill-opacity="1.000000"/>
	<path id="Arrow 5" d="M20 22.58L23.94 18.63C24.34 18.24 24.96 18.24 25.36 18.63C25.75 19.03 25.75 19.65 25.36 20.05L19.7 25.7C19.31 26.1 18.68 26.1 18.29 25.7L12.63 20.05C12.24 19.65 12.24 19.03 12.63 18.63C13.03 18.24 13.65 18.24 14.05 18.63L18 22.58L18 12C18 11.44 18.43 11 19 11C19.56 11 20 11.44 20 12L20 22.58Z" fill="#22253B" fill-opacity="1.000000" fill-rule="evenodd"/>
</svg>
