<svg width="87.157227" height="32.000000" id="footer-logo" viewBox="0 0 87.1572 32" fill="none" xmlns="http://www.w3.org/2000/svg" xmlns:xlink="http://www.w3.org/1999/xlink">
	<desc>
			Created with Pixso.
	</desc>
	<defs/>
	<path id="Union" d="M31.8613 12.8643L31.8613 27.9487C32.0146 29.2993 33.2979 32 37.2017 32L42.8179 32L42.8179 28.9614L37.2017 28.9614C36.4038 28.9614 34.8076 28.5195 34.8076 26.752L34.8076 12.8643L41.4365 12.8643L41.4365 9.5498L34.8076 9.5498L34.8076 4.01025L31.8613 4.01025L31.8613 9.5498L27.8101 9.5498L27.8101 12.8643L31.8613 12.8643Z" clip-rule="evenodd" fill="#22253B" fill-opacity="1.000000" fill-rule="evenodd"/>
	<path id="Union" d="M76.2007 12.8643L76.2007 27.9487C76.354 29.2993 77.6372 32 81.541 32L87.1572 32L87.1572 28.9614L81.541 28.9614C80.7432 28.9614 79.147 28.5195 79.147 26.752L79.147 12.8643L85.7759 12.8643L85.7759 9.5498L79.147 9.5498L79.147 4.01025L76.2007 4.01025L76.2007 9.5498L72.1494 9.5498L72.1494 12.8643L76.2007 12.8643Z" clip-rule="evenodd" fill="#22253B" fill-opacity="1.000000" fill-rule="evenodd"/>
	<path id="Union" d="M0 0L3.75439 0L12.4287 15.1475L21.2734 0L25.1162 0L14.1118 18.9019L14.1138 18.9019L14.1138 31.9995L10.3652 31.9995L10.3652 18.9019L10.3574 18.9019L0 0Z" clip-rule="evenodd" fill="#38BFF2" fill-opacity="1.000000" fill-rule="evenodd"/>
	<path id="Union" d="M44.3398 0L48.0942 0L56.7686 15.1475L65.6133 0L69.4561 0L58.4517 18.9019L58.4541 18.9019L58.4541 31.9995L54.7056 31.9995L54.7056 18.9019L54.6973 18.9019L44.3398 0Z" clip-rule="evenodd" fill="#F15525" fill-opacity="1.000000" fill-rule="evenodd"/>
</svg>
