<svg width="50.926758" height="59.381348" id="languages-7" viewBox="0 0 50.9268 59.3813" fill="none" xmlns="http://www.w3.org/2000/svg" xmlns:xlink="http://www.w3.org/1999/xlink">
	<desc>
			Created with Pixso.
	</desc>
	<defs/>
	<path id="Vector" d="M34.7295 3.7113L34.7295 55.67C34.7295 57.3782 33.3447 58.7628 31.6367 58.7628L3.71094 58.7628C2.00293 58.7628 0.618164 57.3782 0.618164 55.67L0.618164 3.7113C0.618164 2.00317 2.00293 0.61853 3.71094 0.61853L31.6367 0.61853C33.3447 0.618652 34.7295 2.0033 34.7295 3.7113Z" fill="#FFFFFF" fill-opacity="1.000000" fill-rule="nonzero"/>
	<path id="Vector" d="M26.2778 0.618652L26.2778 3.08789C26.2778 4.45447 25.1704 5.56213 23.8037 5.56213L11.5439 5.56213C10.1772 5.56213 9.06982 4.45435 9.06982 3.08789L9.06982 0.618652L26.2778 0.618652Z" fill="#38BFF2" fill-opacity="1.000000" fill-rule="nonzero"/>
	<path id="Vector" d="M50.3086 20.4558L50.3086 40.1631C50.3086 41.5295 49.2007 42.6372 47.8345 42.6372L17.6733 42.6372L17.6733 17.9816L47.834 17.9816C49.2007 17.9816 50.3086 19.0894 50.3086 20.4558Z" fill="#38BFF2" fill-opacity="1.000000" fill-rule="nonzero"/>
	<path id="Vector" d="M17.6733 23.0383L50.3086 23.0383L50.3086 29.1689L17.6733 29.1689L17.6733 23.0383Z" fill="#D7E9FF" fill-opacity="1.000000" fill-rule="nonzero"/>
	<path id="Vector" d="M9.51953 54.4331C9.17773 54.4331 8.90088 54.7098 8.90088 55.0516C8.90088 55.3936 9.17773 55.6702 9.51953 55.6702L25.8286 55.6702C26.1704 55.6702 26.4473 55.3934 26.4473 55.0516C26.4473 54.7097 26.1704 54.4331 25.8286 54.4331L9.51953 54.4331Z" fill="#1A2E35" fill-opacity="1.000000" fill-rule="nonzero"/>
	<path id="Vector" d="M22.1606 3.70911L23.2651 3.70911C23.6064 3.70911 23.8833 3.43237 23.8833 3.09058C23.8833 2.74878 23.6064 2.47205 23.2651 2.47205L22.1606 2.47205C21.8188 2.47205 21.542 2.74878 21.542 3.09058C21.542 3.43237 21.8188 3.70911 22.1606 3.70911Z" fill="#1A2E35" fill-opacity="1.000000" fill-rule="nonzero"/>
	<path id="Vector" d="M12.083 3.70911L19.2617 3.70911C19.603 3.70911 19.8799 3.43237 19.8799 3.09058C19.8799 2.74878 19.603 2.47205 19.2617 2.47205L12.083 2.47205C11.7412 2.47205 11.4644 2.74878 11.4644 3.09058C11.4644 3.43237 11.7412 3.70911 12.083 3.70911Z" fill="#1A2E35" fill-opacity="1.000000" fill-rule="nonzero"/>
	<path id="Vector" d="M47.834 17.363L35.3481 17.363L35.3481 3.7113C35.3481 1.66479 33.6836 0 31.6372 0C25.5552 0 9.79688 0 3.71143 0C1.66455 0 0 1.66479 0 3.7113L0 55.67C0 57.7166 1.66455 59.3813 3.71143 59.3813L31.6367 59.3813C33.6836 59.3813 35.3481 57.7166 35.3481 55.67L35.3481 43.2555L47.834 43.2555C49.5396 43.2555 50.9268 41.868 50.9268 40.1627C50.9268 32.9711 50.9268 27.5382 50.9268 20.4559C50.9268 18.7506 49.5396 17.363 47.834 17.363ZM49.6899 20.4559L49.6899 22.4197L18.292 22.4197L18.292 18.6002L47.834 18.6002C48.8574 18.6002 49.6899 19.4326 49.6899 20.4559ZM49.6899 28.5503L18.292 28.5503L18.292 23.6567L49.6899 23.6567L49.6899 28.5503ZM25.6597 1.23718L25.6597 3.08801C25.6597 4.11133 24.8271 4.94373 23.8037 4.94373L11.5439 4.94373C10.521 4.94373 9.68848 4.11133 9.68848 3.08801L9.68848 1.23718L25.6597 1.23718ZM34.1113 55.6702C34.1113 57.0347 33.001 58.1443 31.6372 58.1443L3.71143 58.1443C2.34668 58.1443 1.23682 57.0347 1.23682 55.6702L1.23682 3.7113C1.23682 2.3468 2.34717 1.23718 3.71143 1.23718L8.45117 1.23718L8.45117 3.08801C8.45117 4.79333 9.83887 6.18079 11.5439 6.18079L23.8037 6.18079C25.5088 6.18079 26.8965 4.79333 26.8965 3.08801L26.8965 1.23718L31.6367 1.23718C33.001 1.23718 34.1108 2.3468 34.1108 3.7113L34.1108 17.363L18.292 17.363L18.292 14.573C18.292 14.231 18.0151 13.9545 17.6733 13.9545C17.332 13.9545 17.0547 14.2311 17.0547 14.573L17.0547 46.0389C17.0547 46.381 17.332 46.6575 17.6733 46.6575C18.0151 46.6575 18.292 46.3809 18.292 46.0389L18.292 43.2554L34.1108 43.2554L34.1108 55.6702L34.1113 55.6702ZM47.834 42.0184L18.292 42.0184L18.292 34.4579L38.7422 34.4579C39.084 34.4579 39.3608 34.1813 39.3608 33.8394C39.3608 33.4974 39.084 33.2209 38.7422 33.2209L18.292 33.2209L18.292 29.7875L49.6899 29.7875L49.6899 40.1627C49.6899 41.186 48.8574 42.0184 47.834 42.0184Z" fill="#1A2E35" fill-opacity="1.000000" fill-rule="nonzero"/>
	<path id="Vector" d="M38.7422 37.3478L36.9702 37.3478C36.6284 37.3478 36.3516 37.6245 36.3516 37.9663C36.3516 38.3082 36.6284 38.5848 36.9702 38.5848L38.7422 38.5848C39.0835 38.5848 39.3604 38.3081 39.3604 37.9663C39.3604 37.6245 39.0835 37.3478 38.7422 37.3478Z" fill="#1A2E35" fill-opacity="1.000000" fill-rule="nonzero"/>
	<path id="Vector" d="M33.6768 37.3478L31.9048 37.3478C31.563 37.3478 31.2861 37.6245 31.2861 37.9663C31.2861 38.3082 31.563 38.5848 31.9048 38.5848L33.6768 38.5848C34.0181 38.5848 34.2949 38.3081 34.2949 37.9663C34.2949 37.6245 34.0181 37.3478 33.6768 37.3478Z" fill="#1A2E35" fill-opacity="1.000000" fill-rule="nonzero"/>
	<path id="Vector" d="M28.6113 37.3478L26.8394 37.3478C26.4976 37.3478 26.2207 37.6245 26.2207 37.9663C26.2207 38.3082 26.4976 38.5848 26.8394 38.5848L28.6113 38.5848C28.9526 38.5848 29.2295 38.3081 29.2295 37.9663C29.23 37.6245 28.9526 37.3478 28.6113 37.3478Z" fill="#1A2E35" fill-opacity="1.000000" fill-rule="nonzero"/>
	<path id="Vector" d="M23.5464 37.3478L21.7744 37.3478C21.4326 37.3478 21.1558 37.6245 21.1558 37.9663C21.1558 38.3082 21.4326 38.5848 21.7744 38.5848L23.5464 38.5848C23.8877 38.5848 24.1646 38.3081 24.1646 37.9663C24.165 37.6245 23.8877 37.3478 23.5464 37.3478Z" fill="#1A2E35" fill-opacity="1.000000" fill-rule="nonzero"/>
</svg>
