<svg width="53.000488" height="19.459137" id="logo" viewBox="0 0 53.0005 19.4591" fill="none" xmlns="http://www.w3.org/2000/svg" xmlns:xlink="http://www.w3.org/1999/xlink">
	<desc>
			Created with Pixso.
	</desc>
	<defs/>
	<path id="Union" d="M19.375 7.823L19.375 16.9956C19.4683 17.8168 20.2485 19.4591 22.6221 19.4591L26.0376 19.4591L26.0376 17.6115L22.6221 17.6115C22.1372 17.6115 21.1665 17.3428 21.1665 16.2678L21.1665 7.823L25.1973 7.823L25.1973 5.80743L21.1665 5.80743L21.1665 2.4386L19.375 2.4386L19.375 5.80743L16.9111 5.80743L16.9111 7.823L19.375 7.823Z" clip-rule="evenodd" fill="#000000" fill-opacity="1.000000" fill-rule="evenodd"/>
	<path id="Union" d="M46.3379 7.823L46.3379 16.9956C46.4312 17.8168 47.2114 19.4591 49.585 19.4591L53.0005 19.4591L53.0005 17.6115L49.585 17.6115C49.1001 17.6115 48.1294 17.3428 48.1294 16.2678L48.1294 7.823L52.1602 7.823L52.1602 5.80743L48.1294 5.80743L48.1294 2.4386L46.3379 2.4386L46.3379 5.80743L43.874 5.80743L43.874 7.823L46.3379 7.823Z" clip-rule="evenodd" fill="#000000" fill-opacity="1.000000" fill-rule="evenodd"/>
	<path id="Union" d="M0 0L2.2832 0L7.55811 9.21118L12.9365 0L15.2734 0L8.58154 11.4943L6.29834 11.4943L0 0ZM8.58252 11.4943L6.30322 11.4943L6.30322 19.4591L8.58252 19.4591L8.58252 11.4943Z" clip-rule="evenodd" fill="#38BFF2" fill-opacity="1.000000" fill-rule="evenodd"/>
	<path id="Union" d="M26.9629 0L29.2461 0L34.521 9.21118L39.8994 0L42.2363 0L35.5444 11.4943L33.2612 11.4943L26.9629 0ZM35.5454 11.4943L33.2661 11.4943L33.2661 19.4591L35.5454 19.4591L35.5454 11.4943Z" clip-rule="evenodd" fill="#F15525" fill-opacity="1.000000" fill-rule="evenodd"/>
</svg>
