<svg width="91.000000" height="91.000000" id="megafon" viewBox="0 0 91 91" fill="none" xmlns="http://www.w3.org/2000/svg" xmlns:xlink="http://www.w3.org/1999/xlink">
	<desc>
			Created with Pixso.
	</desc>
	<defs>
		<clipPath id="clip38_3223">
			<rect id="svg-gobbler (1) 2" width="91.000000" height="91.000000" fill="white" fill-opacity="0"/>
		</clipPath>
	</defs>
	<rect id="svg-gobbler (1) 2" width="91.000000" height="91.000000" fill="#FFFFFF" fill-opacity="0"/>
	<g clip-path="url(#clip38_3223)">
		<path id="Vector" d="M89.5923 44.7764C89.5923 51.749 83.9492 57.3921 76.9766 57.3921L76.9766 32.1245C83.9497 32.1245 89.5923 37.7852 89.5923 44.7764Z" fill="#FFFFFF" fill-opacity="1.000000" fill-rule="nonzero"/>
		<path id="Vector" d="M73.79 6.16943C72.0303 6.16943 70.6035 7.59619 70.6035 9.35596L70.6035 80.1602C70.6035 81.9199 72.0303 83.3467 73.79 83.3467C75.5503 83.3467 76.9766 81.9199 76.9766 80.1602L76.9766 9.35596C76.9766 7.59619 75.5503 6.16943 73.79 6.16943Z" fill="#FFFFFF" fill-opacity="1.000000" fill-rule="nonzero"/>
		<path id="Vector" d="M70.6069 11.6538L70.6069 77.8623C63.5176 65.0063 46.3301 57.4761 32.3931 56.7842L32.3931 32.7319C46.3301 32.0405 63.5176 24.5103 70.6069 11.6538Z" fill="#38BFF2" fill-opacity="1.000000" fill-rule="nonzero"/>
		<path id="Vector" d="M32.3887 32.729L32.3887 56.791C32.3887 58.2168 31.2329 59.373 29.8066 59.373L9.79639 59.373C8.37012 59.373 7.21436 58.2168 7.21436 56.791L7.21436 32.729C7.21436 31.3027 8.37012 30.147 9.79639 30.147L29.8066 30.147C31.2329 30.147 32.3887 31.3027 32.3887 32.729Z" fill="#FFFFFF" fill-opacity="1.000000" fill-rule="nonzero"/>
		<path id="Vector" d="M3.78076 35.8462L7.21484 35.8462L7.21484 53.6724L3.78076 53.6724C2.46777 53.6724 1.40723 52.6118 1.40723 51.2988L1.40723 38.2197C1.40723 36.9067 2.46777 35.8462 3.78076 35.8462Z" fill="#38BFF2" fill-opacity="1.000000" fill-rule="nonzero"/>
		<path id="Vector" d="M25.5083 27.6445L25.5083 30.1431L14.1006 30.1431L14.1006 27.6445C14.1006 26.2759 15.21 25.1665 16.5786 25.1665L23.0303 25.1665C24.3989 25.1665 25.5083 26.2759 25.5083 27.6445Z" fill="#FFFFFF" fill-opacity="1.000000" fill-rule="nonzero"/>
		<path id="Vector" d="M18.3906 83.6094L25.8398 59.3726L13.7632 59.3726L13.7632 83.1016C13.7632 84.0562 14.5376 84.8306 15.4922 84.8306L16.7378 84.8306C17.4971 84.8306 18.1675 84.335 18.3906 83.6094Z" fill="#38BFF2" fill-opacity="1.000000" fill-rule="nonzero"/>
		<path id="Vector" d="M90.5312 44.7764C90.5312 37.6006 84.9512 31.7207 77.9155 31.2339L77.9155 9.35596C77.9155 7.08203 76.0649 5.23145 73.7905 5.23145C71.5166 5.23145 69.666 7.08203 69.666 9.35596L69.666 11.4058C62.7632 23.6689 46.2954 30.8354 33.1689 31.7422C32.7393 30.2837 31.4028 29.209 29.8071 29.209L26.4468 29.209L26.4468 27.644C26.4468 25.7607 24.9141 24.228 23.0303 24.228L16.5791 24.228C14.6953 24.228 13.1626 25.7607 13.1626 27.644L13.1626 29.209L9.79688 29.209C7.85645 29.209 6.27686 30.7886 6.27686 32.729L6.27686 34.9087L3.78125 34.9087C1.95508 34.9087 0.469238 36.3945 0.469238 38.2202L0.469238 51.2993C0.469238 53.1255 1.95508 54.6104 3.78125 54.6104L6.27686 54.6104L6.27686 56.791C6.27686 58.7314 7.85645 60.3105 9.79639 60.3105L12.8257 60.3105L12.8257 83.1021C12.8257 84.5723 14.022 85.769 15.4922 85.769L16.7373 85.769C17.9165 85.769 18.9409 85.0122 19.2871 83.8853L26.5337 60.3105L29.8071 60.3105C31.4038 60.3105 32.7407 59.2349 33.1699 57.7749C46.2959 58.6821 62.7642 65.8486 69.6655 78.1104L69.6655 80.1602C69.6655 82.4341 71.5161 84.2847 73.79 84.2847C76.0649 84.2847 77.9155 82.4341 77.9155 80.1602L77.9155 58.2827C84.9512 57.7969 90.5312 51.9331 90.5312 44.7764ZM15.0391 27.644C15.0391 26.7949 15.7295 26.104 16.5791 26.104L23.0303 26.104C23.8799 26.104 24.5703 26.7949 24.5703 27.644L24.5703 29.2046L15.0391 29.2046L15.0391 27.644ZM3.78125 52.7344C2.98975 52.7344 2.3457 52.0898 2.3457 51.2993L2.3457 38.2202C2.3457 37.4287 2.98975 36.7847 3.78125 36.7847L6.27686 36.7847L6.27686 52.7344L3.78125 52.7344ZM17.4932 83.334L17.4932 83.3345C17.3906 83.668 17.0874 83.8926 16.7373 83.8926L15.4922 83.8926C15.0562 83.8926 14.7017 83.5381 14.7017 83.1021L14.7017 60.3105L24.5708 60.3105L17.4932 83.334ZM31.4512 56.791C31.4512 57.6973 30.7134 58.4346 29.8076 58.4346C22.7378 58.4346 16.8706 58.4346 9.79688 58.4346C8.89062 58.4346 8.15332 57.6973 8.15332 56.791C8.15332 50.7383 8.15332 38.7812 8.15332 32.729C8.15332 31.8228 8.89062 31.0854 9.79688 31.0854L29.8076 31.0854C30.7134 31.0854 31.4512 31.8228 31.4512 32.729L31.4512 56.791ZM33.332 55.9014L33.332 33.6157C46.0186 32.7256 61.7261 26.1665 69.6655 14.918L69.6655 74.5981C61.7271 63.3506 46.019 56.7905 33.332 55.9014ZM76.0396 80.1602C76.0396 81.3999 75.0308 82.4082 73.79 82.4082C72.5508 82.4082 71.542 81.3999 71.542 80.1602C71.5469 -6.92041 71.542 15.7017 71.542 9.35596C71.542 8.11621 72.5508 7.10791 73.79 7.10791C75.0308 7.10791 76.0396 8.11621 76.0396 9.35596L76.0396 80.1602ZM77.9155 56.4165L77.9155 33.1001C83.9175 33.5801 88.6548 38.6338 88.6548 44.7764C88.6548 50.8999 83.9175 55.937 77.9155 56.4165Z" fill="#1A2E35" fill-opacity="1.000000" fill-rule="nonzero"/>
		<path id="Vector" d="M28.0327 33.8857L11.5708 33.8857C11.0522 33.8857 10.6328 34.3052 10.6328 34.8237C10.6328 35.3423 11.0522 35.7617 11.5708 35.7617L28.0327 35.7617C28.5513 35.7617 28.9707 35.3423 28.9707 34.8237C28.9707 34.3052 28.5508 33.8857 28.0327 33.8857Z" fill="#1A2E35" fill-opacity="1.000000" fill-rule="nonzero"/>
		<path id="Vector" d="M28.0327 38.854L11.5708 38.854C11.0522 38.854 10.6328 39.2734 10.6328 39.792C10.6328 40.3105 11.0522 40.73 11.5708 40.73L28.0327 40.73C28.5513 40.73 28.9707 40.3105 28.9707 39.792C28.9707 39.2734 28.5508 38.854 28.0327 38.854Z" fill="#1A2E35" fill-opacity="1.000000" fill-rule="nonzero"/>
		<path id="Vector" d="M28.0327 43.8218L11.5708 43.8218C11.0522 43.8218 10.6328 44.2412 10.6328 44.7598C10.6328 45.2783 11.0522 45.6978 11.5708 45.6978L28.0327 45.6978C28.5513 45.6978 28.9707 45.2783 28.9707 44.7598C28.9707 44.2412 28.5508 43.8218 28.0327 43.8218Z" fill="#1A2E35" fill-opacity="1.000000" fill-rule="nonzero"/>
		<path id="Vector" d="M28.0327 48.7891L11.5708 48.7891C11.0522 48.7891 10.6328 49.2085 10.6328 49.7271C10.6328 50.2456 11.0522 50.665 11.5708 50.665L28.0327 50.665C28.5513 50.665 28.9707 50.2456 28.9707 49.7271C28.9707 49.2085 28.5508 48.7891 28.0327 48.7891Z" fill="#1A2E35" fill-opacity="1.000000" fill-rule="nonzero"/>
		<path id="Vector" d="M28.0327 53.7563L11.5708 53.7563C11.0522 53.7563 10.6328 54.1758 10.6328 54.6943C10.6328 55.2129 11.0522 55.6323 11.5708 55.6323L28.0327 55.6323C28.5513 55.6323 28.9707 55.2129 28.9707 54.6943C28.9707 54.1758 28.5508 53.7563 28.0327 53.7563Z" fill="#1A2E35" fill-opacity="1.000000" fill-rule="nonzero"/>
	</g>
</svg>
